<svg width="329" height="50" viewBox="0 0 329 50" fill="none" xmlns="http://www.w3.org/2000/svg">
<rect x="0.5" y="0.5" width="328" height="49" rx="8.5" fill="white" stroke="#CFD8DC"/>
<path d="M19.856 18.42V31H18.309V18.42H19.856ZM26.5556 31.153C25.6829 31.153 24.8896 30.9547 24.1756 30.558C23.4729 30.1613 22.9176 29.6003 22.5096 28.875C22.1129 28.1383 21.9146 27.2883 21.9146 26.325C21.9146 25.373 22.1186 24.5343 22.5266 23.809C22.9459 23.0723 23.5126 22.5113 24.2266 22.126C24.9406 21.7293 25.7396 21.531 26.6236 21.531C27.5076 21.531 28.3066 21.7293 29.0206 22.126C29.7346 22.5113 30.2956 23.0667 30.7036 23.792C31.1229 24.5173 31.3326 25.3617 31.3326 26.325C31.3326 27.2883 31.1173 28.1383 30.6866 28.875C30.2673 29.6003 29.6949 30.1613 28.9696 30.558C28.2443 30.9547 27.4396 31.153 26.5556 31.153ZM26.5556 29.793C27.1109 29.793 27.6323 29.6627 28.1196 29.402C28.6069 29.1413 28.9979 28.7503 29.2926 28.229C29.5986 27.7077 29.7516 27.073 29.7516 26.325C29.7516 25.577 29.6043 24.9423 29.3096 24.421C29.0149 23.8997 28.6296 23.5143 28.1536 23.265C27.6776 23.0043 27.1619 22.874 26.6066 22.874C26.0399 22.874 25.5186 23.0043 25.0426 23.265C24.5779 23.5143 24.2039 23.8997 23.9206 24.421C23.6373 24.9423 23.4956 25.577 23.4956 26.325C23.4956 27.0843 23.6316 27.7247 23.9036 28.246C24.1869 28.7673 24.5609 29.1583 25.0256 29.419C25.4903 29.6683 26.0003 29.793 26.5556 29.793ZM34.9136 23.197C35.1856 22.6643 35.571 22.2507 36.0696 21.956C36.5796 21.6613 37.1973 21.514 37.9226 21.514V23.112H37.5146C35.7806 23.112 34.9136 24.0527 34.9136 25.934V31H33.3666V21.684H34.9136V23.197ZM48.2084 25.985C48.2084 26.2797 48.1914 26.5913 48.1574 26.92H40.7114C40.7681 27.838 41.0797 28.5577 41.6464 29.079C42.2244 29.589 42.9214 29.844 43.7374 29.844C44.4061 29.844 44.9614 29.691 45.4034 29.385C45.8567 29.0677 46.1741 28.6483 46.3554 28.127H48.0214C47.7721 29.0223 47.2734 29.7533 46.5254 30.32C45.7774 30.8753 44.8481 31.153 43.7374 31.153C42.8534 31.153 42.0601 30.9547 41.3574 30.558C40.6661 30.1613 40.1221 29.6003 39.7254 28.875C39.3287 28.1383 39.1304 27.2883 39.1304 26.325C39.1304 25.3617 39.3231 24.5173 39.7084 23.792C40.0937 23.0667 40.6321 22.5113 41.3234 22.126C42.0261 21.7293 42.8307 21.531 43.7374 21.531C44.6214 21.531 45.4034 21.7237 46.0834 22.109C46.7634 22.4943 47.2847 23.027 47.6474 23.707C48.0214 24.3757 48.2084 25.135 48.2084 25.985ZM46.6104 25.662C46.6104 25.0727 46.4801 24.5683 46.2194 24.149C45.9587 23.7183 45.6017 23.3953 45.1484 23.18C44.7064 22.9533 44.2134 22.84 43.6694 22.84C42.8874 22.84 42.2187 23.0893 41.6634 23.588C41.1194 24.0867 40.8077 24.778 40.7284 25.662H46.6104ZM61.4534 21.514C62.1787 21.514 62.8247 21.667 63.3914 21.973C63.9581 22.2677 64.4057 22.7153 64.7344 23.316C65.0631 23.9167 65.2274 24.6477 65.2274 25.509V31H63.6974V25.73C63.6974 24.8007 63.4651 24.0923 63.0004 23.605C62.5471 23.1063 61.9294 22.857 61.1474 22.857C60.3427 22.857 59.7024 23.1177 59.2264 23.639C58.7504 24.149 58.5124 24.8913 58.5124 25.866V31H56.9824V25.73C56.9824 24.8007 56.7501 24.0923 56.2854 23.605C55.8321 23.1063 55.2144 22.857 54.4324 22.857C53.6277 22.857 52.9874 23.1177 52.5114 23.639C52.0354 24.149 51.7974 24.8913 51.7974 25.866V31H50.2504V21.684H51.7974V23.027C52.1034 22.5397 52.5114 22.1657 53.0214 21.905C53.5427 21.6443 54.1151 21.514 54.7384 21.514C55.5204 21.514 56.2117 21.6897 56.8124 22.041C57.4131 22.3923 57.8607 22.908 58.1554 23.588C58.4161 22.9307 58.8467 22.4207 59.4474 22.058C60.0481 21.6953 60.7167 21.514 61.4534 21.514ZM68.5641 20.171C68.2694 20.171 68.0201 20.069 67.8161 19.865C67.6121 19.661 67.5101 19.4117 67.5101 19.117C67.5101 18.8223 67.6121 18.573 67.8161 18.369C68.0201 18.165 68.2694 18.063 68.5641 18.063C68.8474 18.063 69.0854 18.165 69.2781 18.369C69.4821 18.573 69.5841 18.8223 69.5841 19.117C69.5841 19.4117 69.4821 19.661 69.2781 19.865C69.0854 20.069 68.8474 20.171 68.5641 20.171ZM69.3121 21.684V31H67.7651V21.684H69.3121ZM73.4956 23.401C73.8016 22.8683 74.255 22.4263 74.8556 22.075C75.4676 21.7123 76.176 21.531 76.9806 21.531C77.808 21.531 78.556 21.7293 79.2246 22.126C79.9046 22.5227 80.4373 23.0837 80.8226 23.809C81.208 24.523 81.4006 25.356 81.4006 26.308C81.4006 27.2487 81.208 28.0873 80.8226 28.824C80.4373 29.5607 79.9046 30.133 79.2246 30.541C78.556 30.949 77.808 31.153 76.9806 31.153C76.1873 31.153 75.4846 30.9773 74.8726 30.626C74.272 30.2633 73.813 29.8157 73.4956 29.283V35.42H71.9486V21.684H73.4956V23.401ZM79.8196 26.308C79.8196 25.6053 79.678 24.9933 79.3946 24.472C79.1113 23.9507 78.726 23.554 78.2386 23.282C77.7626 23.01 77.2356 22.874 76.6576 22.874C76.091 22.874 75.564 23.0157 75.0766 23.299C74.6006 23.571 74.2153 23.9733 73.9206 24.506C73.6373 25.0273 73.4956 25.6337 73.4956 26.325C73.4956 27.0277 73.6373 27.6453 73.9206 28.178C74.2153 28.6993 74.6006 29.1017 75.0766 29.385C75.564 29.657 76.091 29.793 76.6576 29.793C77.2356 29.793 77.7626 29.657 78.2386 29.385C78.726 29.1017 79.1113 28.6993 79.3946 28.178C79.678 27.6453 79.8196 27.022 79.8196 26.308ZM86.7349 31.153C86.0209 31.153 85.3806 31.034 84.8139 30.796C84.2473 30.5467 83.7996 30.2067 83.4709 29.776C83.1423 29.334 82.9609 28.8297 82.9269 28.263H84.5249C84.5703 28.7277 84.7856 29.1073 85.1709 29.402C85.5676 29.6967 86.0833 29.844 86.7179 29.844C87.3073 29.844 87.7719 29.7137 88.1119 29.453C88.4519 29.1923 88.6219 28.8637 88.6219 28.467C88.6219 28.059 88.4406 27.7587 88.0779 27.566C87.7153 27.362 87.1543 27.1637 86.3949 26.971C85.7036 26.7897 85.1369 26.6083 84.6949 26.427C84.2643 26.2343 83.8903 25.9567 83.5729 25.594C83.2669 25.22 83.1139 24.7327 83.1139 24.132C83.1139 23.656 83.2556 23.2197 83.5389 22.823C83.8223 22.4263 84.2246 22.1147 84.7459 21.888C85.2673 21.65 85.8623 21.531 86.5309 21.531C87.5623 21.531 88.3953 21.7917 89.0299 22.313C89.6646 22.8343 90.0046 23.5483 90.0499 24.455H88.5029C88.4689 23.9677 88.2706 23.5767 87.9079 23.282C87.5566 22.9873 87.0806 22.84 86.4799 22.84C85.9246 22.84 85.4826 22.959 85.1539 23.197C84.8253 23.435 84.6609 23.7467 84.6609 24.132C84.6609 24.438 84.7573 24.693 84.9499 24.897C85.1539 25.0897 85.4033 25.2483 85.6979 25.373C86.0039 25.4863 86.4233 25.6167 86.9559 25.764C87.6246 25.9453 88.1686 26.1267 88.5879 26.308C89.0073 26.478 89.3643 26.7387 89.6589 27.09C89.9649 27.4413 90.1236 27.9003 90.1349 28.467C90.1349 28.977 89.9933 29.436 89.7099 29.844C89.4266 30.252 89.0243 30.575 88.5029 30.813C87.9929 31.0397 87.4036 31.153 86.7349 31.153ZM100.581 21.684V31H99.0338V29.623C98.7391 30.099 98.3254 30.473 97.7928 30.745C97.2714 31.0057 96.6934 31.136 96.0588 31.136C95.3334 31.136 94.6818 30.9887 94.1038 30.694C93.5258 30.388 93.0668 29.9347 92.7268 29.334C92.3981 28.7333 92.2338 28.0023 92.2338 27.141V21.684H93.7638V26.937C93.7638 27.855 93.9961 28.5633 94.4608 29.062C94.9254 29.5493 95.5601 29.793 96.3648 29.793C97.1921 29.793 97.8438 29.538 98.3198 29.028C98.7958 28.518 99.0338 27.7757 99.0338 26.801V21.684H100.581ZM114.396 21.514C115.121 21.514 115.767 21.667 116.334 21.973C116.9 22.2677 117.348 22.7153 117.677 23.316C118.005 23.9167 118.17 24.6477 118.17 25.509V31H116.64V25.73C116.64 24.8007 116.407 24.0923 115.943 23.605C115.489 23.1063 114.872 22.857 114.09 22.857C113.285 22.857 112.645 23.1177 112.169 23.639C111.693 24.149 111.455 24.8913 111.455 25.866V31H109.925V25.73C109.925 24.8007 109.692 24.0923 109.228 23.605C108.774 23.1063 108.157 22.857 107.375 22.857C106.57 22.857 105.93 23.1177 105.454 23.639C104.978 24.149 104.74 24.8913 104.74 25.866V31H103.193V21.684H104.74V23.027C105.046 22.5397 105.454 22.1657 105.964 21.905C106.485 21.6443 107.057 21.514 107.681 21.514C108.463 21.514 109.154 21.6897 109.755 22.041C110.355 22.3923 110.803 22.908 111.098 23.588C111.358 22.9307 111.789 22.4207 112.39 22.058C112.99 21.6953 113.659 21.514 114.396 21.514ZM129.207 20.103C130.465 20.103 131.559 20.341 132.488 20.817C133.418 21.293 134.132 21.9617 134.63 22.823C135.129 23.673 135.378 24.659 135.378 25.781C135.378 26.6763 135.231 27.5377 134.936 28.365C134.642 29.181 134.211 29.844 133.644 30.354C133.089 30.864 132.437 31.119 131.689 31.119C131.123 31.119 130.686 30.9773 130.38 30.694C130.074 30.4107 129.899 30.0253 129.853 29.538C129.502 30.0253 129.054 30.4107 128.51 30.694C127.978 30.9773 127.411 31.119 126.81 31.119C125.949 31.119 125.269 30.8583 124.77 30.337C124.283 29.8043 124.039 29.0903 124.039 28.195C124.039 27.345 124.215 26.5517 124.566 25.815C124.929 25.0783 125.428 24.489 126.062 24.047C126.697 23.5937 127.417 23.367 128.221 23.367C129.298 23.367 130.023 23.775 130.397 24.591L130.584 23.537H131.927L131.077 28.45C131.043 28.6653 131.026 28.8637 131.026 29.045C131.026 29.725 131.327 30.065 131.927 30.065C132.381 30.065 132.772 29.8497 133.1 29.419C133.44 28.9883 133.695 28.45 133.865 27.804C134.035 27.1467 134.12 26.5007 134.12 25.866C134.12 24.3813 133.673 23.231 132.777 22.415C131.893 21.599 130.641 21.191 129.02 21.191C127.672 21.191 126.453 21.5197 125.365 22.177C124.289 22.823 123.444 23.7127 122.832 24.846C122.22 25.9793 121.914 27.2317 121.914 28.603C121.903 30.099 122.351 31.2493 123.257 32.054C124.164 32.87 125.422 33.278 127.031 33.278C128.097 33.278 129.037 33.0853 129.853 32.7L130.057 33.754C129.049 34.1733 127.938 34.383 126.725 34.383C125.513 34.383 124.442 34.1507 123.512 33.686C122.594 33.2327 121.88 32.5753 121.37 31.714C120.872 30.864 120.622 29.8723 120.622 28.739C120.622 27.141 120.991 25.6847 121.727 24.37C122.464 23.044 123.484 22.0013 124.787 21.242C126.102 20.4827 127.575 20.103 129.207 20.103ZM127.269 29.912C127.779 29.912 128.25 29.7647 128.68 29.47C129.111 29.164 129.451 28.756 129.7 28.246C129.95 27.7247 130.074 27.158 130.074 26.546C130.074 25.9567 129.91 25.4807 129.581 25.118C129.264 24.744 128.811 24.557 128.221 24.557C127.677 24.557 127.196 24.7213 126.776 25.05C126.368 25.3673 126.051 25.7923 125.824 26.325C125.598 26.8463 125.484 27.3903 125.484 27.957C125.484 28.5577 125.637 29.0337 125.943 29.385C126.249 29.7363 126.691 29.912 127.269 29.912ZM141.765 21.531C142.57 21.531 143.273 21.7067 143.873 22.058C144.485 22.4093 144.939 22.8513 145.233 23.384V21.684H146.797V31.204C146.797 32.054 146.616 32.8077 146.253 33.465C145.891 34.1337 145.369 34.655 144.689 35.029C144.021 35.403 143.239 35.59 142.343 35.59C141.119 35.59 140.099 35.301 139.283 34.723C138.467 34.145 137.986 33.3573 137.838 32.36H139.368C139.538 32.9267 139.89 33.38 140.422 33.72C140.955 34.0713 141.595 34.247 142.343 34.247C143.193 34.247 143.885 33.9807 144.417 33.448C144.961 32.9153 145.233 32.1673 145.233 31.204V29.249C144.927 29.793 144.474 30.2463 143.873 30.609C143.273 30.9717 142.57 31.153 141.765 31.153C140.938 31.153 140.184 30.949 139.504 30.541C138.836 30.133 138.309 29.5607 137.923 28.824C137.538 28.0873 137.345 27.2487 137.345 26.308C137.345 25.356 137.538 24.523 137.923 23.809C138.309 23.0837 138.836 22.5227 139.504 22.126C140.184 21.7293 140.938 21.531 141.765 21.531ZM145.233 26.325C145.233 25.6223 145.092 25.0103 144.808 24.489C144.525 23.9677 144.14 23.571 143.652 23.299C143.176 23.0157 142.649 22.874 142.071 22.874C141.493 22.874 140.966 23.01 140.49 23.282C140.014 23.554 139.635 23.9507 139.351 24.472C139.068 24.9933 138.926 25.6053 138.926 26.308C138.926 27.022 139.068 27.6453 139.351 28.178C139.635 28.6993 140.014 29.1017 140.49 29.385C140.966 29.657 141.493 29.793 142.071 29.793C142.649 29.793 143.176 29.657 143.652 29.385C144.14 29.1017 144.525 28.6993 144.808 28.178C145.092 27.6453 145.233 27.0277 145.233 26.325ZM160.615 21.514C161.34 21.514 161.986 21.667 162.553 21.973C163.119 22.2677 163.567 22.7153 163.896 23.316C164.224 23.9167 164.389 24.6477 164.389 25.509V31H162.859V25.73C162.859 24.8007 162.626 24.0923 162.162 23.605C161.708 23.1063 161.091 22.857 160.309 22.857C159.504 22.857 158.864 23.1177 158.388 23.639C157.912 24.149 157.674 24.8913 157.674 25.866V31H156.144V25.73C156.144 24.8007 155.911 24.0923 155.447 23.605C154.993 23.1063 154.376 22.857 153.594 22.857C152.789 22.857 152.149 23.1177 151.673 23.639C151.197 24.149 150.959 24.8913 150.959 25.866V31H149.412V21.684H150.959V23.027C151.265 22.5397 151.673 22.1657 152.183 21.905C152.704 21.6443 153.276 21.514 153.9 21.514C154.682 21.514 155.373 21.6897 155.974 22.041C156.574 22.3923 157.022 22.908 157.317 23.588C157.577 22.9307 158.008 22.4207 158.609 22.058C159.209 21.6953 159.878 21.514 160.615 21.514ZM166.348 26.308C166.348 25.356 166.541 24.523 166.926 23.809C167.312 23.0837 167.839 22.5227 168.507 22.126C169.187 21.7293 169.941 21.531 170.768 21.531C171.584 21.531 172.293 21.7067 172.893 22.058C173.494 22.4093 173.942 22.8513 174.236 23.384V21.684H175.8V31H174.236V29.266C173.93 29.81 173.471 30.2633 172.859 30.626C172.259 30.9773 171.556 31.153 170.751 31.153C169.924 31.153 169.176 30.949 168.507 30.541C167.839 30.133 167.312 29.5607 166.926 28.824C166.541 28.0873 166.348 27.2487 166.348 26.308ZM174.236 26.325C174.236 25.6223 174.095 25.0103 173.811 24.489C173.528 23.9677 173.143 23.571 172.655 23.299C172.179 23.0157 171.652 22.874 171.074 22.874C170.496 22.874 169.969 23.01 169.493 23.282C169.017 23.554 168.638 23.9507 168.354 24.472C168.071 24.9933 167.929 25.6053 167.929 26.308C167.929 27.022 168.071 27.6453 168.354 28.178C168.638 28.6993 169.017 29.1017 169.493 29.385C169.969 29.657 170.496 29.793 171.074 29.793C171.652 29.793 172.179 29.657 172.655 29.385C173.143 29.1017 173.528 28.6993 173.811 28.178C174.095 27.6453 174.236 27.0277 174.236 26.325ZM179.213 20.171C178.919 20.171 178.669 20.069 178.465 19.865C178.261 19.661 178.159 19.4117 178.159 19.117C178.159 18.8223 178.261 18.573 178.465 18.369C178.669 18.165 178.919 18.063 179.213 18.063C179.497 18.063 179.735 18.165 179.927 18.369C180.131 18.573 180.233 18.8223 180.233 19.117C180.233 19.4117 180.131 19.661 179.927 19.865C179.735 20.069 179.497 20.171 179.213 20.171ZM179.961 21.684V31H178.414V21.684H179.961ZM184.145 18.42V31H182.598V18.42H184.145ZM187.275 31.102C186.98 31.102 186.731 31 186.527 30.796C186.323 30.592 186.221 30.3427 186.221 30.048C186.221 29.7533 186.323 29.504 186.527 29.3C186.731 29.096 186.98 28.994 187.275 28.994C187.558 28.994 187.796 29.096 187.989 29.3C188.193 29.504 188.295 29.7533 188.295 30.048C188.295 30.3427 188.193 30.592 187.989 30.796C187.796 31 187.558 31.102 187.275 31.102ZM189.773 26.325C189.773 25.3617 189.966 24.523 190.351 23.809C190.736 23.0837 191.269 22.5227 191.949 22.126C192.64 21.7293 193.428 21.531 194.312 21.531C195.457 21.531 196.397 21.8087 197.134 22.364C197.882 22.9193 198.375 23.69 198.613 24.676H196.947C196.788 24.1093 196.477 23.6617 196.012 23.333C195.559 23.0043 194.992 22.84 194.312 22.84C193.428 22.84 192.714 23.146 192.17 23.758C191.626 24.3587 191.354 25.2143 191.354 26.325C191.354 27.447 191.626 28.314 192.17 28.926C192.714 29.538 193.428 29.844 194.312 29.844C194.992 29.844 195.559 29.6853 196.012 29.368C196.465 29.0507 196.777 28.5973 196.947 28.008H198.613C198.364 28.96 197.865 29.725 197.117 30.303C196.369 30.8697 195.434 31.153 194.312 31.153C193.428 31.153 192.64 30.9547 191.949 30.558C191.269 30.1613 190.736 29.6003 190.351 28.875C189.966 28.1497 189.773 27.2997 189.773 26.325ZM204.74 31.153C203.867 31.153 203.074 30.9547 202.36 30.558C201.657 30.1613 201.102 29.6003 200.694 28.875C200.297 28.1383 200.099 27.2883 200.099 26.325C200.099 25.373 200.303 24.5343 200.711 23.809C201.13 23.0723 201.697 22.5113 202.411 22.126C203.125 21.7293 203.924 21.531 204.808 21.531C205.692 21.531 206.491 21.7293 207.205 22.126C207.919 22.5113 208.48 23.0667 208.888 23.792C209.307 24.5173 209.517 25.3617 209.517 26.325C209.517 27.2883 209.302 28.1383 208.871 28.875C208.452 29.6003 207.879 30.1613 207.154 30.558C206.429 30.9547 205.624 31.153 204.74 31.153ZM204.74 29.793C205.295 29.793 205.817 29.6627 206.304 29.402C206.791 29.1413 207.182 28.7503 207.477 28.229C207.783 27.7077 207.936 27.073 207.936 26.325C207.936 25.577 207.789 24.9423 207.494 24.421C207.199 23.8997 206.814 23.5143 206.338 23.265C205.862 23.0043 205.346 22.874 204.791 22.874C204.224 22.874 203.703 23.0043 203.227 23.265C202.762 23.5143 202.388 23.8997 202.105 24.421C201.822 24.9423 201.68 25.577 201.68 26.325C201.68 27.0843 201.816 27.7247 202.088 28.246C202.371 28.7673 202.745 29.1583 203.21 29.419C203.675 29.6683 204.185 29.793 204.74 29.793ZM222.754 21.514C223.48 21.514 224.126 21.667 224.692 21.973C225.259 22.2677 225.707 22.7153 226.035 23.316C226.364 23.9167 226.528 24.6477 226.528 25.509V31H224.998V25.73C224.998 24.8007 224.766 24.0923 224.301 23.605C223.848 23.1063 223.23 22.857 222.448 22.857C221.644 22.857 221.003 23.1177 220.527 23.639C220.051 24.149 219.813 24.8913 219.813 25.866V31H218.283V25.73C218.283 24.8007 218.051 24.0923 217.586 23.605C217.133 23.1063 216.515 22.857 215.733 22.857C214.929 22.857 214.288 23.1177 213.812 23.639C213.336 24.149 213.098 24.8913 213.098 25.866V31H211.551V21.684H213.098V23.027C213.404 22.5397 213.812 22.1657 214.322 21.905C214.844 21.6443 215.416 21.514 216.039 21.514C216.821 21.514 217.513 21.6897 218.113 22.041C218.714 22.3923 219.162 22.908 219.456 23.588C219.717 22.9307 220.148 22.4207 220.748 22.058C221.349 21.6953 222.018 21.514 222.754 21.514Z" fill="#172B4D"/>
</svg>
