<svg width="329" height="50" viewBox="0 0 329 50" fill="none" xmlns="http://www.w3.org/2000/svg">
<rect x="0.5" y="0.5" width="328" height="49" rx="8.5" fill="white" stroke="#CFD8DC"/>
<path d="M19.856 29.742H24.004V31H18.309V19.151H19.856V29.742ZM29.7099 31.153C28.8372 31.153 28.0439 30.9547 27.3299 30.558C26.6272 30.1613 26.0719 29.6003 25.6639 28.875C25.2672 28.1383 25.0689 27.2883 25.0689 26.325C25.0689 25.373 25.2729 24.5343 25.6809 23.809C26.1002 23.0723 26.6669 22.5113 27.3809 22.126C28.0949 21.7293 28.8939 21.531 29.7779 21.531C30.6619 21.531 31.4609 21.7293 32.1749 22.126C32.8889 22.5113 33.4499 23.0667 33.8579 23.792C34.2772 24.5173 34.4869 25.3617 34.4869 26.325C34.4869 27.2883 34.2716 28.1383 33.8409 28.875C33.4216 29.6003 32.8492 30.1613 32.1239 30.558C31.3986 30.9547 30.5939 31.153 29.7099 31.153ZM29.7099 29.793C30.2652 29.793 30.7866 29.6627 31.2739 29.402C31.7612 29.1413 32.1522 28.7503 32.4469 28.229C32.7529 27.7077 32.9059 27.073 32.9059 26.325C32.9059 25.577 32.7586 24.9423 32.4639 24.421C32.1692 23.8997 31.7839 23.5143 31.3079 23.265C30.8319 23.0043 30.3162 22.874 29.7609 22.874C29.1942 22.874 28.6729 23.0043 28.1969 23.265C27.7322 23.5143 27.3582 23.8997 27.0749 24.421C26.7916 24.9423 26.6499 25.577 26.6499 26.325C26.6499 27.0843 26.7859 27.7247 27.0579 28.246C27.3412 28.7673 27.7152 29.1583 28.1799 29.419C28.6446 29.6683 29.1546 29.793 29.7099 29.793ZM38.0679 23.197C38.3399 22.6643 38.7252 22.2507 39.2239 21.956C39.7339 21.6613 40.3516 21.514 41.0769 21.514V23.112H40.6689C38.9349 23.112 38.0679 24.0527 38.0679 25.934V31H36.5209V21.684H38.0679V23.197ZM51.3627 25.985C51.3627 26.2797 51.3457 26.5913 51.3117 26.92H43.8657C43.9224 27.838 44.234 28.5577 44.8007 29.079C45.3787 29.589 46.0757 29.844 46.8917 29.844C47.5604 29.844 48.1157 29.691 48.5577 29.385C49.011 29.0677 49.3284 28.6483 49.5097 28.127H51.1757C50.9264 29.0223 50.4277 29.7533 49.6797 30.32C48.9317 30.8753 48.0024 31.153 46.8917 31.153C46.0077 31.153 45.2144 30.9547 44.5117 30.558C43.8204 30.1613 43.2764 29.6003 42.8797 28.875C42.483 28.1383 42.2847 27.2883 42.2847 26.325C42.2847 25.3617 42.4774 24.5173 42.8627 23.792C43.248 23.0667 43.7864 22.5113 44.4777 22.126C45.1804 21.7293 45.985 21.531 46.8917 21.531C47.7757 21.531 48.5577 21.7237 49.2377 22.109C49.9177 22.4943 50.439 23.027 50.8017 23.707C51.1757 24.3757 51.3627 25.135 51.3627 25.985ZM49.7647 25.662C49.7647 25.0727 49.6344 24.5683 49.3737 24.149C49.113 23.7183 48.756 23.3953 48.3027 23.18C47.8607 22.9533 47.3677 22.84 46.8237 22.84C46.0417 22.84 45.373 23.0893 44.8177 23.588C44.2737 24.0867 43.962 24.778 43.8827 25.662H49.7647ZM64.6077 21.514C65.333 21.514 65.979 21.667 66.5457 21.973C67.1124 22.2677 67.56 22.7153 67.8887 23.316C68.2174 23.9167 68.3817 24.6477 68.3817 25.509V31H66.8517V25.73C66.8517 24.8007 66.6194 24.0923 66.1547 23.605C65.7014 23.1063 65.0837 22.857 64.3017 22.857C63.497 22.857 62.8567 23.1177 62.3807 23.639C61.9047 24.149 61.6667 24.8913 61.6667 25.866V31H60.1367V25.73C60.1367 24.8007 59.9044 24.0923 59.4397 23.605C58.9864 23.1063 58.3687 22.857 57.5867 22.857C56.782 22.857 56.1417 23.1177 55.6657 23.639C55.1897 24.149 54.9517 24.8913 54.9517 25.866V31H53.4047V21.684H54.9517V23.027C55.2577 22.5397 55.6657 22.1657 56.1757 21.905C56.697 21.6443 57.2694 21.514 57.8927 21.514C58.6747 21.514 59.366 21.6897 59.9667 22.041C60.5674 22.3923 61.015 22.908 61.3097 23.588C61.5704 22.9307 62.001 22.4207 62.6017 22.058C63.2024 21.6953 63.871 21.514 64.6077 21.514ZM76.9986 19.151V31H75.4516V19.151H76.9986ZM81.1822 23.401C81.4882 22.8683 81.9415 22.4263 82.5422 22.075C83.1542 21.7123 83.8625 21.531 84.6672 21.531C85.4945 21.531 86.2425 21.7293 86.9112 22.126C87.5912 22.5227 88.1238 23.0837 88.5092 23.809C88.8945 24.523 89.0872 25.356 89.0872 26.308C89.0872 27.2487 88.8945 28.0873 88.5092 28.824C88.1238 29.5607 87.5912 30.133 86.9112 30.541C86.2425 30.949 85.4945 31.153 84.6672 31.153C83.8738 31.153 83.1712 30.9773 82.5592 30.626C81.9585 30.2633 81.4995 29.8157 81.1822 29.283V35.42H79.6352V21.684H81.1822V23.401ZM87.5062 26.308C87.5062 25.6053 87.3645 24.9933 87.0812 24.472C86.7978 23.9507 86.4125 23.554 85.9252 23.282C85.4492 23.01 84.9222 22.874 84.3442 22.874C83.7775 22.874 83.2505 23.0157 82.7632 23.299C82.2872 23.571 81.9018 23.9733 81.6072 24.506C81.3238 25.0273 81.1822 25.6337 81.1822 26.325C81.1822 27.0277 81.3238 27.6453 81.6072 28.178C81.9018 28.6993 82.2872 29.1017 82.7632 29.385C83.2505 29.657 83.7775 29.793 84.3442 29.793C84.9222 29.793 85.4492 29.657 85.9252 29.385C86.4125 29.1017 86.7978 28.6993 87.0812 28.178C87.3645 27.6453 87.5062 27.022 87.5062 26.308ZM94.4215 31.153C93.7075 31.153 93.0671 31.034 92.5005 30.796C91.9338 30.5467 91.4861 30.2067 91.1575 29.776C90.8288 29.334 90.6475 28.8297 90.6135 28.263H92.2115C92.2568 28.7277 92.4721 29.1073 92.8575 29.402C93.2541 29.6967 93.7698 29.844 94.4045 29.844C94.9938 29.844 95.4585 29.7137 95.7985 29.453C96.1385 29.1923 96.3085 28.8637 96.3085 28.467C96.3085 28.059 96.1271 27.7587 95.7645 27.566C95.4018 27.362 94.8408 27.1637 94.0815 26.971C93.3901 26.7897 92.8235 26.6083 92.3815 26.427C91.9508 26.2343 91.5768 25.9567 91.2595 25.594C90.9535 25.22 90.8005 24.7327 90.8005 24.132C90.8005 23.656 90.9421 23.2197 91.2255 22.823C91.5088 22.4263 91.9111 22.1147 92.4325 21.888C92.9538 21.65 93.5488 21.531 94.2175 21.531C95.2488 21.531 96.0818 21.7917 96.7165 22.313C97.3511 22.8343 97.6911 23.5483 97.7365 24.455H96.1895C96.1555 23.9677 95.9571 23.5767 95.5945 23.282C95.2431 22.9873 94.7671 22.84 94.1665 22.84C93.6111 22.84 93.1691 22.959 92.8405 23.197C92.5118 23.435 92.3475 23.7467 92.3475 24.132C92.3475 24.438 92.4438 24.693 92.6365 24.897C92.8405 25.0897 93.0898 25.2483 93.3845 25.373C93.6905 25.4863 94.1098 25.6167 94.6425 25.764C95.3111 25.9453 95.8551 26.1267 96.2745 26.308C96.6938 26.478 97.0508 26.7387 97.3455 27.09C97.6515 27.4413 97.8101 27.9003 97.8215 28.467C97.8215 28.977 97.6798 29.436 97.3965 29.844C97.1131 30.252 96.7108 30.575 96.1895 30.813C95.6795 31.0397 95.0901 31.153 94.4215 31.153ZM108.267 21.684V31H106.72V29.623C106.426 30.099 106.012 30.473 105.479 30.745C104.958 31.0057 104.38 31.136 103.745 31.136C103.02 31.136 102.368 30.9887 101.79 30.694C101.212 30.388 100.753 29.9347 100.413 29.334C100.085 28.7333 99.9203 28.0023 99.9203 27.141V21.684H101.45V26.937C101.45 27.855 101.683 28.5633 102.147 29.062C102.612 29.5493 103.247 29.793 104.051 29.793C104.879 29.793 105.53 29.538 106.006 29.028C106.482 28.518 106.72 27.7757 106.72 26.801V21.684H108.267ZM122.082 21.514C122.808 21.514 123.454 21.667 124.02 21.973C124.587 22.2677 125.035 22.7153 125.363 23.316C125.692 23.9167 125.856 24.6477 125.856 25.509V31H124.326V25.73C124.326 24.8007 124.094 24.0923 123.629 23.605C123.176 23.1063 122.558 22.857 121.776 22.857C120.972 22.857 120.331 23.1177 119.855 23.639C119.379 24.149 119.141 24.8913 119.141 25.866V31H117.611V25.73C117.611 24.8007 117.379 24.0923 116.914 23.605C116.461 23.1063 115.843 22.857 115.061 22.857C114.257 22.857 113.616 23.1177 113.14 23.639C112.664 24.149 112.426 24.8913 112.426 25.866V31H110.879V21.684H112.426V23.027C112.732 22.5397 113.14 22.1657 113.65 21.905C114.172 21.6443 114.744 21.514 115.367 21.514C116.149 21.514 116.841 21.6897 117.441 22.041C118.042 22.3923 118.49 22.908 118.784 23.588C119.045 22.9307 119.476 22.4207 120.076 22.058C120.677 21.6953 121.346 21.514 122.082 21.514Z" fill="#172B4D"/>
</svg>
