<svg width="142" height="48" viewBox="0 0 142 48" fill="none" xmlns="http://www.w3.org/2000/svg">
<rect width="142" height="48" rx="8" fill="white"/>
<path d="M26.1411 21.585C25.8351 20.9957 25.4101 20.5537 24.8661 20.259C24.3221 19.953 23.6931 19.8 22.9791 19.8C22.1971 19.8 21.5001 19.9757 20.8881 20.327C20.2761 20.6783 19.7945 21.177 19.4431 21.823C19.1031 22.469 18.9331 23.217 18.9331 24.067C18.9331 24.917 19.1031 25.6707 19.4431 26.328C19.7945 26.974 20.2761 27.4727 20.8881 27.824C21.5001 28.1753 22.1971 28.351 22.9791 28.351C24.0331 28.351 24.8888 28.0563 25.5461 27.467C26.2035 26.8777 26.6058 26.0787 26.7531 25.07H22.3161V23.523H28.8271V25.036C28.7025 25.954 28.3738 26.7983 27.8411 27.569C27.3198 28.3397 26.6341 28.9573 25.7841 29.422C24.9455 29.8753 24.0105 30.102 22.9791 30.102C21.8685 30.102 20.8541 29.847 19.9361 29.337C19.0181 28.8157 18.2871 28.096 17.7431 27.178C17.2105 26.26 16.9441 25.223 16.9441 24.067C16.9441 22.911 17.2105 21.874 17.7431 20.956C18.2871 20.038 19.0181 19.324 19.9361 18.814C20.8655 18.2927 21.8798 18.032 22.9791 18.032C24.2371 18.032 25.3535 18.3437 26.3281 18.967C27.3141 19.579 28.0281 20.4517 28.4701 21.585H26.1411ZM39.8336 25.087C39.8336 25.4383 39.8109 25.7557 39.7656 26.039H32.6086C32.6652 26.787 32.9429 27.3877 33.4416 27.841C33.9402 28.2943 34.5522 28.521 35.2776 28.521C36.3202 28.521 37.0569 28.0847 37.4876 27.212H39.5786C39.2952 28.0733 38.7796 28.7817 38.0316 29.337C37.2949 29.881 36.3769 30.153 35.2776 30.153C34.3822 30.153 33.5776 29.9547 32.8636 29.558C32.1609 29.15 31.6056 28.5833 31.1976 27.858C30.8009 27.1213 30.6026 26.2713 30.6026 25.308C30.6026 24.3447 30.7952 23.5003 31.1806 22.775C31.5772 22.0383 32.1269 21.4717 32.8296 21.075C33.5436 20.6783 34.3596 20.48 35.2776 20.48C36.1616 20.48 36.9492 20.6727 37.6406 21.058C38.3319 21.4433 38.8702 21.9873 39.2556 22.69C39.6409 23.3813 39.8336 24.1803 39.8336 25.087ZM37.8106 24.475C37.7992 23.761 37.5442 23.1887 37.0456 22.758C36.5469 22.3273 35.9292 22.112 35.1926 22.112C34.5239 22.112 33.9516 22.3273 33.4756 22.758C32.9996 23.1773 32.7162 23.7497 32.6256 24.475H37.8106ZM44.5117 22.214V27.399C44.5117 27.7503 44.5911 28.0053 44.7497 28.164C44.9197 28.3113 45.2031 28.385 45.5997 28.385H46.7897V30H45.2597C44.3871 30 43.7184 29.796 43.2537 29.388C42.7891 28.98 42.5567 28.317 42.5567 27.399V22.214H41.4517V20.633H42.5567V18.304H44.5117V20.633H46.7897V22.214H44.5117ZM54.998 19.392C54.6466 19.392 54.352 19.273 54.114 19.035C53.876 18.797 53.757 18.5023 53.757 18.151C53.757 17.7997 53.876 17.505 54.114 17.267C54.352 17.029 54.6466 16.91 54.998 16.91C55.338 16.91 55.627 17.029 55.865 17.267C56.103 17.505 56.222 17.7997 56.222 18.151C56.222 18.5023 56.103 18.797 55.865 19.035C55.627 19.273 55.338 19.392 54.998 19.392ZM55.95 20.633V30H54.012V20.633H55.95ZM63.7304 20.48C64.467 20.48 65.1244 20.633 65.7024 20.939C66.2917 21.245 66.7507 21.6983 67.0794 22.299C67.408 22.8997 67.5724 23.625 67.5724 24.475V30H65.6514V24.764C65.6514 23.9253 65.4417 23.285 65.0224 22.843C64.603 22.3897 64.0307 22.163 63.3054 22.163C62.58 22.163 62.002 22.3897 61.5714 22.843C61.152 23.285 60.9424 23.9253 60.9424 24.764V30H59.0044V20.633H60.9424V21.704C61.2597 21.3187 61.662 21.0183 62.1494 20.803C62.648 20.5877 63.175 20.48 63.7304 20.48ZM77.7414 22.214V27.399C77.7414 27.7503 77.8208 28.0053 77.9794 28.164C78.1494 28.3113 78.4328 28.385 78.8294 28.385H80.0194V30H78.4894C77.6168 30 76.9481 29.796 76.4834 29.388C76.0188 28.98 75.7864 28.317 75.7864 27.399V22.214H74.6814V20.633H75.7864V18.304H77.7414V20.633H80.0194V22.214H77.7414ZM86.3786 30.153C85.4946 30.153 84.6956 29.9547 83.9816 29.558C83.2676 29.15 82.7066 28.5833 82.2986 27.858C81.8906 27.1213 81.6866 26.2713 81.6866 25.308C81.6866 24.356 81.8963 23.5117 82.3156 22.775C82.735 22.0383 83.3073 21.4717 84.0326 21.075C84.758 20.6783 85.5683 20.48 86.4636 20.48C87.359 20.48 88.1693 20.6783 88.8946 21.075C89.62 21.4717 90.1923 22.0383 90.6116 22.775C91.031 23.5117 91.2406 24.356 91.2406 25.308C91.2406 26.26 91.0253 27.1043 90.5946 27.841C90.164 28.5777 89.5746 29.15 88.8266 29.558C88.09 29.9547 87.274 30.153 86.3786 30.153ZM86.3786 28.47C86.8773 28.47 87.342 28.351 87.7726 28.113C88.2146 27.875 88.5716 27.518 88.8436 27.042C89.1156 26.566 89.2516 25.988 89.2516 25.308C89.2516 24.628 89.1213 24.0557 88.8606 23.591C88.6 23.115 88.2543 22.758 87.8236 22.52C87.393 22.282 86.9283 22.163 86.4296 22.163C85.931 22.163 85.4663 22.282 85.0356 22.52C84.6163 22.758 84.282 23.115 84.0326 23.591C83.7833 24.0557 83.6586 24.628 83.6586 25.308C83.6586 26.3167 83.9136 27.0987 84.4236 27.654C84.945 28.198 85.5966 28.47 86.3786 28.47ZM102.149 20.633V30H100.211V28.895C99.9054 29.2803 99.5031 29.5863 99.0044 29.813C98.5171 30.0283 97.9958 30.136 97.4404 30.136C96.7038 30.136 96.0408 29.983 95.4514 29.677C94.8734 29.371 94.4144 28.9177 94.0744 28.317C93.7458 27.7163 93.5814 26.991 93.5814 26.141V20.633H95.5024V25.852C95.5024 26.6907 95.7121 27.3367 96.1314 27.79C96.5508 28.232 97.1231 28.453 97.8484 28.453C98.5738 28.453 99.1461 28.232 99.5654 27.79C99.9961 27.3367 100.211 26.6907 100.211 25.852V20.633H102.149ZM104.57 25.308C104.57 24.3447 104.763 23.5003 105.148 22.775C105.545 22.0383 106.089 21.4717 106.78 21.075C107.472 20.6783 108.265 20.48 109.16 20.48C110.294 20.48 111.229 20.752 111.965 21.296C112.713 21.8287 113.218 22.5937 113.478 23.591H111.387C111.217 23.1263 110.945 22.7637 110.571 22.503C110.197 22.2423 109.727 22.112 109.16 22.112C108.367 22.112 107.732 22.3953 107.256 22.962C106.792 23.5173 106.559 24.2993 106.559 25.308C106.559 26.3167 106.792 27.1043 107.256 27.671C107.732 28.2377 108.367 28.521 109.16 28.521C110.282 28.521 111.025 28.028 111.387 27.042H113.478C113.206 27.994 112.696 28.7533 111.948 29.32C111.2 29.8753 110.271 30.153 109.16 30.153C108.265 30.153 107.472 29.9547 106.78 29.558C106.089 29.15 105.545 28.5833 105.148 27.858C104.763 27.1213 104.57 26.2713 104.57 25.308ZM120.765 20.48C121.479 20.48 122.114 20.633 122.669 20.939C123.236 21.245 123.678 21.6983 123.995 22.299C124.324 22.8997 124.488 23.625 124.488 24.475V30H122.567V24.764C122.567 23.9253 122.357 23.285 121.938 22.843C121.519 22.3897 120.946 22.163 120.221 22.163C119.496 22.163 118.918 22.3897 118.487 22.843C118.068 23.285 117.858 23.9253 117.858 24.764V30H115.92V17.42H117.858V21.721C118.187 21.3243 118.6 21.0183 119.099 20.803C119.609 20.5877 120.164 20.48 120.765 20.48Z" fill="#6070FF"/>
</svg>
