<svg width="126" height="48" viewBox="0 0 126 48" fill="none" xmlns="http://www.w3.org/2000/svg">
<path d="M17.598 30.119C16.8046 30.119 16.0906 29.983 15.456 29.711C14.8213 29.4277 14.3226 29.031 13.96 28.521C13.5973 28.011 13.416 27.416 13.416 26.736H15.49C15.5353 27.246 15.7336 27.6653 16.085 27.994C16.4476 28.3227 16.952 28.487 17.598 28.487C18.2666 28.487 18.788 28.3283 19.162 28.011C19.536 27.6823 19.723 27.263 19.723 26.753C19.723 26.3563 19.604 26.0333 19.366 25.784C19.1393 25.5347 18.8503 25.342 18.499 25.206C18.159 25.07 17.683 24.9227 17.071 24.764C16.3003 24.56 15.6713 24.356 15.184 24.152C14.708 23.9367 14.3 23.608 13.96 23.166C13.62 22.724 13.45 22.1347 13.45 21.398C13.45 20.718 13.62 20.123 13.96 19.613C14.3 19.103 14.776 18.712 15.388 18.44C16 18.168 16.7083 18.032 17.513 18.032C18.6576 18.032 19.5926 18.321 20.318 18.899C21.0546 19.4657 21.4626 20.2477 21.542 21.245H19.4C19.366 20.8143 19.162 20.446 18.788 20.14C18.414 19.834 17.921 19.681 17.309 19.681C16.7536 19.681 16.3003 19.8227 15.949 20.106C15.5976 20.3893 15.422 20.7973 15.422 21.33C15.422 21.6927 15.5296 21.993 15.745 22.231C15.9716 22.4577 16.255 22.639 16.595 22.775C16.935 22.911 17.3996 23.0583 17.989 23.217C18.771 23.4323 19.4056 23.6477 19.893 23.863C20.3916 24.0783 20.811 24.4127 21.151 24.866C21.5023 25.308 21.678 25.903 21.678 26.651C21.678 27.2517 21.5136 27.8183 21.185 28.351C20.8676 28.8837 20.3973 29.3143 19.774 29.643C19.162 29.9603 18.4366 30.119 17.598 30.119ZM33.0597 25.087C33.0597 25.4383 33.0371 25.7557 32.9917 26.039H25.8347C25.8914 26.787 26.1691 27.3877 26.6677 27.841C27.1664 28.2943 27.7784 28.521 28.5037 28.521C29.5464 28.521 30.2831 28.0847 30.7137 27.212H32.8047C32.5214 28.0733 32.0057 28.7817 31.2577 29.337C30.5211 29.881 29.6031 30.153 28.5037 30.153C27.6084 30.153 26.8037 29.9547 26.0897 29.558C25.3871 29.15 24.8317 28.5833 24.4237 27.858C24.0271 27.1213 23.8287 26.2713 23.8287 25.308C23.8287 24.3447 24.0214 23.5003 24.4067 22.775C24.8034 22.0383 25.3531 21.4717 26.0557 21.075C26.7697 20.6783 27.5857 20.48 28.5037 20.48C29.3877 20.48 30.1754 20.6727 30.8667 21.058C31.5581 21.4433 32.0964 21.9873 32.4817 22.69C32.8671 23.3813 33.0597 24.1803 33.0597 25.087ZM31.0367 24.475C31.0254 23.761 30.7704 23.1887 30.2717 22.758C29.7731 22.3273 29.1554 22.112 28.4187 22.112C27.7501 22.112 27.1777 22.3273 26.7017 22.758C26.2257 23.1773 25.9424 23.7497 25.8517 24.475H31.0367ZM44.0619 25.087C44.0619 25.4383 44.0393 25.7557 43.9939 26.039H36.8369C36.8936 26.787 37.1713 27.3877 37.6699 27.841C38.1686 28.2943 38.7806 28.521 39.5059 28.521C40.5486 28.521 41.2853 28.0847 41.7159 27.212H43.8069C43.5236 28.0733 43.0079 28.7817 42.2599 29.337C41.5233 29.881 40.6053 30.153 39.5059 30.153C38.6106 30.153 37.8059 29.9547 37.0919 29.558C36.3893 29.15 35.8339 28.5833 35.4259 27.858C35.0293 27.1213 34.8309 26.2713 34.8309 25.308C34.8309 24.3447 35.0236 23.5003 35.4089 22.775C35.8056 22.0383 36.3553 21.4717 37.0579 21.075C37.7719 20.6783 38.5879 20.48 39.5059 20.48C40.3899 20.48 41.1776 20.6727 41.8689 21.058C42.5603 21.4433 43.0986 21.9873 43.4839 22.69C43.8693 23.3813 44.0619 24.1803 44.0619 25.087ZM42.0389 24.475C42.0276 23.761 41.7726 23.1887 41.2739 22.758C40.7753 22.3273 40.1576 22.112 39.4209 22.112C38.7523 22.112 38.1799 22.3273 37.7039 22.758C37.2279 23.1773 36.9446 23.7497 36.8539 24.475H42.0389ZM53.3431 22.01C53.6718 21.5793 54.1195 21.2167 54.6861 20.922C55.2528 20.6273 55.8931 20.48 56.6071 20.48C57.4231 20.48 58.1655 20.684 58.8341 21.092C59.5141 21.4887 60.0468 22.0497 60.4321 22.775C60.8175 23.5003 61.0101 24.3333 61.0101 25.274C61.0101 26.2147 60.8175 27.059 60.4321 27.807C60.0468 28.5437 59.5141 29.1217 58.8341 29.541C58.1655 29.949 57.4231 30.153 56.6071 30.153C55.8931 30.153 55.2585 30.0113 54.7031 29.728C54.1478 29.4333 53.6945 29.0707 53.3431 28.64V34.454H51.4051V20.633H53.3431V22.01ZM59.0381 25.274C59.0381 24.628 58.9021 24.0727 58.6301 23.608C58.3695 23.132 58.0181 22.775 57.5761 22.537C57.1455 22.2877 56.6808 22.163 56.1821 22.163C55.6948 22.163 55.2301 22.2877 54.7881 22.537C54.3575 22.7863 54.0061 23.149 53.7341 23.625C53.4735 24.101 53.3431 24.662 53.3431 25.308C53.3431 25.954 53.4735 26.5207 53.7341 27.008C54.0061 27.484 54.3575 27.8467 54.7881 28.096C55.2301 28.3453 55.6948 28.47 56.1821 28.47C56.6808 28.47 57.1455 28.3453 57.5761 28.096C58.0181 27.8353 58.3695 27.4613 58.6301 26.974C58.9021 26.4867 59.0381 25.92 59.0381 25.274ZM65.3746 21.993C65.658 21.517 66.032 21.1487 66.4966 20.888C66.9726 20.616 67.5336 20.48 68.1796 20.48V22.486H67.6866C66.9273 22.486 66.3493 22.6787 65.9526 23.064C65.5673 23.4493 65.3746 24.118 65.3746 25.07V30H63.4366V20.633H65.3746V21.993ZM74.534 30.153C73.65 30.153 72.851 29.9547 72.137 29.558C71.423 29.15 70.862 28.5833 70.454 27.858C70.046 27.1213 69.842 26.2713 69.842 25.308C69.842 24.356 70.0517 23.5117 70.471 22.775C70.8904 22.0383 71.4627 21.4717 72.188 21.075C72.9134 20.6783 73.7237 20.48 74.619 20.48C75.5144 20.48 76.3247 20.6783 77.05 21.075C77.7754 21.4717 78.3477 22.0383 78.767 22.775C79.1864 23.5117 79.396 24.356 79.396 25.308C79.396 26.26 79.1807 27.1043 78.75 27.841C78.3194 28.5777 77.73 29.15 76.982 29.558C76.2454 29.9547 75.4294 30.153 74.534 30.153ZM74.534 28.47C75.0327 28.47 75.4974 28.351 75.928 28.113C76.37 27.875 76.727 27.518 76.999 27.042C77.271 26.566 77.407 25.988 77.407 25.308C77.407 24.628 77.2767 24.0557 77.016 23.591C76.7554 23.115 76.4097 22.758 75.979 22.52C75.5484 22.282 75.0837 22.163 74.585 22.163C74.0864 22.163 73.6217 22.282 73.191 22.52C72.7717 22.758 72.4374 23.115 72.188 23.591C71.9387 24.0557 71.814 24.628 71.814 25.308C71.814 26.3167 72.069 27.0987 72.579 27.654C73.1004 28.198 73.752 28.47 74.534 28.47ZM82.8079 19.392C82.4565 19.392 82.1619 19.273 81.9239 19.035C81.6859 18.797 81.5669 18.5023 81.5669 18.151C81.5669 17.7997 81.6859 17.505 81.9239 17.267C82.1619 17.029 82.4565 16.91 82.8079 16.91C83.1479 16.91 83.4369 17.029 83.6749 17.267C83.9129 17.505 84.0319 17.7997 84.0319 18.151C84.0319 18.5023 83.9129 18.797 83.6749 19.035C83.4369 19.273 83.1479 19.392 82.8079 19.392ZM83.7599 31.836C83.7599 32.754 83.5275 33.417 83.0629 33.825C82.6095 34.2443 81.9465 34.454 81.0739 34.454H80.0709V32.822H80.7339C81.1305 32.822 81.4082 32.7427 81.5669 32.584C81.7369 32.4367 81.8219 32.1873 81.8219 31.836V20.633H83.7599V31.836ZM95.3993 25.087C95.3993 25.4383 95.3766 25.7557 95.3313 26.039H88.1743C88.2309 26.787 88.5086 27.3877 89.0073 27.841C89.5059 28.2943 90.1179 28.521 90.8433 28.521C91.8859 28.521 92.6226 28.0847 93.0533 27.212H95.1443C94.8609 28.0733 94.3453 28.7817 93.5973 29.337C92.8606 29.881 91.9426 30.153 90.8433 30.153C89.9479 30.153 89.1433 29.9547 88.4293 29.558C87.7266 29.15 87.1713 28.5833 86.7633 27.858C86.3666 27.1213 86.1683 26.2713 86.1683 25.308C86.1683 24.3447 86.3609 23.5003 86.7463 22.775C87.1429 22.0383 87.6926 21.4717 88.3953 21.075C89.1093 20.6783 89.9253 20.48 90.8433 20.48C91.7273 20.48 92.5149 20.6727 93.2063 21.058C93.8976 21.4433 94.4359 21.9873 94.8213 22.69C95.2066 23.3813 95.3993 24.1803 95.3993 25.087ZM93.3763 24.475C93.3649 23.761 93.1099 23.1887 92.6113 22.758C92.1126 22.3273 91.4949 22.112 90.7583 22.112C90.0896 22.112 89.5173 22.3273 89.0413 22.758C88.5653 23.1773 88.2819 23.7497 88.1913 24.475H93.3763ZM97.1705 25.308C97.1705 24.3447 97.3631 23.5003 97.7485 22.775C98.1451 22.0383 98.6891 21.4717 99.3805 21.075C100.072 20.6783 100.865 20.48 101.76 20.48C102.894 20.48 103.829 20.752 104.565 21.296C105.313 21.8287 105.818 22.5937 106.078 23.591H103.987C103.817 23.1263 103.545 22.7637 103.171 22.503C102.797 22.2423 102.327 22.112 101.76 22.112C100.967 22.112 100.332 22.3953 99.8565 22.962C99.3918 23.5173 99.1595 24.2993 99.1595 25.308C99.1595 26.3167 99.3918 27.1043 99.8565 27.671C100.332 28.2377 100.967 28.521 101.76 28.521C102.882 28.521 103.625 28.028 103.987 27.042H106.078C105.806 27.994 105.296 28.7533 104.548 29.32C103.8 29.8753 102.871 30.153 101.76 30.153C100.865 30.153 100.072 29.9547 99.3805 29.558C98.6891 29.15 98.1451 28.5833 97.7485 27.858C97.3631 27.1213 97.1705 26.2713 97.1705 25.308ZM110.781 22.214V27.399C110.781 27.7503 110.86 28.0053 111.019 28.164C111.189 28.3113 111.472 28.385 111.869 28.385H113.059V30H111.529C110.656 30 109.987 29.796 109.523 29.388C109.058 28.98 108.826 28.317 108.826 27.399V22.214H107.721V20.633H108.826V18.304H110.781V20.633H113.059V22.214H110.781Z" fill="#396DF2"/>
<rect x="0.5" y="0.5" width="125" height="47" rx="7.5" stroke="#6070FF"/>
</svg>
