<svg width="49" height="24" viewBox="0 0 49 24" fill="none" xmlns="http://www.w3.org/2000/svg">
<rect width="49" height="24" rx="8" fill="#EBEBFF"/>
<path d="M12.444 11.812C12.444 10.996 12.632 10.264 13.008 9.616C13.392 8.968 13.908 8.464 14.556 8.104C15.212 7.736 15.928 7.552 16.704 7.552C17.592 7.552 18.38 7.772 19.068 8.212C19.764 8.644 20.268 9.26 20.58 10.06H18.936C18.72 9.62 18.42 9.292 18.036 9.076C17.652 8.86 17.208 8.752 16.704 8.752C16.152 8.752 15.66 8.876 15.228 9.124C14.796 9.372 14.456 9.728 14.208 10.192C13.968 10.656 13.848 11.196 13.848 11.812C13.848 12.428 13.968 12.968 14.208 13.432C14.456 13.896 14.796 14.256 15.228 14.512C15.66 14.76 16.152 14.884 16.704 14.884C17.208 14.884 17.652 14.776 18.036 14.56C18.42 14.344 18.72 14.016 18.936 13.576H20.58C20.268 14.376 19.764 14.992 19.068 15.424C18.38 15.856 17.592 16.072 16.704 16.072C15.92 16.072 15.204 15.892 14.556 15.532C13.908 15.164 13.392 14.656 13.008 14.008C12.632 13.36 12.444 12.628 12.444 11.812ZM25.2892 16.084C24.7292 16.084 24.2252 15.988 23.7772 15.796C23.3292 15.596 22.9772 15.316 22.7212 14.956C22.4652 14.596 22.3372 14.176 22.3372 13.696H23.8012C23.8332 14.056 23.9732 14.352 24.2212 14.584C24.4772 14.816 24.8332 14.932 25.2892 14.932C25.7612 14.932 26.1292 14.82 26.3932 14.596C26.6572 14.364 26.7892 14.068 26.7892 13.708C26.7892 13.428 26.7052 13.2 26.5372 13.024C26.3772 12.848 26.1732 12.712 25.9252 12.616C25.6852 12.52 25.3492 12.416 24.9172 12.304C24.3732 12.16 23.9292 12.016 23.5852 11.872C23.2492 11.72 22.9612 11.488 22.7212 11.176C22.4812 10.864 22.3612 10.448 22.3612 9.928C22.3612 9.448 22.4812 9.028 22.7212 8.668C22.9612 8.308 23.2972 8.032 23.7292 7.84C24.1612 7.648 24.6612 7.552 25.2292 7.552C26.0372 7.552 26.6972 7.756 27.2092 8.164C27.7293 8.564 28.0173 9.116 28.0732 9.82H26.5612C26.5372 9.516 26.3932 9.256 26.1292 9.04C25.8652 8.824 25.5172 8.716 25.0852 8.716C24.6932 8.716 24.3732 8.816 24.1252 9.016C23.8772 9.216 23.7532 9.504 23.7532 9.88C23.7532 10.136 23.8292 10.348 23.9812 10.516C24.1412 10.676 24.3412 10.804 24.5812 10.9C24.8212 10.996 25.1492 11.1 25.5652 11.212C26.1172 11.364 26.5652 11.516 26.9092 11.668C27.2612 11.82 27.5572 12.056 27.7972 12.376C28.0452 12.688 28.1693 13.108 28.1693 13.636C28.1693 14.06 28.0533 14.46 27.8213 14.836C27.5972 15.212 27.2652 15.516 26.8252 15.748C26.3932 15.972 25.8812 16.084 25.2892 16.084ZM32.8914 16.084C32.3314 16.084 31.8274 15.988 31.3794 15.796C30.9314 15.596 30.5794 15.316 30.3234 14.956C30.0674 14.596 29.9394 14.176 29.9394 13.696H31.4034C31.4354 14.056 31.5754 14.352 31.8234 14.584C32.0794 14.816 32.4354 14.932 32.8914 14.932C33.3634 14.932 33.7314 14.82 33.9954 14.596C34.2594 14.364 34.3914 14.068 34.3914 13.708C34.3914 13.428 34.3074 13.2 34.1394 13.024C33.9794 12.848 33.7754 12.712 33.5274 12.616C33.2874 12.52 32.9514 12.416 32.5194 12.304C31.9754 12.16 31.5314 12.016 31.1874 11.872C30.8514 11.72 30.5634 11.488 30.3234 11.176C30.0834 10.864 29.9634 10.448 29.9634 9.928C29.9634 9.448 30.0834 9.028 30.3234 8.668C30.5634 8.308 30.8994 8.032 31.3314 7.84C31.7634 7.648 32.2634 7.552 32.8314 7.552C33.6394 7.552 34.2994 7.756 34.8114 8.164C35.3314 8.564 35.6194 9.116 35.6754 9.82H34.1634C34.1394 9.516 33.9954 9.256 33.7314 9.04C33.4674 8.824 33.1194 8.716 32.6874 8.716C32.2954 8.716 31.9754 8.816 31.7274 9.016C31.4794 9.216 31.3554 9.504 31.3554 9.88C31.3554 10.136 31.4314 10.348 31.5834 10.516C31.7434 10.676 31.9434 10.804 32.1834 10.9C32.4234 10.996 32.7514 11.1 33.1674 11.212C33.7194 11.364 34.1674 11.516 34.5114 11.668C34.8634 11.82 35.1594 12.056 35.3994 12.376C35.6474 12.688 35.7714 13.108 35.7714 13.636C35.7714 14.06 35.6554 14.46 35.4234 14.836C35.1994 15.212 34.8674 15.516 34.4274 15.748C33.9954 15.972 33.4834 16.084 32.8914 16.084Z" fill="#6070FF"/>
</svg>
