<svg width="92" height="24" viewBox="0 0 92 24" fill="none" xmlns="http://www.w3.org/2000/svg">
<rect width="92" height="24" rx="8" fill="#EBEBFF"/>
<path d="M17.448 7.66V13.672C17.448 14.416 17.22 15.004 16.764 15.436C16.316 15.868 15.724 16.084 14.988 16.084C14.252 16.084 13.656 15.868 13.2 15.436C12.752 15.004 12.528 14.416 12.528 13.672H13.908C13.916 14.04 14.008 14.332 14.184 14.548C14.368 14.764 14.636 14.872 14.988 14.872C15.34 14.872 15.608 14.764 15.792 14.548C15.976 14.324 16.068 14.032 16.068 13.672V7.66H17.448ZM19.5774 12.664C19.5774 12 19.7134 11.412 19.9854 10.9C20.2654 10.388 20.6414 9.992 21.1134 9.712C21.5934 9.424 22.1214 9.28 22.6974 9.28C23.2174 9.28 23.6694 9.384 24.0534 9.592C24.4454 9.792 24.7574 10.044 24.9894 10.348V9.388H26.3694V16H24.9894V15.016C24.7574 15.328 24.4414 15.588 24.0414 15.796C23.6414 16.004 23.1854 16.108 22.6734 16.108C22.1054 16.108 21.5854 15.964 21.1134 15.676C20.6414 15.38 20.2654 14.972 19.9854 14.452C19.7134 13.924 19.5774 13.328 19.5774 12.664ZM24.9894 12.688C24.9894 12.232 24.8934 11.836 24.7014 11.5C24.5174 11.164 24.2734 10.908 23.9694 10.732C23.6654 10.556 23.3374 10.468 22.9854 10.468C22.6334 10.468 22.3054 10.556 22.0014 10.732C21.6974 10.9 21.4494 11.152 21.2574 11.488C21.0734 11.816 20.9814 12.208 20.9814 12.664C20.9814 13.12 21.0734 13.52 21.2574 13.864C21.4494 14.208 21.6974 14.472 22.0014 14.656C22.3134 14.832 22.6414 14.92 22.9854 14.92C23.3374 14.92 23.6654 14.832 23.9694 14.656C24.2734 14.48 24.5174 14.224 24.7014 13.888C24.8934 13.544 24.9894 13.144 24.9894 12.688ZM31.0823 14.776L32.9543 9.388H34.4063L31.8863 16H30.2543L27.7463 9.388H29.2103L31.0823 14.776ZM35.3443 12.664C35.3443 12 35.4803 11.412 35.7523 10.9C36.0323 10.388 36.4083 9.992 36.8803 9.712C37.3603 9.424 37.8883 9.28 38.4643 9.28C38.9843 9.28 39.4363 9.384 39.8203 9.592C40.2123 9.792 40.5243 10.044 40.7563 10.348V9.388H42.1363V16H40.7563V15.016C40.5243 15.328 40.2083 15.588 39.8083 15.796C39.4083 16.004 38.9523 16.108 38.4403 16.108C37.8723 16.108 37.3523 15.964 36.8803 15.676C36.4083 15.38 36.0323 14.972 35.7523 14.452C35.4803 13.924 35.3443 13.328 35.3443 12.664ZM40.7563 12.688C40.7563 12.232 40.6603 11.836 40.4683 11.5C40.2843 11.164 40.0403 10.908 39.7363 10.732C39.4323 10.556 39.1043 10.468 38.7523 10.468C38.4003 10.468 38.0723 10.556 37.7683 10.732C37.4643 10.9 37.2163 11.152 37.0243 11.488C36.8403 11.816 36.7483 12.208 36.7483 12.664C36.7483 13.12 36.8403 13.52 37.0243 13.864C37.2163 14.208 37.4643 14.472 37.7683 14.656C38.0803 14.832 38.4083 14.92 38.7523 14.92C39.1043 14.92 39.4323 14.832 39.7363 14.656C40.0403 14.48 40.2843 14.224 40.4683 13.888C40.6603 13.544 40.7563 13.144 40.7563 12.688ZM47.0411 16.084C46.4811 16.084 45.9771 15.988 45.5291 15.796C45.0811 15.596 44.7291 15.316 44.4731 14.956C44.2171 14.596 44.0891 14.176 44.0891 13.696H45.5531C45.5851 14.056 45.7251 14.352 45.9731 14.584C46.2291 14.816 46.5851 14.932 47.0411 14.932C47.5131 14.932 47.8811 14.82 48.1451 14.596C48.4091 14.364 48.5411 14.068 48.5411 13.708C48.5411 13.428 48.4571 13.2 48.2891 13.024C48.1291 12.848 47.9251 12.712 47.6771 12.616C47.4371 12.52 47.1011 12.416 46.6691 12.304C46.1251 12.16 45.6811 12.016 45.3371 11.872C45.0011 11.72 44.7131 11.488 44.4731 11.176C44.2331 10.864 44.1131 10.448 44.1131 9.928C44.1131 9.448 44.2331 9.028 44.4731 8.668C44.7131 8.308 45.0491 8.032 45.4811 7.84C45.9131 7.648 46.4131 7.552 46.9811 7.552C47.7891 7.552 48.4491 7.756 48.9611 8.164C49.4811 8.564 49.7691 9.116 49.8251 9.82H48.3131C48.2891 9.516 48.1451 9.256 47.8811 9.04C47.6171 8.824 47.2691 8.716 46.8371 8.716C46.4451 8.716 46.1251 8.816 45.8771 9.016C45.6291 9.216 45.5051 9.504 45.5051 9.88C45.5051 10.136 45.5811 10.348 45.7331 10.516C45.8931 10.676 46.0931 10.804 46.3331 10.9C46.5731 10.996 46.9011 11.1 47.3171 11.212C47.8691 11.364 48.3171 11.516 48.6611 11.668C49.0131 11.82 49.3091 12.056 49.5491 12.376C49.7971 12.688 49.9211 13.108 49.9211 13.636C49.9211 14.06 49.8051 14.46 49.5731 14.836C49.3491 15.212 49.0171 15.516 48.5771 15.748C48.1451 15.972 47.6331 16.084 47.0411 16.084ZM51.4393 12.688C51.4393 12.008 51.5753 11.412 51.8473 10.9C52.1273 10.38 52.5113 9.98 52.9993 9.7C53.4873 9.42 54.0473 9.28 54.6793 9.28C55.4793 9.28 56.1393 9.472 56.6593 9.856C57.1873 10.232 57.5433 10.772 57.7273 11.476H56.2513C56.1313 11.148 55.9393 10.892 55.6753 10.708C55.4113 10.524 55.0793 10.432 54.6793 10.432C54.1193 10.432 53.6713 10.632 53.3353 11.032C53.0073 11.424 52.8433 11.976 52.8433 12.688C52.8433 13.4 53.0073 13.956 53.3353 14.356C53.6713 14.756 54.1193 14.956 54.6793 14.956C55.4713 14.956 55.9953 14.608 56.2513 13.912H57.7273C57.5353 14.584 57.1753 15.12 56.6473 15.52C56.1193 15.912 55.4633 16.108 54.6793 16.108C54.0473 16.108 53.4873 15.968 52.9993 15.688C52.5113 15.4 52.1273 15 51.8473 14.488C51.5753 13.968 51.4393 13.368 51.4393 12.688ZM60.8186 10.348C61.0186 10.012 61.2826 9.752 61.6106 9.568C61.9466 9.376 62.3426 9.28 62.7986 9.28V10.696H62.4506C61.9146 10.696 61.5066 10.832 61.2266 11.104C60.9546 11.376 60.8186 11.848 60.8186 12.52V16H59.4506V9.388H60.8186V10.348ZM65.1121 8.512C64.8641 8.512 64.6561 8.428 64.4881 8.26C64.3201 8.092 64.2361 7.884 64.2361 7.636C64.2361 7.388 64.3201 7.18 64.4881 7.012C64.6561 6.844 64.8641 6.76 65.1121 6.76C65.3521 6.76 65.5561 6.844 65.7241 7.012C65.8921 7.18 65.9761 7.388 65.9761 7.636C65.9761 7.884 65.8921 8.092 65.7241 8.26C65.5561 8.428 65.3521 8.512 65.1121 8.512ZM65.7841 9.388V16H64.4161V9.388H65.7841ZM69.3082 10.36C69.5402 10.056 69.8562 9.8 70.2562 9.592C70.6562 9.384 71.1082 9.28 71.6122 9.28C72.1882 9.28 72.7122 9.424 73.1842 9.712C73.6642 9.992 74.0402 10.388 74.3122 10.9C74.5842 11.412 74.7202 12 74.7202 12.664C74.7202 13.328 74.5842 13.924 74.3122 14.452C74.0402 14.972 73.6642 15.38 73.1842 15.676C72.7122 15.964 72.1882 16.108 71.6122 16.108C71.1082 16.108 70.6602 16.008 70.2682 15.808C69.8762 15.6 69.5562 15.344 69.3082 15.04V19.144H67.9402V9.388H69.3082V10.36ZM73.3282 12.664C73.3282 12.208 73.2322 11.816 73.0402 11.488C72.8562 11.152 72.6082 10.9 72.2962 10.732C71.9922 10.556 71.6642 10.468 71.3122 10.468C70.9682 10.468 70.6402 10.556 70.3282 10.732C70.0242 10.908 69.7762 11.164 69.5842 11.5C69.4002 11.836 69.3082 12.232 69.3082 12.688C69.3082 13.144 69.4002 13.544 69.5842 13.888C69.7762 14.224 70.0242 14.48 70.3282 14.656C70.6402 14.832 70.9682 14.92 71.3122 14.92C71.6642 14.92 71.9922 14.832 72.2962 14.656C72.6082 14.472 72.8562 14.208 73.0402 13.864C73.2322 13.52 73.3282 13.12 73.3282 12.664ZM78.029 10.504V14.164C78.029 14.412 78.085 14.592 78.197 14.704C78.317 14.808 78.517 14.86 78.797 14.86H79.637V16H78.557C77.941 16 77.469 15.856 77.141 15.568C76.813 15.28 76.649 14.812 76.649 14.164V10.504H75.869V9.388H76.649V7.744H78.029V9.388H79.637V10.504H78.029Z" fill="#6070FF"/>
</svg>
