<svg width="310" height="134" viewBox="0 0 310 134" fill="none" xmlns="http://www.w3.org/2000/svg">
<path d="M7.88344 2.06V16H6.06344V2.06H7.88344ZM15.4453 6.54H13.1453V16H11.3253V6.54H9.90531V5.04H11.3253V4.26C11.3253 3.03333 11.6386 2.14 12.2653 1.58C12.9053 1.00667 13.9253 0.719999 15.3253 0.719999V2.24C14.5253 2.24 13.9586 2.4 13.6253 2.72C13.3053 3.02667 13.1453 3.54 13.1453 4.26V5.04H15.4453V6.54ZM32.3394 5.04L25.7394 21.16H23.8594L26.0194 15.88L21.5994 5.04H23.6194L27.0594 13.92L30.4594 5.04H32.3394ZM38.9489 16.18C37.9222 16.18 36.9889 15.9467 36.1489 15.48C35.3222 15.0133 34.6689 14.3533 34.1889 13.5C33.7222 12.6333 33.4889 11.6333 33.4889 10.5C33.4889 9.38 33.7289 8.39333 34.2089 7.54C34.7022 6.67333 35.3689 6.01333 36.2089 5.56C37.0489 5.09333 37.9889 4.86 39.0289 4.86C40.0689 4.86 41.0089 5.09333 41.8489 5.56C42.6889 6.01333 43.3489 6.66667 43.8289 7.52C44.3222 8.37333 44.5689 9.36667 44.5689 10.5C44.5689 11.6333 44.3156 12.6333 43.8089 13.5C43.3156 14.3533 42.6422 15.0133 41.7889 15.48C40.9356 15.9467 39.9889 16.18 38.9489 16.18ZM38.9489 14.58C39.6022 14.58 40.2156 14.4267 40.7889 14.12C41.3622 13.8133 41.8222 13.3533 42.1689 12.74C42.5289 12.1267 42.7089 11.38 42.7089 10.5C42.7089 9.62 42.5356 8.87333 42.1889 8.26C41.8422 7.64667 41.3889 7.19333 40.8289 6.9C40.2689 6.59333 39.6622 6.44 39.0089 6.44C38.3422 6.44 37.7289 6.59333 37.1689 6.9C36.6222 7.19333 36.1822 7.64667 35.8489 8.26C35.5156 8.87333 35.3489 9.62 35.3489 10.5C35.3489 11.3933 35.5089 12.1467 35.8289 12.76C36.1622 13.3733 36.6022 13.8333 37.1489 14.14C37.6956 14.4333 38.2956 14.58 38.9489 14.58ZM56.6819 5.04V16H54.8619V14.38C54.5152 14.94 54.0285 15.38 53.4019 15.7C52.7885 16.0067 52.1085 16.16 51.3619 16.16C50.5085 16.16 49.7419 15.9867 49.0619 15.64C48.3819 15.28 47.8419 14.7467 47.4419 14.04C47.0552 13.3333 46.8619 12.4733 46.8619 11.46V5.04H48.6619V11.22C48.6619 12.3 48.9352 13.1333 49.4819 13.72C50.0285 14.2933 50.7752 14.58 51.7219 14.58C52.6952 14.58 53.4619 14.28 54.0219 13.68C54.5819 13.08 54.8619 12.2067 54.8619 11.06V5.04H56.6819ZM70.5269 4.84C71.3535 4.84 72.1002 5.02 72.7669 5.38C73.4335 5.72667 73.9535 6.25333 74.3269 6.96C74.7135 7.66667 74.9069 8.52667 74.9069 9.54V16H73.1069V9.8C73.1069 8.70667 72.8335 7.87333 72.2869 7.3C71.7402 6.71333 70.9935 6.42 70.0469 6.42C69.0869 6.42 68.3202 6.72 67.7469 7.32C67.1869 7.92 66.9069 8.79333 66.9069 9.94V16H65.0869V1.2H66.9069V6.6C67.2669 6.04 67.7602 5.60667 68.3869 5.3C69.0269 4.99333 69.7402 4.84 70.5269 4.84ZM77.1998 10.48C77.1998 9.36 77.4265 8.38 77.8798 7.54C78.3332 6.68667 78.9532 6.02667 79.7398 5.56C80.5398 5.09333 81.4265 4.86 82.3998 4.86C83.3598 4.86 84.1932 5.06667 84.8998 5.48C85.6065 5.89333 86.1332 6.41333 86.4798 7.04V5.04H88.3198V16H86.4798V13.96C86.1198 14.6 85.5798 15.1333 84.8598 15.56C84.1532 15.9733 83.3265 16.18 82.3798 16.18C81.4065 16.18 80.5265 15.94 79.7398 15.46C78.9532 14.98 78.3332 14.3067 77.8798 13.44C77.4265 12.5733 77.1998 11.5867 77.1998 10.48ZM86.4798 10.5C86.4798 9.67333 86.3132 8.95333 85.9798 8.34C85.6465 7.72667 85.1932 7.26 84.6198 6.94C84.0598 6.60667 83.4398 6.44 82.7598 6.44C82.0798 6.44 81.4598 6.6 80.8998 6.92C80.3398 7.24 79.8932 7.70667 79.5598 8.32C79.2265 8.93333 79.0598 9.65333 79.0598 10.48C79.0598 11.32 79.2265 12.0533 79.5598 12.68C79.8932 13.2933 80.3398 13.7667 80.8998 14.1C81.4598 14.42 82.0798 14.58 82.7598 14.58C83.4398 14.58 84.0598 14.42 84.6198 14.1C85.1932 13.7667 85.6465 13.2933 85.9798 12.68C86.3132 12.0533 86.4798 11.3267 86.4798 10.5ZM95.4755 14.32L98.8755 5.04H100.815L96.5155 16H94.3955L90.0955 5.04H92.0555L95.4755 14.32ZM112.606 10.1C112.606 10.4467 112.586 10.8133 112.546 11.2H103.786C103.853 12.28 104.22 13.1267 104.886 13.74C105.566 14.34 106.386 14.64 107.346 14.64C108.133 14.64 108.786 14.46 109.306 14.1C109.84 13.7267 110.213 13.2333 110.426 12.62H112.386C112.093 13.6733 111.506 14.5333 110.626 15.2C109.746 15.8533 108.653 16.18 107.346 16.18C106.306 16.18 105.373 15.9467 104.546 15.48C103.733 15.0133 103.093 14.3533 102.626 13.5C102.16 12.6333 101.926 11.6333 101.926 10.5C101.926 9.36667 102.153 8.37333 102.606 7.52C103.06 6.66667 103.693 6.01333 104.506 5.56C105.333 5.09333 106.28 4.86 107.346 4.86C108.386 4.86 109.306 5.08667 110.106 5.54C110.906 5.99333 111.52 6.62 111.946 7.42C112.386 8.20667 112.606 9.1 112.606 10.1ZM110.726 9.72C110.726 9.02667 110.573 8.43333 110.266 7.94C109.96 7.43333 109.54 7.05333 109.006 6.8C108.486 6.53333 107.906 6.4 107.266 6.4C106.346 6.4 105.56 6.69333 104.906 7.28C104.266 7.86667 103.9 8.68 103.806 9.72H110.726ZM119.661 10.48C119.661 9.36 119.887 8.38 120.341 7.54C120.794 6.68667 121.414 6.02667 122.201 5.56C123.001 5.09333 123.887 4.86 124.861 4.86C125.821 4.86 126.654 5.06667 127.361 5.48C128.067 5.89333 128.594 6.41333 128.941 7.04V5.04H130.781V16H128.941V13.96C128.581 14.6 128.041 15.1333 127.321 15.56C126.614 15.9733 125.787 16.18 124.841 16.18C123.867 16.18 122.987 15.94 122.201 15.46C121.414 14.98 120.794 14.3067 120.341 13.44C119.887 12.5733 119.661 11.5867 119.661 10.48ZM128.941 10.5C128.941 9.67333 128.774 8.95333 128.441 8.34C128.107 7.72667 127.654 7.26 127.081 6.94C126.521 6.60667 125.901 6.44 125.221 6.44C124.541 6.44 123.921 6.6 123.361 6.92C122.801 7.24 122.354 7.70667 122.021 8.32C121.687 8.93333 121.521 9.65333 121.521 10.48C121.521 11.32 121.687 12.0533 122.021 12.68C122.354 13.2933 122.801 13.7667 123.361 14.1C123.921 14.42 124.541 14.58 125.221 14.58C125.901 14.58 126.521 14.42 127.081 14.1C127.654 13.7667 128.107 13.2933 128.441 12.68C128.774 12.0533 128.941 11.3267 128.941 10.5ZM139.196 4.84C140.53 4.84 141.61 5.24667 142.436 6.06C143.263 6.86 143.676 8.02 143.676 9.54V16H141.876V9.8C141.876 8.70667 141.603 7.87333 141.056 7.3C140.51 6.71333 139.763 6.42 138.816 6.42C137.856 6.42 137.09 6.72 136.516 7.32C135.956 7.92 135.676 8.79333 135.676 9.94V16H133.856V5.04H135.676V6.6C136.036 6.04 136.523 5.60667 137.136 5.3C137.763 4.99333 138.45 4.84 139.196 4.84ZM151.301 10.48C151.301 9.36 151.528 8.38 151.981 7.54C152.435 6.68667 153.055 6.02667 153.841 5.56C154.641 5.09333 155.528 4.86 156.501 4.86C157.461 4.86 158.295 5.06667 159.001 5.48C159.708 5.89333 160.235 6.41333 160.581 7.04V5.04H162.421V16H160.581V13.96C160.221 14.6 159.681 15.1333 158.961 15.56C158.255 15.9733 157.428 16.18 156.481 16.18C155.508 16.18 154.628 15.94 153.841 15.46C153.055 14.98 152.435 14.3067 151.981 13.44C151.528 12.5733 151.301 11.5867 151.301 10.48ZM160.581 10.5C160.581 9.67333 160.415 8.95333 160.081 8.34C159.748 7.72667 159.295 7.26 158.721 6.94C158.161 6.60667 157.541 6.44 156.861 6.44C156.181 6.44 155.561 6.6 155.001 6.92C154.441 7.24 153.995 7.70667 153.661 8.32C153.328 8.93333 153.161 9.65333 153.161 10.48C153.161 11.32 153.328 12.0533 153.661 12.68C153.995 13.2933 154.441 13.7667 155.001 14.1C155.561 14.42 156.181 14.58 156.861 14.58C157.541 14.58 158.161 14.42 158.721 14.1C159.295 13.7667 159.748 13.2933 160.081 12.68C160.415 12.0533 160.581 11.3267 160.581 10.5ZM167.317 7.06C167.677 6.43333 168.21 5.91333 168.917 5.5C169.637 5.07333 170.47 4.86 171.417 4.86C172.39 4.86 173.27 5.09333 174.057 5.56C174.857 6.02667 175.484 6.68667 175.937 7.54C176.39 8.38 176.617 9.36 176.617 10.48C176.617 11.5867 176.39 12.5733 175.937 13.44C175.484 14.3067 174.857 14.98 174.057 15.46C173.27 15.94 172.39 16.18 171.417 16.18C170.484 16.18 169.657 15.9733 168.937 15.56C168.23 15.1333 167.69 14.6067 167.317 13.98V21.2H165.497V5.04H167.317V7.06ZM174.757 10.48C174.757 9.65333 174.59 8.93333 174.257 8.32C173.924 7.70667 173.47 7.24 172.897 6.92C172.337 6.6 171.717 6.44 171.037 6.44C170.37 6.44 169.75 6.60667 169.177 6.94C168.617 7.26 168.164 7.73333 167.817 8.36C167.484 8.97333 167.317 9.68667 167.317 10.5C167.317 11.3267 167.484 12.0533 167.817 12.68C168.164 13.2933 168.617 13.7667 169.177 14.1C169.75 14.42 170.37 14.58 171.037 14.58C171.717 14.58 172.337 14.42 172.897 14.1C173.47 13.7667 173.924 13.2933 174.257 12.68C174.59 12.0533 174.757 11.32 174.757 10.48ZM180.833 7.06C181.193 6.43333 181.726 5.91333 182.433 5.5C183.153 5.07333 183.986 4.86 184.933 4.86C185.906 4.86 186.786 5.09333 187.573 5.56C188.373 6.02667 188.999 6.68667 189.453 7.54C189.906 8.38 190.133 9.36 190.133 10.48C190.133 11.5867 189.906 12.5733 189.453 13.44C188.999 14.3067 188.373 14.98 187.573 15.46C186.786 15.94 185.906 16.18 184.933 16.18C183.999 16.18 183.173 15.9733 182.453 15.56C181.746 15.1333 181.206 14.6067 180.833 13.98V21.2H179.013V5.04H180.833V7.06ZM188.273 10.48C188.273 9.65333 188.106 8.93333 187.773 8.32C187.439 7.70667 186.986 7.24 186.413 6.92C185.853 6.6 185.233 6.44 184.553 6.44C183.886 6.44 183.266 6.60667 182.693 6.94C182.133 7.26 181.679 7.73333 181.333 8.36C180.999 8.97333 180.833 9.68667 180.833 10.5C180.833 11.3267 180.999 12.0533 181.333 12.68C181.679 13.2933 182.133 13.7667 182.693 14.1C183.266 14.42 183.886 14.58 184.553 14.58C185.233 14.58 185.853 14.42 186.413 14.1C186.986 13.7667 187.439 13.2933 187.773 12.68C188.106 12.0533 188.273 11.32 188.273 10.48ZM194.348 1.2V16H192.528V1.2H194.348ZM198.39 3.26C198.043 3.26 197.75 3.14 197.51 2.9C197.27 2.66 197.15 2.36667 197.15 2.02C197.15 1.67333 197.27 1.38 197.51 1.14C197.75 0.899999 198.043 0.779999 198.39 0.779999C198.723 0.779999 199.003 0.899999 199.23 1.14C199.47 1.38 199.59 1.67333 199.59 2.02C199.59 2.36667 199.47 2.66 199.23 2.9C199.003 3.14 198.723 3.26 198.39 3.26ZM199.27 5.04V16H197.45V5.04H199.27ZM201.692 10.5C201.692 9.36667 201.919 8.38 202.372 7.54C202.825 6.68667 203.452 6.02667 204.252 5.56C205.065 5.09333 205.992 4.86 207.032 4.86C208.379 4.86 209.485 5.18667 210.352 5.84C211.232 6.49333 211.812 7.4 212.092 8.56H210.132C209.945 7.89333 209.579 7.36667 209.032 6.98C208.499 6.59333 207.832 6.4 207.032 6.4C205.992 6.4 205.152 6.76 204.512 7.48C203.872 8.18667 203.552 9.19333 203.552 10.5C203.552 11.82 203.872 12.84 204.512 13.56C205.152 14.28 205.992 14.64 207.032 14.64C207.832 14.64 208.499 14.4533 209.032 14.08C209.565 13.7067 209.932 13.1733 210.132 12.48H212.092C211.799 13.6 211.212 14.5 210.332 15.18C209.452 15.8467 208.352 16.18 207.032 16.18C205.992 16.18 205.065 15.9467 204.252 15.48C203.452 15.0133 202.825 14.3533 202.372 13.5C201.919 12.6467 201.692 11.6467 201.692 10.5ZM213.84 10.48C213.84 9.36 214.067 8.38 214.52 7.54C214.974 6.68667 215.594 6.02667 216.38 5.56C217.18 5.09333 218.067 4.86 219.04 4.86C220 4.86 220.834 5.06667 221.54 5.48C222.247 5.89333 222.774 6.41333 223.12 7.04V5.04H224.96V16H223.12V13.96C222.76 14.6 222.22 15.1333 221.5 15.56C220.794 15.9733 219.967 16.18 219.02 16.18C218.047 16.18 217.167 15.94 216.38 15.46C215.594 14.98 214.974 14.3067 214.52 13.44C214.067 12.5733 213.84 11.5867 213.84 10.48ZM223.12 10.5C223.12 9.67333 222.954 8.95333 222.62 8.34C222.287 7.72667 221.834 7.26 221.26 6.94C220.7 6.60667 220.08 6.44 219.4 6.44C218.72 6.44 218.1 6.6 217.54 6.92C216.98 7.24 216.534 7.70667 216.2 8.32C215.867 8.93333 215.7 9.65333 215.7 10.48C215.7 11.32 215.867 12.0533 216.2 12.68C216.534 13.2933 216.98 13.7667 217.54 14.1C218.1 14.42 218.72 14.58 219.4 14.58C220.08 14.58 220.7 14.42 221.26 14.1C221.834 13.7667 222.287 13.2933 222.62 12.68C222.954 12.0533 223.12 11.3267 223.12 10.5ZM230.256 6.54V13C230.256 13.5333 230.369 13.9133 230.596 14.14C230.823 14.3533 231.216 14.46 231.776 14.46H233.116V16H231.476C230.463 16 229.703 15.7667 229.196 15.3C228.689 14.8333 228.436 14.0667 228.436 13V6.54H227.016V5.04H228.436V2.28H230.256V5.04H233.116V6.54H230.256ZM236.261 3.26C235.915 3.26 235.621 3.14 235.381 2.9C235.141 2.66 235.021 2.36667 235.021 2.02C235.021 1.67333 235.141 1.38 235.381 1.14C235.621 0.899999 235.915 0.779999 236.261 0.779999C236.595 0.779999 236.875 0.899999 237.101 1.14C237.341 1.38 237.461 1.67333 237.461 2.02C237.461 2.36667 237.341 2.66 237.101 2.9C236.875 3.14 236.595 3.26 236.261 3.26ZM237.141 5.04V16H235.321V5.04H237.141ZM245.023 16.18C243.996 16.18 243.063 15.9467 242.223 15.48C241.396 15.0133 240.743 14.3533 240.263 13.5C239.796 12.6333 239.563 11.6333 239.563 10.5C239.563 9.38 239.803 8.39333 240.283 7.54C240.776 6.67333 241.443 6.01333 242.283 5.56C243.123 5.09333 244.063 4.86 245.103 4.86C246.143 4.86 247.083 5.09333 247.923 5.56C248.763 6.01333 249.423 6.66667 249.903 7.52C250.396 8.37333 250.643 9.36667 250.643 10.5C250.643 11.6333 250.39 12.6333 249.883 13.5C249.39 14.3533 248.716 15.0133 247.863 15.48C247.01 15.9467 246.063 16.18 245.023 16.18ZM245.023 14.58C245.676 14.58 246.29 14.4267 246.863 14.12C247.436 13.8133 247.896 13.3533 248.243 12.74C248.603 12.1267 248.783 11.38 248.783 10.5C248.783 9.62 248.61 8.87333 248.263 8.26C247.916 7.64667 247.463 7.19333 246.903 6.9C246.343 6.59333 245.736 6.44 245.083 6.44C244.416 6.44 243.803 6.59333 243.243 6.9C242.696 7.19333 242.256 7.64667 241.923 8.26C241.59 8.87333 241.423 9.62 241.423 10.5C241.423 11.3933 241.583 12.1467 241.903 12.76C242.236 13.3733 242.676 13.8333 243.223 14.14C243.77 14.4333 244.37 14.58 245.023 14.58ZM258.376 4.84C259.709 4.84 260.789 5.24667 261.616 6.06C262.443 6.86 262.856 8.02 262.856 9.54V16H261.056V9.8C261.056 8.70667 260.783 7.87333 260.236 7.3C259.689 6.71333 258.943 6.42 257.996 6.42C257.036 6.42 256.269 6.72 255.696 7.32C255.136 7.92 254.856 8.79333 254.856 9.94V16H253.036V5.04H254.856V6.6C255.216 6.04 255.703 5.60667 256.316 5.3C256.943 4.99333 257.629 4.84 258.376 4.84ZM280.601 5.04L274.001 21.16H272.121L274.281 15.88L269.861 5.04H271.881L275.321 13.92L278.721 5.04H280.601ZM287.211 16.18C286.184 16.18 285.251 15.9467 284.411 15.48C283.584 15.0133 282.931 14.3533 282.451 13.5C281.984 12.6333 281.751 11.6333 281.751 10.5C281.751 9.38 281.991 8.39333 282.471 7.54C282.964 6.67333 283.631 6.01333 284.471 5.56C285.311 5.09333 286.251 4.86 287.291 4.86C288.331 4.86 289.271 5.09333 290.111 5.56C290.951 6.01333 291.611 6.66667 292.091 7.52C292.584 8.37333 292.831 9.36667 292.831 10.5C292.831 11.6333 292.577 12.6333 292.071 13.5C291.577 14.3533 290.904 15.0133 290.051 15.48C289.197 15.9467 288.251 16.18 287.211 16.18ZM287.211 14.58C287.864 14.58 288.477 14.4267 289.051 14.12C289.624 13.8133 290.084 13.3533 290.431 12.74C290.791 12.1267 290.971 11.38 290.971 10.5C290.971 9.62 290.797 8.87333 290.451 8.26C290.104 7.64667 289.651 7.19333 289.091 6.9C288.531 6.59333 287.924 6.44 287.271 6.44C286.604 6.44 285.991 6.59333 285.431 6.9C284.884 7.19333 284.444 7.64667 284.111 8.26C283.777 8.87333 283.611 9.62 283.611 10.5C283.611 11.3933 283.771 12.1467 284.091 12.76C284.424 13.3733 284.864 13.8333 285.411 14.14C285.957 14.4333 286.557 14.58 287.211 14.58ZM304.944 5.04V16H303.124V14.38C302.777 14.94 302.29 15.38 301.664 15.7C301.05 16.0067 300.37 16.16 299.624 16.16C298.77 16.16 298.004 15.9867 297.324 15.64C296.644 15.28 296.104 14.7467 295.704 14.04C295.317 13.3333 295.124 12.4733 295.124 11.46V5.04H296.924V11.22C296.924 12.3 297.197 13.1333 297.744 13.72C298.29 14.2933 299.037 14.58 299.984 14.58C300.957 14.58 301.724 14.28 302.284 13.68C302.844 13.08 303.124 12.2067 303.124 11.06V5.04H304.944ZM4.95375 38.48C4.95375 37.36 5.18042 36.38 5.63375 35.54C6.08708 34.6867 6.70708 34.0267 7.49375 33.56C8.29375 33.0933 9.18042 32.86 10.1538 32.86C11.1138 32.86 11.9471 33.0667 12.6538 33.48C13.3604 33.8933 13.8871 34.4133 14.2338 35.04V33.04H16.0738V44H14.2338V41.96C13.8738 42.6 13.3338 43.1333 12.6138 43.56C11.9071 43.9733 11.0804 44.18 10.1338 44.18C9.16042 44.18 8.28042 43.94 7.49375 43.46C6.70708 42.98 6.08708 42.3067 5.63375 41.44C5.18042 40.5733 4.95375 39.5867 4.95375 38.48ZM14.2338 38.5C14.2338 37.6733 14.0671 36.9533 13.7338 36.34C13.4004 35.7267 12.9471 35.26 12.3738 34.94C11.8138 34.6067 11.1938 34.44 10.5138 34.44C9.83375 34.44 9.21375 34.6 8.65375 34.92C8.09375 35.24 7.64708 35.7067 7.31375 36.32C6.98042 36.9333 6.81375 37.6533 6.81375 38.48C6.81375 39.32 6.98042 40.0533 7.31375 40.68C7.64708 41.2933 8.09375 41.7667 8.65375 42.1C9.21375 42.42 9.83375 42.58 10.5138 42.58C11.1938 42.58 11.8138 42.42 12.3738 42.1C12.9471 41.7667 13.4004 41.2933 13.7338 40.68C14.0671 40.0533 14.2338 39.3267 14.2338 38.5ZM20.9694 34.82C21.2894 34.1933 21.7427 33.7067 22.3294 33.36C22.9294 33.0133 23.656 32.84 24.5094 32.84V34.72H24.0294C21.9894 34.72 20.9694 35.8267 20.9694 38.04V44H19.1494V33.04H20.9694V34.82ZM36.6103 38.1C36.6103 38.4467 36.5903 38.8133 36.5503 39.2H27.7903C27.857 40.28 28.2236 41.1267 28.8903 41.74C29.5703 42.34 30.3903 42.64 31.3503 42.64C32.137 42.64 32.7903 42.46 33.3103 42.1C33.8436 41.7267 34.217 41.2333 34.4303 40.62H36.3903C36.097 41.6733 35.5103 42.5333 34.6303 43.2C33.7503 43.8533 32.657 44.18 31.3503 44.18C30.3103 44.18 29.377 43.9467 28.5503 43.48C27.737 43.0133 27.097 42.3533 26.6303 41.5C26.1636 40.6333 25.9303 39.6333 25.9303 38.5C25.9303 37.3667 26.157 36.3733 26.6103 35.52C27.0636 34.6667 27.697 34.0133 28.5103 33.56C29.337 33.0933 30.2836 32.86 31.3503 32.86C32.3903 32.86 33.3103 33.0867 34.1103 33.54C34.9103 33.9933 35.5236 34.62 35.9503 35.42C36.3903 36.2067 36.6103 37.1 36.6103 38.1ZM34.7303 37.72C34.7303 37.0267 34.577 36.4333 34.2703 35.94C33.9636 35.4333 33.5436 35.0533 33.0103 34.8C32.4903 34.5333 31.9103 34.4 31.2703 34.4C30.3503 34.4 29.5636 34.6933 28.9103 35.28C28.2703 35.8667 27.9036 36.68 27.8103 37.72H34.7303ZM45.2847 31.26C44.938 31.26 44.6447 31.14 44.4047 30.9C44.1647 30.66 44.0447 30.3667 44.0447 30.02C44.0447 29.6733 44.1647 29.38 44.4047 29.14C44.6447 28.9 44.938 28.78 45.2847 28.78C45.618 28.78 45.898 28.9 46.1247 29.14C46.3647 29.38 46.4847 29.6733 46.4847 30.02C46.4847 30.3667 46.3647 30.66 46.1247 30.9C45.898 31.14 45.618 31.26 45.2847 31.26ZM46.1647 33.04V44H44.3447V33.04H46.1647ZM54.6066 32.84C55.9399 32.84 57.0199 33.2467 57.8466 34.06C58.6732 34.86 59.0866 36.02 59.0866 37.54V44H57.2866V37.8C57.2866 36.7067 57.0132 35.8733 56.4666 35.3C55.9199 34.7133 55.1732 34.42 54.2266 34.42C53.2666 34.42 52.4999 34.72 51.9266 35.32C51.3666 35.92 51.0866 36.7933 51.0866 37.94V44H49.2666V33.04H51.0866V34.6C51.4466 34.04 51.9332 33.6067 52.5466 33.3C53.1732 32.9933 53.8599 32.84 54.6066 32.84ZM64.2795 34.54V41C64.2795 41.5333 64.3929 41.9133 64.6195 42.14C64.8462 42.3533 65.2395 42.46 65.7995 42.46H67.1395V44H65.4995C64.4862 44 63.7262 43.7667 63.2195 43.3C62.7129 42.8333 62.4595 42.0667 62.4595 41V34.54H61.0395V33.04H62.4595V30.28H64.2795V33.04H67.1395V34.54H64.2795ZM79.3447 38.1C79.3447 38.4467 79.3247 38.8133 79.2847 39.2H70.5247C70.5914 40.28 70.958 41.1267 71.6247 41.74C72.3047 42.34 73.1247 42.64 74.0847 42.64C74.8714 42.64 75.5247 42.46 76.0447 42.1C76.578 41.7267 76.9514 41.2333 77.1647 40.62H79.1247C78.8314 41.6733 78.2447 42.5333 77.3647 43.2C76.4847 43.8533 75.3914 44.18 74.0847 44.18C73.0447 44.18 72.1114 43.9467 71.2847 43.48C70.4714 43.0133 69.8314 42.3533 69.3647 41.5C68.898 40.6333 68.6647 39.6333 68.6647 38.5C68.6647 37.3667 68.8914 36.3733 69.3447 35.52C69.798 34.6667 70.4314 34.0133 71.2447 33.56C72.0714 33.0933 73.018 32.86 74.0847 32.86C75.1247 32.86 76.0447 33.0867 76.8447 33.54C77.6447 33.9933 78.258 34.62 78.6847 35.42C79.1247 36.2067 79.3447 37.1 79.3447 38.1ZM77.4647 37.72C77.4647 37.0267 77.3114 36.4333 77.0047 35.94C76.698 35.4333 76.278 35.0533 75.7447 34.8C75.2247 34.5333 74.6447 34.4 74.0047 34.4C73.0847 34.4 72.298 34.6933 71.6447 35.28C71.0047 35.8667 70.638 36.68 70.5447 37.72H77.4647ZM83.567 34.82C83.887 34.1933 84.3404 33.7067 84.927 33.36C85.527 33.0133 86.2537 32.84 87.107 32.84V34.72H86.627C84.587 34.72 83.567 35.8267 83.567 38.04V44H81.747V33.04H83.567V34.82ZM99.208 38.1C99.208 38.4467 99.188 38.8133 99.148 39.2H90.388C90.4546 40.28 90.8213 41.1267 91.488 41.74C92.168 42.34 92.988 42.64 93.948 42.64C94.7346 42.64 95.388 42.46 95.908 42.1C96.4413 41.7267 96.8146 41.2333 97.028 40.62H98.988C98.6946 41.6733 98.108 42.5333 97.228 43.2C96.348 43.8533 95.2546 44.18 93.948 44.18C92.908 44.18 91.9746 43.9467 91.148 43.48C90.3346 43.0133 89.6946 42.3533 89.228 41.5C88.7613 40.6333 88.528 39.6333 88.528 38.5C88.528 37.3667 88.7546 36.3733 89.208 35.52C89.6613 34.6667 90.2946 34.0133 91.108 33.56C91.9346 33.0933 92.8813 32.86 93.948 32.86C94.988 32.86 95.908 33.0867 96.708 33.54C97.508 33.9933 98.1213 34.62 98.548 35.42C98.988 36.2067 99.208 37.1 99.208 38.1ZM97.328 37.72C97.328 37.0267 97.1746 36.4333 96.868 35.94C96.5613 35.4333 96.1413 35.0533 95.608 34.8C95.088 34.5333 94.508 34.4 93.868 34.4C92.948 34.4 92.1613 34.6933 91.508 35.28C90.868 35.8667 90.5013 36.68 90.408 37.72H97.328ZM105.49 44.18C104.65 44.18 103.897 44.04 103.23 43.76C102.564 43.4667 102.037 43.0667 101.65 42.56C101.264 42.04 101.05 41.4467 101.01 40.78H102.89C102.944 41.3267 103.197 41.7733 103.65 42.12C104.117 42.4667 104.724 42.64 105.47 42.64C106.164 42.64 106.71 42.4867 107.11 42.18C107.51 41.8733 107.71 41.4867 107.71 41.02C107.71 40.54 107.497 40.1867 107.07 39.96C106.644 39.72 105.984 39.4867 105.09 39.26C104.277 39.0467 103.61 38.8333 103.09 38.62C102.584 38.3933 102.144 38.0667 101.77 37.64C101.41 37.2 101.23 36.6267 101.23 35.92C101.23 35.36 101.397 34.8467 101.73 34.38C102.064 33.9133 102.537 33.5467 103.15 33.28C103.764 33 104.464 32.86 105.25 32.86C106.464 32.86 107.444 33.1667 108.19 33.78C108.937 34.3933 109.337 35.2333 109.39 36.3H107.57C107.53 35.7267 107.297 35.2667 106.87 34.92C106.457 34.5733 105.897 34.4 105.19 34.4C104.537 34.4 104.017 34.54 103.63 34.82C103.244 35.1 103.05 35.4667 103.05 35.92C103.05 36.28 103.164 36.58 103.39 36.82C103.63 37.0467 103.924 37.2333 104.27 37.38C104.63 37.5133 105.124 37.6667 105.75 37.84C106.537 38.0533 107.177 38.2667 107.67 38.48C108.164 38.68 108.584 38.9867 108.93 39.4C109.29 39.8133 109.477 40.3533 109.49 41.02C109.49 41.62 109.324 42.16 108.99 42.64C108.657 43.12 108.184 43.5 107.57 43.78C106.97 44.0467 106.277 44.18 105.49 44.18ZM114.28 34.54V41C114.28 41.5333 114.393 41.9133 114.62 42.14C114.846 42.3533 115.24 42.46 115.8 42.46H117.14V44H115.5C114.486 44 113.726 43.7667 113.22 43.3C112.713 42.8333 112.46 42.0667 112.46 41V34.54H111.04V33.04H112.46V30.28H114.28V33.04H117.14V34.54H114.28ZM129.345 38.1C129.345 38.4467 129.325 38.8133 129.285 39.2H120.525C120.591 40.28 120.958 41.1267 121.625 41.74C122.305 42.34 123.125 42.64 124.085 42.64C124.871 42.64 125.525 42.46 126.045 42.1C126.578 41.7267 126.951 41.2333 127.165 40.62H129.125C128.831 41.6733 128.245 42.5333 127.365 43.2C126.485 43.8533 125.391 44.18 124.085 44.18C123.045 44.18 122.111 43.9467 121.285 43.48C120.471 43.0133 119.831 42.3533 119.365 41.5C118.898 40.6333 118.665 39.6333 118.665 38.5C118.665 37.3667 118.891 36.3733 119.345 35.52C119.798 34.6667 120.431 34.0133 121.245 33.56C122.071 33.0933 123.018 32.86 124.085 32.86C125.125 32.86 126.045 33.0867 126.845 33.54C127.645 33.9933 128.258 34.62 128.685 35.42C129.125 36.2067 129.345 37.1 129.345 38.1ZM127.465 37.72C127.465 37.0267 127.311 36.4333 127.005 35.94C126.698 35.4333 126.278 35.0533 125.745 34.8C125.225 34.5333 124.645 34.4 124.005 34.4C123.085 34.4 122.298 34.6933 121.645 35.28C121.005 35.8667 120.638 36.68 120.545 37.72H127.465ZM131.067 38.48C131.067 37.36 131.294 36.38 131.747 35.54C132.2 34.6867 132.82 34.0267 133.607 33.56C134.407 33.0933 135.3 32.86 136.287 32.86C137.14 32.86 137.934 33.06 138.667 33.46C139.4 33.8467 139.96 34.36 140.347 35V29.2H142.187V44H140.347V41.94C139.987 42.5933 139.454 43.1333 138.747 43.56C138.04 43.9733 137.214 44.18 136.267 44.18C135.294 44.18 134.407 43.94 133.607 43.46C132.82 42.98 132.2 42.3067 131.747 41.44C131.294 40.5733 131.067 39.5867 131.067 38.48ZM140.347 38.5C140.347 37.6733 140.18 36.9533 139.847 36.34C139.514 35.7267 139.06 35.26 138.487 34.94C137.927 34.6067 137.307 34.44 136.627 34.44C135.947 34.44 135.327 34.6 134.767 34.92C134.207 35.24 133.76 35.7067 133.427 36.32C133.094 36.9333 132.927 37.6533 132.927 38.48C132.927 39.32 133.094 40.0533 133.427 40.68C133.76 41.2933 134.207 41.7667 134.767 42.1C135.327 42.42 135.947 42.58 136.627 42.58C137.307 42.58 137.927 42.42 138.487 42.1C139.06 41.7667 139.514 41.2933 139.847 40.68C140.18 40.0533 140.347 39.3267 140.347 38.5ZM151.535 31.26C151.188 31.26 150.895 31.14 150.655 30.9C150.415 30.66 150.295 30.3667 150.295 30.02C150.295 29.6733 150.415 29.38 150.655 29.14C150.895 28.9 151.188 28.78 151.535 28.78C151.868 28.78 152.148 28.9 152.375 29.14C152.615 29.38 152.735 29.6733 152.735 30.02C152.735 30.3667 152.615 30.66 152.375 30.9C152.148 31.14 151.868 31.26 151.535 31.26ZM152.415 33.04V44H150.595V33.04H152.415ZM160.857 32.84C162.19 32.84 163.27 33.2467 164.097 34.06C164.923 34.86 165.337 36.02 165.337 37.54V44H163.537V37.8C163.537 36.7067 163.263 35.8733 162.717 35.3C162.17 34.7133 161.423 34.42 160.477 34.42C159.517 34.42 158.75 34.72 158.177 35.32C157.617 35.92 157.337 36.7933 157.337 37.94V44H155.517V33.04H157.337V34.6C157.697 34.04 158.183 33.6067 158.797 33.3C159.423 32.9933 160.11 32.84 160.857 32.84ZM172.962 38.48C172.962 37.36 173.188 36.38 173.642 35.54C174.095 34.6867 174.715 34.0267 175.502 33.56C176.302 33.0933 177.195 32.86 178.182 32.86C179.035 32.86 179.828 33.06 180.562 33.46C181.295 33.8467 181.855 34.36 182.242 35V29.2H184.082V44H182.242V41.94C181.882 42.5933 181.348 43.1333 180.642 43.56C179.935 43.9733 179.108 44.18 178.162 44.18C177.188 44.18 176.302 43.94 175.502 43.46C174.715 42.98 174.095 42.3067 173.642 41.44C173.188 40.5733 172.962 39.5867 172.962 38.48ZM182.242 38.5C182.242 37.6733 182.075 36.9533 181.742 36.34C181.408 35.7267 180.955 35.26 180.382 34.94C179.822 34.6067 179.202 34.44 178.522 34.44C177.842 34.44 177.222 34.6 176.662 34.92C176.102 35.24 175.655 35.7067 175.322 36.32C174.988 36.9333 174.822 37.6533 174.822 38.48C174.822 39.32 174.988 40.0533 175.322 40.68C175.655 41.2933 176.102 41.7667 176.662 42.1C177.222 42.42 177.842 42.58 178.522 42.58C179.202 42.58 179.822 42.42 180.382 42.1C180.955 41.7667 181.408 41.2933 181.742 40.68C182.075 40.0533 182.242 39.3267 182.242 38.5ZM197.157 38.1C197.157 38.4467 197.137 38.8133 197.097 39.2H188.337C188.404 40.28 188.771 41.1267 189.437 41.74C190.117 42.34 190.937 42.64 191.897 42.64C192.684 42.64 193.337 42.46 193.857 42.1C194.391 41.7267 194.764 41.2333 194.977 40.62H196.937C196.644 41.6733 196.057 42.5333 195.177 43.2C194.297 43.8533 193.204 44.18 191.897 44.18C190.857 44.18 189.924 43.9467 189.097 43.48C188.284 43.0133 187.644 42.3533 187.177 41.5C186.711 40.6333 186.477 39.6333 186.477 38.5C186.477 37.3667 186.704 36.3733 187.157 35.52C187.611 34.6667 188.244 34.0133 189.057 33.56C189.884 33.0933 190.831 32.86 191.897 32.86C192.937 32.86 193.857 33.0867 194.657 33.54C195.457 33.9933 196.071 34.62 196.497 35.42C196.937 36.2067 197.157 37.1 197.157 38.1ZM195.277 37.72C195.277 37.0267 195.124 36.4333 194.817 35.94C194.511 35.4333 194.091 35.0533 193.557 34.8C193.037 34.5333 192.457 34.4 191.817 34.4C190.897 34.4 190.111 34.6933 189.457 35.28C188.817 35.8667 188.451 36.68 188.357 37.72H195.277ZM203.64 42.32L207.04 33.04H208.98L204.68 44H202.56L198.26 33.04H200.22L203.64 42.32ZM220.77 38.1C220.77 38.4467 220.75 38.8133 220.71 39.2H211.95C212.017 40.28 212.384 41.1267 213.05 41.74C213.73 42.34 214.55 42.64 215.51 42.64C216.297 42.64 216.95 42.46 217.47 42.1C218.004 41.7267 218.377 41.2333 218.59 40.62H220.55C220.257 41.6733 219.67 42.5333 218.79 43.2C217.91 43.8533 216.817 44.18 215.51 44.18C214.47 44.18 213.537 43.9467 212.71 43.48C211.897 43.0133 211.257 42.3533 210.79 41.5C210.324 40.6333 210.09 39.6333 210.09 38.5C210.09 37.3667 210.317 36.3733 210.77 35.52C211.224 34.6667 211.857 34.0133 212.67 33.56C213.497 33.0933 214.444 32.86 215.51 32.86C216.55 32.86 217.47 33.0867 218.27 33.54C219.07 33.9933 219.684 34.62 220.11 35.42C220.55 36.2067 220.77 37.1 220.77 38.1ZM218.89 37.72C218.89 37.0267 218.737 36.4333 218.43 35.94C218.124 35.4333 217.704 35.0533 217.17 34.8C216.65 34.5333 216.07 34.4 215.43 34.4C214.51 34.4 213.724 34.6933 213.07 35.28C212.43 35.8667 212.064 36.68 211.97 37.72H218.89ZM224.993 29.2V44H223.173V29.2H224.993ZM232.875 44.18C231.848 44.18 230.915 43.9467 230.075 43.48C229.248 43.0133 228.595 42.3533 228.115 41.5C227.648 40.6333 227.415 39.6333 227.415 38.5C227.415 37.38 227.655 36.3933 228.135 35.54C228.628 34.6733 229.295 34.0133 230.135 33.56C230.975 33.0933 231.915 32.86 232.955 32.86C233.995 32.86 234.935 33.0933 235.775 33.56C236.615 34.0133 237.275 34.6667 237.755 35.52C238.248 36.3733 238.495 37.3667 238.495 38.5C238.495 39.6333 238.241 40.6333 237.735 41.5C237.241 42.3533 236.568 43.0133 235.715 43.48C234.861 43.9467 233.915 44.18 232.875 44.18ZM232.875 42.58C233.528 42.58 234.141 42.4267 234.715 42.12C235.288 41.8133 235.748 41.3533 236.095 40.74C236.455 40.1267 236.635 39.38 236.635 38.5C236.635 37.62 236.461 36.8733 236.115 36.26C235.768 35.6467 235.315 35.1933 234.755 34.9C234.195 34.5933 233.588 34.44 232.935 34.44C232.268 34.44 231.655 34.5933 231.095 34.9C230.548 35.1933 230.108 35.6467 229.775 36.26C229.441 36.8733 229.275 37.62 229.275 38.5C229.275 39.3933 229.435 40.1467 229.755 40.76C230.088 41.3733 230.528 41.8333 231.075 42.14C231.621 42.4333 232.221 42.58 232.875 42.58ZM242.708 35.06C243.068 34.4333 243.601 33.9133 244.308 33.5C245.028 33.0733 245.861 32.86 246.808 32.86C247.781 32.86 248.661 33.0933 249.448 33.56C250.248 34.0267 250.874 34.6867 251.328 35.54C251.781 36.38 252.008 37.36 252.008 38.48C252.008 39.5867 251.781 40.5733 251.328 41.44C250.874 42.3067 250.248 42.98 249.448 43.46C248.661 43.94 247.781 44.18 246.808 44.18C245.874 44.18 245.048 43.9733 244.328 43.56C243.621 43.1333 243.081 42.6067 242.708 41.98V49.2H240.888V33.04H242.708V35.06ZM250.148 38.48C250.148 37.6533 249.981 36.9333 249.648 36.32C249.314 35.7067 248.861 35.24 248.288 34.92C247.728 34.6 247.108 34.44 246.428 34.44C245.761 34.44 245.141 34.6067 244.568 34.94C244.008 35.26 243.554 35.7333 243.208 36.36C242.874 36.9733 242.708 37.6867 242.708 38.5C242.708 39.3267 242.874 40.0533 243.208 40.68C243.554 41.2933 244.008 41.7667 244.568 42.1C245.141 42.42 245.761 42.58 246.428 42.58C247.108 42.58 247.728 42.42 248.288 42.1C248.861 41.7667 249.314 41.2933 249.648 40.68C249.981 40.0533 250.148 39.32 250.148 38.48ZM255.343 31.26C254.997 31.26 254.703 31.14 254.463 30.9C254.223 30.66 254.103 30.3667 254.103 30.02C254.103 29.6733 254.223 29.38 254.463 29.14C254.703 28.9 254.997 28.78 255.343 28.78C255.677 28.78 255.957 28.9 256.183 29.14C256.423 29.38 256.543 29.6733 256.543 30.02C256.543 30.3667 256.423 30.66 256.183 30.9C255.957 31.14 255.677 31.26 255.343 31.26ZM256.223 33.04V44H254.403V33.04H256.223ZM264.665 32.84C265.998 32.84 267.078 33.2467 267.905 34.06C268.732 34.86 269.145 36.02 269.145 37.54V44H267.345V37.8C267.345 36.7067 267.072 35.8733 266.525 35.3C265.978 34.7133 265.232 34.42 264.285 34.42C263.325 34.42 262.558 34.72 261.985 35.32C261.425 35.92 261.145 36.7933 261.145 37.94V44H259.325V33.04H261.145V34.6C261.505 34.04 261.992 33.6067 262.605 33.3C263.232 32.9933 263.918 32.84 264.665 32.84ZM276.638 32.86C277.585 32.86 278.411 33.0667 279.118 33.48C279.838 33.8933 280.371 34.4133 280.718 35.04V33.04H282.558V44.24C282.558 45.24 282.345 46.1267 281.918 46.9C281.491 47.6867 280.878 48.3 280.078 48.74C279.291 49.18 278.371 49.4 277.318 49.4C275.878 49.4 274.678 49.06 273.718 48.38C272.758 47.7 272.191 46.7733 272.018 45.6H273.818C274.018 46.2667 274.431 46.8 275.058 47.2C275.685 47.6133 276.438 47.82 277.318 47.82C278.318 47.82 279.131 47.5067 279.758 46.88C280.398 46.2533 280.718 45.3733 280.718 44.24V41.94C280.358 42.58 279.825 43.1133 279.118 43.54C278.411 43.9667 277.585 44.18 276.638 44.18C275.665 44.18 274.778 43.94 273.978 43.46C273.191 42.98 272.571 42.3067 272.118 41.44C271.665 40.5733 271.438 39.5867 271.438 38.48C271.438 37.36 271.665 36.38 272.118 35.54C272.571 34.6867 273.191 34.0267 273.978 33.56C274.778 33.0933 275.665 32.86 276.638 32.86ZM280.718 38.5C280.718 37.6733 280.551 36.9533 280.218 36.34C279.885 35.7267 279.431 35.26 278.858 34.94C278.298 34.6067 277.678 34.44 276.998 34.44C276.318 34.44 275.698 34.6 275.138 34.92C274.578 35.24 274.131 35.7067 273.798 36.32C273.465 36.9333 273.298 37.6533 273.298 38.48C273.298 39.32 273.465 40.0533 273.798 40.68C274.131 41.2933 274.578 41.7667 275.138 42.1C275.698 42.42 276.318 42.58 276.998 42.58C277.678 42.58 278.298 42.42 278.858 42.1C279.431 41.7667 279.885 41.2933 280.218 40.68C280.551 40.0533 280.718 39.3267 280.718 38.5ZM287.514 41.48L285.274 46.86H284.054L285.514 41.48H287.514ZM294.251 38.48C294.251 37.36 294.477 36.38 294.931 35.54C295.384 34.6867 296.004 34.0267 296.791 33.56C297.591 33.0933 298.477 32.86 299.451 32.86C300.411 32.86 301.244 33.0667 301.951 33.48C302.657 33.8933 303.184 34.4133 303.531 35.04V33.04H305.371V44H303.531V41.96C303.171 42.6 302.631 43.1333 301.911 43.56C301.204 43.9733 300.377 44.18 299.431 44.18C298.457 44.18 297.577 43.94 296.791 43.46C296.004 42.98 295.384 42.3067 294.931 41.44C294.477 40.5733 294.251 39.5867 294.251 38.48ZM303.531 38.5C303.531 37.6733 303.364 36.9533 303.031 36.34C302.697 35.7267 302.244 35.26 301.671 34.94C301.111 34.6067 300.491 34.44 299.811 34.44C299.131 34.44 298.511 34.6 297.951 34.92C297.391 35.24 296.944 35.7067 296.611 36.32C296.277 36.9333 296.111 37.6533 296.111 38.48C296.111 39.32 296.277 40.0533 296.611 40.68C296.944 41.2933 297.391 41.7667 297.951 42.1C298.511 42.42 299.131 42.58 299.811 42.58C300.491 42.58 301.111 42.42 301.671 42.1C302.244 41.7667 302.697 41.2933 303.031 40.68C303.364 40.0533 303.531 39.3267 303.531 38.5ZM6.25586 62.54H3.95586V72H2.13586V62.54H0.715859V61.04H2.13586V60.26C2.13586 59.0333 2.44919 58.14 3.07586 57.58C3.71586 57.0067 4.73586 56.72 6.13586 56.72V58.24C5.33586 58.24 4.76919 58.4 4.43586 58.72C4.11586 59.0267 3.95586 59.54 3.95586 60.26V61.04H6.25586V62.54ZM18.3779 66.1C18.3779 66.4467 18.3579 66.8133 18.3179 67.2H9.55789C9.62456 68.28 9.99122 69.1267 10.6579 69.74C11.3379 70.34 12.1579 70.64 13.1179 70.64C13.9046 70.64 14.5579 70.46 15.0779 70.1C15.6112 69.7267 15.9846 69.2333 16.1979 68.62H18.1579C17.8646 69.6733 17.2779 70.5333 16.3979 71.2C15.5179 71.8533 14.4246 72.18 13.1179 72.18C12.0779 72.18 11.1446 71.9467 10.3179 71.48C9.50456 71.0133 8.86456 70.3533 8.39789 69.5C7.93122 68.6333 7.69789 67.6333 7.69789 66.5C7.69789 65.3667 7.92456 64.3733 8.37789 63.52C8.83122 62.6667 9.46456 62.0133 10.2779 61.56C11.1046 61.0933 12.0512 60.86 13.1179 60.86C14.1579 60.86 15.0779 61.0867 15.8779 61.54C16.6779 61.9933 17.2912 62.62 17.7179 63.42C18.1579 64.2067 18.3779 65.1 18.3779 66.1ZM16.4979 65.72C16.4979 65.0267 16.3446 64.4333 16.0379 63.94C15.7312 63.4333 15.3112 63.0533 14.7779 62.8C14.2579 62.5333 13.6779 62.4 13.0379 62.4C12.1179 62.4 11.3312 62.6933 10.6779 63.28C10.0379 63.8667 9.67122 64.68 9.57789 65.72H16.4979ZM20.1002 66.48C20.1002 65.36 20.3269 64.38 20.7802 63.54C21.2336 62.6867 21.8536 62.0267 22.6402 61.56C23.4402 61.0933 24.3269 60.86 25.3002 60.86C26.2602 60.86 27.0936 61.0667 27.8002 61.48C28.5069 61.8933 29.0336 62.4133 29.3802 63.04V61.04H31.2202V72H29.3802V69.96C29.0202 70.6 28.4802 71.1333 27.7602 71.56C27.0536 71.9733 26.2269 72.18 25.2802 72.18C24.3069 72.18 23.4269 71.94 22.6402 71.46C21.8536 70.98 21.2336 70.3067 20.7802 69.44C20.3269 68.5733 20.1002 67.5867 20.1002 66.48ZM29.3802 66.5C29.3802 65.6733 29.2136 64.9533 28.8802 64.34C28.5469 63.7267 28.0936 63.26 27.5202 62.94C26.9602 62.6067 26.3402 62.44 25.6602 62.44C24.9802 62.44 24.3602 62.6 23.8002 62.92C23.2402 63.24 22.7936 63.7067 22.4602 64.32C22.1269 64.9333 21.9602 65.6533 21.9602 66.48C21.9602 67.32 22.1269 68.0533 22.4602 68.68C22.7936 69.2933 23.2402 69.7667 23.8002 70.1C24.3602 70.42 24.9802 70.58 25.6602 70.58C26.3402 70.58 26.9602 70.42 27.5202 70.1C28.0936 69.7667 28.5469 69.2933 28.8802 68.68C29.2136 68.0533 29.3802 67.3267 29.3802 66.5ZM36.5159 62.54V69C36.5159 69.5333 36.6292 69.9133 36.8559 70.14C37.0825 70.3533 37.4759 70.46 38.0359 70.46H39.3759V72H37.7359C36.7225 72 35.9625 71.7667 35.4559 71.3C34.9492 70.8333 34.6959 70.0667 34.6959 69V62.54H33.2759V61.04H34.6959V58.28H36.5159V61.04H39.3759V62.54H36.5159ZM51.301 61.04V72H49.481V70.38C49.1343 70.94 48.6477 71.38 48.021 71.7C47.4077 72.0067 46.7277 72.16 45.981 72.16C45.1277 72.16 44.361 71.9867 43.681 71.64C43.001 71.28 42.461 70.7467 42.061 70.04C41.6743 69.3333 41.481 68.4733 41.481 67.46V61.04H43.281V67.22C43.281 68.3 43.5543 69.1333 44.101 69.72C44.6477 70.2933 45.3943 70.58 46.341 70.58C47.3143 70.58 48.081 70.28 48.641 69.68C49.201 69.08 49.481 68.2067 49.481 67.06V61.04H51.301ZM56.194 62.82C56.514 62.1933 56.9673 61.7067 57.554 61.36C58.154 61.0133 58.8807 60.84 59.734 60.84V62.72H59.254C57.214 62.72 56.194 63.8267 56.194 66.04V72H54.374V61.04H56.194V62.82ZM71.8349 66.1C71.8349 66.4467 71.8149 66.8133 71.7749 67.2H63.0149C63.0816 68.28 63.4483 69.1267 64.1149 69.74C64.7949 70.34 65.6149 70.64 66.5749 70.64C67.3616 70.64 68.0149 70.46 68.5349 70.1C69.0683 69.7267 69.4416 69.2333 69.6549 68.62H71.6149C71.3216 69.6733 70.7349 70.5333 69.8549 71.2C68.9749 71.8533 67.8816 72.18 66.5749 72.18C65.5349 72.18 64.6016 71.9467 63.7749 71.48C62.9616 71.0133 62.3216 70.3533 61.8549 69.5C61.3883 68.6333 61.1549 67.6333 61.1549 66.5C61.1549 65.3667 61.3816 64.3733 61.8349 63.52C62.2883 62.6667 62.9216 62.0133 63.7349 61.56C64.5616 61.0933 65.5083 60.86 66.5749 60.86C67.6149 60.86 68.5349 61.0867 69.3349 61.54C70.1349 61.9933 70.7483 62.62 71.1749 63.42C71.6149 64.2067 71.8349 65.1 71.8349 66.1ZM69.9549 65.72C69.9549 65.0267 69.8016 64.4333 69.4949 63.94C69.1883 63.4333 68.7683 63.0533 68.2349 62.8C67.7149 62.5333 67.1349 62.4 66.4949 62.4C65.5749 62.4 64.7883 62.6933 64.1349 63.28C63.4949 63.8667 63.1283 64.68 63.0349 65.72H69.9549ZM81.7893 62.54V69C81.7893 69.5333 81.9026 69.9133 82.1293 70.14C82.356 70.3533 82.7493 70.46 83.3093 70.46H84.6493V72H83.0093C81.996 72 81.236 71.7667 80.7293 71.3C80.2226 70.8333 79.9693 70.0667 79.9693 69V62.54H78.5493V61.04H79.9693V58.28H81.7893V61.04H84.6493V62.54H81.7893ZM92.2945 60.84C93.1211 60.84 93.8678 61.02 94.5345 61.38C95.2011 61.7267 95.7211 62.2533 96.0945 62.96C96.4811 63.6667 96.6745 64.5267 96.6745 65.54V72H94.8745V65.8C94.8745 64.7067 94.6011 63.8733 94.0545 63.3C93.5078 62.7133 92.7611 62.42 91.8145 62.42C90.8545 62.42 90.0878 62.72 89.5145 63.32C88.9545 63.92 88.6745 64.7933 88.6745 65.94V72H86.8545V57.2H88.6745V62.6C89.0345 62.04 89.5278 61.6067 90.1545 61.3C90.7945 60.9933 91.5078 60.84 92.2945 60.84ZM98.9674 66.48C98.9674 65.36 99.1941 64.38 99.6474 63.54C100.101 62.6867 100.721 62.0267 101.507 61.56C102.307 61.0933 103.194 60.86 104.167 60.86C105.127 60.86 105.961 61.0667 106.667 61.48C107.374 61.8933 107.901 62.4133 108.247 63.04V61.04H110.087V72H108.247V69.96C107.887 70.6 107.347 71.1333 106.627 71.56C105.921 71.9733 105.094 72.18 104.147 72.18C103.174 72.18 102.294 71.94 101.507 71.46C100.721 70.98 100.101 70.3067 99.6474 69.44C99.1941 68.5733 98.9674 67.5867 98.9674 66.48ZM108.247 66.5C108.247 65.6733 108.081 64.9533 107.747 64.34C107.414 63.7267 106.961 63.26 106.387 62.94C105.827 62.6067 105.207 62.44 104.527 62.44C103.847 62.44 103.227 62.6 102.667 62.92C102.107 63.24 101.661 63.7067 101.327 64.32C100.994 64.9333 100.827 65.6533 100.827 66.48C100.827 67.32 100.994 68.0533 101.327 68.68C101.661 69.2933 102.107 69.7667 102.667 70.1C103.227 70.42 103.847 70.58 104.527 70.58C105.207 70.58 105.827 70.42 106.387 70.1C106.961 69.7667 107.414 69.2933 107.747 68.68C108.081 68.0533 108.247 67.3267 108.247 66.5ZM115.383 62.54V69C115.383 69.5333 115.496 69.9133 115.723 70.14C115.95 70.3533 116.343 70.46 116.903 70.46H118.243V72H116.603C115.59 72 114.83 71.7667 114.323 71.3C113.816 70.8333 113.563 70.0667 113.563 69V62.54H112.143V61.04H113.563V58.28H115.383V61.04H118.243V62.54H115.383ZM135.22 61.04L128.62 77.16H126.74L128.9 71.88L124.48 61.04H126.5L129.94 69.92L133.34 61.04H135.22ZM141.83 72.18C140.803 72.18 139.87 71.9467 139.03 71.48C138.203 71.0133 137.55 70.3533 137.07 69.5C136.603 68.6333 136.37 67.6333 136.37 66.5C136.37 65.38 136.61 64.3933 137.09 63.54C137.583 62.6733 138.25 62.0133 139.09 61.56C139.93 61.0933 140.87 60.86 141.91 60.86C142.95 60.86 143.89 61.0933 144.73 61.56C145.57 62.0133 146.23 62.6667 146.71 63.52C147.203 64.3733 147.45 65.3667 147.45 66.5C147.45 67.6333 147.196 68.6333 146.69 69.5C146.196 70.3533 145.523 71.0133 144.67 71.48C143.816 71.9467 142.87 72.18 141.83 72.18ZM141.83 70.58C142.483 70.58 143.096 70.4267 143.67 70.12C144.243 69.8133 144.703 69.3533 145.05 68.74C145.41 68.1267 145.59 67.38 145.59 66.5C145.59 65.62 145.416 64.8733 145.07 64.26C144.723 63.6467 144.27 63.1933 143.71 62.9C143.15 62.5933 142.543 62.44 141.89 62.44C141.223 62.44 140.61 62.5933 140.05 62.9C139.503 63.1933 139.063 63.6467 138.73 64.26C138.396 64.8733 138.23 65.62 138.23 66.5C138.23 67.3933 138.39 68.1467 138.71 68.76C139.043 69.3733 139.483 69.8333 140.03 70.14C140.576 70.4333 141.176 70.58 141.83 70.58ZM159.563 61.04V72H157.743V70.38C157.396 70.94 156.909 71.38 156.283 71.7C155.669 72.0067 154.989 72.16 154.243 72.16C153.389 72.16 152.623 71.9867 151.943 71.64C151.263 71.28 150.723 70.7467 150.323 70.04C149.936 69.3333 149.743 68.4733 149.743 67.46V61.04H151.543V67.22C151.543 68.3 151.816 69.1333 152.363 69.72C152.909 70.2933 153.656 70.58 154.603 70.58C155.576 70.58 156.343 70.28 156.903 69.68C157.463 69.08 157.743 68.2067 157.743 67.06V61.04H159.563ZM173.308 60.84C174.641 60.84 175.721 61.2467 176.548 62.06C177.374 62.86 177.788 64.02 177.788 65.54V72H175.988V65.8C175.988 64.7067 175.714 63.8733 175.168 63.3C174.621 62.7133 173.874 62.42 172.928 62.42C171.968 62.42 171.201 62.72 170.628 63.32C170.068 63.92 169.788 64.7933 169.788 65.94V72H167.968V61.04H169.788V62.6C170.148 62.04 170.634 61.6067 171.248 61.3C171.874 60.9933 172.561 60.84 173.308 60.84ZM190.761 66.1C190.761 66.4467 190.741 66.8133 190.701 67.2H181.941C182.007 68.28 182.374 69.1267 183.041 69.74C183.721 70.34 184.541 70.64 185.501 70.64C186.287 70.64 186.941 70.46 187.461 70.1C187.994 69.7267 188.367 69.2333 188.581 68.62H190.541C190.247 69.6733 189.661 70.5333 188.781 71.2C187.901 71.8533 186.807 72.18 185.501 72.18C184.461 72.18 183.527 71.9467 182.701 71.48C181.887 71.0133 181.247 70.3533 180.781 69.5C180.314 68.6333 180.081 67.6333 180.081 66.5C180.081 65.3667 180.307 64.3733 180.761 63.52C181.214 62.6667 181.847 62.0133 182.661 61.56C183.487 61.0933 184.434 60.86 185.501 60.86C186.541 60.86 187.461 61.0867 188.261 61.54C189.061 61.9933 189.674 62.62 190.101 63.42C190.541 64.2067 190.761 65.1 190.761 66.1ZM188.881 65.72C188.881 65.0267 188.727 64.4333 188.421 63.94C188.114 63.4333 187.694 63.0533 187.161 62.8C186.641 62.5333 186.061 62.4 185.421 62.4C184.501 62.4 183.714 62.6933 183.061 63.28C182.421 63.8667 182.054 64.68 181.961 65.72H188.881ZM203.163 66.1C203.163 66.4467 203.143 66.8133 203.103 67.2H194.343C194.41 68.28 194.776 69.1267 195.443 69.74C196.123 70.34 196.943 70.64 197.903 70.64C198.69 70.64 199.343 70.46 199.863 70.1C200.396 69.7267 200.77 69.2333 200.983 68.62H202.943C202.65 69.6733 202.063 70.5333 201.183 71.2C200.303 71.8533 199.21 72.18 197.903 72.18C196.863 72.18 195.93 71.9467 195.103 71.48C194.29 71.0133 193.65 70.3533 193.183 69.5C192.716 68.6333 192.483 67.6333 192.483 66.5C192.483 65.3667 192.71 64.3733 193.163 63.52C193.616 62.6667 194.25 62.0133 195.063 61.56C195.89 61.0933 196.836 60.86 197.903 60.86C198.943 60.86 199.863 61.0867 200.663 61.54C201.463 61.9933 202.076 62.62 202.503 63.42C202.943 64.2067 203.163 65.1 203.163 66.1ZM201.283 65.72C201.283 65.0267 201.13 64.4333 200.823 63.94C200.516 63.4333 200.096 63.0533 199.563 62.8C199.043 62.5333 198.463 62.4 197.823 62.4C196.903 62.4 196.116 62.6933 195.463 63.28C194.823 63.8667 194.456 64.68 194.363 65.72H201.283ZM204.885 66.48C204.885 65.36 205.112 64.38 205.565 63.54C206.019 62.6867 206.639 62.0267 207.425 61.56C208.225 61.0933 209.119 60.86 210.105 60.86C210.959 60.86 211.752 61.06 212.485 61.46C213.219 61.8467 213.779 62.36 214.165 63V57.2H216.005V72H214.165V69.94C213.805 70.5933 213.272 71.1333 212.565 71.56C211.859 71.9733 211.032 72.18 210.085 72.18C209.112 72.18 208.225 71.94 207.425 71.46C206.639 70.98 206.019 70.3067 205.565 69.44C205.112 68.5733 204.885 67.5867 204.885 66.48ZM214.165 66.5C214.165 65.6733 213.999 64.9533 213.665 64.34C213.332 63.7267 212.879 63.26 212.305 62.94C211.745 62.6067 211.125 62.44 210.445 62.44C209.765 62.44 209.145 62.6 208.585 62.92C208.025 63.24 207.579 63.7067 207.245 64.32C206.912 64.9333 206.745 65.6533 206.745 66.48C206.745 67.32 206.912 68.0533 207.245 68.68C207.579 69.2933 208.025 69.7667 208.585 70.1C209.145 70.42 209.765 70.58 210.445 70.58C211.125 70.58 211.745 70.42 212.305 70.1C212.879 69.7667 213.332 69.2933 213.665 68.68C213.999 68.0533 214.165 67.3267 214.165 66.5ZM226.233 63.08C226.606 62.4267 227.153 61.8933 227.873 61.48C228.593 61.0667 229.413 60.86 230.333 60.86C231.32 60.86 232.206 61.0933 232.993 61.56C233.78 62.0267 234.4 62.6867 234.853 63.54C235.306 64.38 235.533 65.36 235.533 66.48C235.533 67.5867 235.306 68.5733 234.853 69.44C234.4 70.3067 233.773 70.98 232.973 71.46C232.186 71.94 231.306 72.18 230.333 72.18C229.386 72.18 228.553 71.9733 227.833 71.56C227.126 71.1467 226.593 70.62 226.233 69.98V72H224.413V57.2H226.233V63.08ZM233.673 66.48C233.673 65.6533 233.506 64.9333 233.173 64.32C232.84 63.7067 232.386 63.24 231.813 62.92C231.253 62.6 230.633 62.44 229.953 62.44C229.286 62.44 228.666 62.6067 228.093 62.94C227.533 63.26 227.08 63.7333 226.733 64.36C226.4 64.9733 226.233 65.6867 226.233 66.5C226.233 67.3267 226.4 68.0533 226.733 68.68C227.08 69.2933 227.533 69.7667 228.093 70.1C228.666 70.42 229.286 70.58 229.953 70.58C230.633 70.58 231.253 70.42 231.813 70.1C232.386 69.7667 232.84 69.2933 233.173 68.68C233.506 68.0533 233.673 67.32 233.673 66.48ZM247.649 61.04V72H245.829V70.38C245.482 70.94 244.995 71.38 244.369 71.7C243.755 72.0067 243.075 72.16 242.329 72.16C241.475 72.16 240.709 71.9867 240.029 71.64C239.349 71.28 238.809 70.7467 238.409 70.04C238.022 69.3333 237.829 68.4733 237.829 67.46V61.04H239.629V67.22C239.629 68.3 239.902 69.1333 240.449 69.72C240.995 70.2933 241.742 70.58 242.689 70.58C243.662 70.58 244.429 70.28 244.989 69.68C245.549 69.08 245.829 68.2067 245.829 67.06V61.04H247.649ZM251.662 59.26C251.315 59.26 251.022 59.14 250.782 58.9C250.542 58.66 250.422 58.3667 250.422 58.02C250.422 57.6733 250.542 57.38 250.782 57.14C251.022 56.9 251.315 56.78 251.662 56.78C251.995 56.78 252.275 56.9 252.502 57.14C252.742 57.38 252.862 57.6733 252.862 58.02C252.862 58.3667 252.742 58.66 252.502 58.9C252.275 59.14 251.995 59.26 251.662 59.26ZM252.542 61.04V72H250.722V61.04H252.542ZM257.464 57.2V72H255.644V57.2H257.464ZM262.785 62.54V69C262.785 69.5333 262.899 69.9133 263.125 70.14C263.352 70.3533 263.745 70.46 264.305 70.46H265.645V72H264.005C262.992 72 262.232 71.7667 261.725 71.3C261.219 70.8333 260.965 70.0667 260.965 69V62.54H259.545V61.04H260.965V58.28H262.785V61.04H265.645V62.54H262.785ZM277.963 72.18C276.936 72.18 276.003 71.9467 275.163 71.48C274.336 71.0133 273.683 70.3533 273.203 69.5C272.736 68.6333 272.503 67.6333 272.503 66.5C272.503 65.38 272.743 64.3933 273.223 63.54C273.716 62.6733 274.383 62.0133 275.223 61.56C276.063 61.0933 277.003 60.86 278.043 60.86C279.083 60.86 280.023 61.0933 280.863 61.56C281.703 62.0133 282.363 62.6667 282.843 63.52C283.336 64.3733 283.583 65.3667 283.583 66.5C283.583 67.6333 283.329 68.6333 282.823 69.5C282.329 70.3533 281.656 71.0133 280.803 71.48C279.949 71.9467 279.003 72.18 277.963 72.18ZM277.963 70.58C278.616 70.58 279.229 70.4267 279.803 70.12C280.376 69.8133 280.836 69.3533 281.183 68.74C281.543 68.1267 281.723 67.38 281.723 66.5C281.723 65.62 281.549 64.8733 281.203 64.26C280.856 63.6467 280.403 63.1933 279.843 62.9C279.283 62.5933 278.676 62.44 278.023 62.44C277.356 62.44 276.743 62.5933 276.183 62.9C275.636 63.1933 275.196 63.6467 274.863 64.26C274.529 64.8733 274.363 65.62 274.363 66.5C274.363 67.3933 274.523 68.1467 274.843 68.76C275.176 69.3733 275.616 69.8333 276.163 70.14C276.709 70.4333 277.309 70.58 277.963 70.58ZM287.796 62.82C288.116 62.1933 288.569 61.7067 289.156 61.36C289.756 61.0133 290.482 60.84 291.336 60.84V62.72H290.856C288.816 62.72 287.796 63.8267 287.796 66.04V72H285.976V61.04H287.796V62.82ZM298.089 66.48C298.089 65.36 298.315 64.38 298.769 63.54C299.222 62.6867 299.842 62.0267 300.629 61.56C301.429 61.0933 302.315 60.86 303.289 60.86C304.249 60.86 305.082 61.0667 305.789 61.48C306.495 61.8933 307.022 62.4133 307.369 63.04V61.04H309.209V72H307.369V69.96C307.009 70.6 306.469 71.1333 305.749 71.56C305.042 71.9733 304.215 72.18 303.269 72.18C302.295 72.18 301.415 71.94 300.629 71.46C299.842 70.98 299.222 70.3067 298.769 69.44C298.315 68.5733 298.089 67.5867 298.089 66.48ZM307.369 66.5C307.369 65.6733 307.202 64.9533 306.869 64.34C306.535 63.7267 306.082 63.26 305.509 62.94C304.949 62.6067 304.329 62.44 303.649 62.44C302.969 62.44 302.349 62.6 301.789 62.92C301.229 63.24 300.782 63.7067 300.449 64.32C300.115 64.9333 299.949 65.6533 299.949 66.48C299.949 67.32 300.115 68.0533 300.449 68.68C300.782 69.2933 301.229 69.7667 301.789 70.1C302.349 70.42 302.969 70.58 303.649 70.58C304.329 70.58 304.949 70.42 305.509 70.1C306.082 69.7667 306.535 69.2933 306.869 68.68C307.202 68.0533 307.369 67.3267 307.369 66.5ZM24.7487 91.06C25.1087 90.4333 25.642 89.9133 26.3487 89.5C27.0687 89.0733 27.902 88.86 28.8487 88.86C29.822 88.86 30.702 89.0933 31.4887 89.56C32.2887 90.0267 32.9153 90.6867 33.3687 91.54C33.822 92.38 34.0487 93.36 34.0487 94.48C34.0487 95.5867 33.822 96.5733 33.3687 97.44C32.9153 98.3067 32.2887 98.98 31.4887 99.46C30.702 99.94 29.822 100.18 28.8487 100.18C27.9153 100.18 27.0887 99.9733 26.3687 99.56C25.662 99.1333 25.122 98.6067 24.7487 97.98V105.2H22.9287V89.04H24.7487V91.06ZM32.1887 94.48C32.1887 93.6533 32.022 92.9333 31.6887 92.32C31.3553 91.7067 30.902 91.24 30.3287 90.92C29.7687 90.6 29.1487 90.44 28.4687 90.44C27.802 90.44 27.182 90.6067 26.6087 90.94C26.0487 91.26 25.5953 91.7333 25.2487 92.36C24.9153 92.9733 24.7487 93.6867 24.7487 94.5C24.7487 95.3267 24.9153 96.0533 25.2487 96.68C25.5953 97.2933 26.0487 97.7667 26.6087 98.1C27.182 98.42 27.802 98.58 28.4687 98.58C29.1487 98.58 29.7687 98.42 30.3287 98.1C30.902 97.7667 31.3553 97.2933 31.6887 96.68C32.022 96.0533 32.1887 95.32 32.1887 94.48ZM38.2643 90.82C38.5843 90.1933 39.0376 89.7067 39.6243 89.36C40.2243 89.0133 40.951 88.84 41.8043 88.84V90.72H41.3243C39.2843 90.72 38.2643 91.8267 38.2643 94.04V100H36.4443V89.04H38.2643V90.82ZM48.6852 100.18C47.6586 100.18 46.7252 99.9467 45.8852 99.48C45.0586 99.0133 44.4052 98.3533 43.9252 97.5C43.4586 96.6333 43.2252 95.6333 43.2252 94.5C43.2252 93.38 43.4652 92.3933 43.9452 91.54C44.4386 90.6733 45.1052 90.0133 45.9452 89.56C46.7852 89.0933 47.7252 88.86 48.7652 88.86C49.8052 88.86 50.7452 89.0933 51.5852 89.56C52.4252 90.0133 53.0852 90.6667 53.5652 91.52C54.0586 92.3733 54.3052 93.3667 54.3052 94.5C54.3052 95.6333 54.0519 96.6333 53.5452 97.5C53.0519 98.3533 52.3786 99.0133 51.5252 99.48C50.6719 99.9467 49.7252 100.18 48.6852 100.18ZM48.6852 98.58C49.3386 98.58 49.9519 98.4267 50.5252 98.12C51.0986 97.8133 51.5586 97.3533 51.9052 96.74C52.2652 96.1267 52.4452 95.38 52.4452 94.5C52.4452 93.62 52.2719 92.8733 51.9252 92.26C51.5786 91.6467 51.1252 91.1933 50.5652 90.9C50.0052 90.5933 49.3986 90.44 48.7452 90.44C48.0786 90.44 47.4652 90.5933 46.9052 90.9C46.3586 91.1933 45.9186 91.6467 45.5852 92.26C45.2519 92.8733 45.0852 93.62 45.0852 94.5C45.0852 95.3933 45.2452 96.1467 45.5652 96.76C45.8986 97.3733 46.3386 97.8333 46.8852 98.14C47.4319 98.4333 48.0319 98.58 48.6852 98.58ZM57.6782 87.26C57.3315 87.26 57.0382 87.14 56.7982 86.9C56.5715 86.66 56.4582 86.3667 56.4582 86.02C56.4582 85.6733 56.5715 85.38 56.7982 85.14C57.0382 84.9 57.3315 84.78 57.6782 84.78C58.0249 84.78 58.3115 84.9 58.5382 85.14C58.7782 85.38 58.8982 85.6733 58.8982 86.02C58.8982 86.3667 58.7782 86.66 58.5382 86.9C58.3115 87.14 58.0249 87.26 57.6782 87.26ZM58.5782 102.38C58.5782 103.353 58.3315 104.067 57.8382 104.52C57.3449 104.973 56.6249 105.2 55.6782 105.2H54.6182V103.66H55.3782C55.8849 103.66 56.2382 103.56 56.4382 103.36C56.6515 103.16 56.7582 102.82 56.7582 102.34V89.04H58.5782V102.38ZM71.6591 94.1C71.6591 94.4467 71.6391 94.8133 71.5991 95.2H62.8391C62.9058 96.28 63.2725 97.1267 63.9391 97.74C64.6191 98.34 65.4391 98.64 66.3991 98.64C67.1858 98.64 67.8391 98.46 68.3591 98.1C68.8925 97.7267 69.2658 97.2333 69.4791 96.62H71.4391C71.1458 97.6733 70.5591 98.5333 69.6791 99.2C68.7991 99.8533 67.7058 100.18 66.3991 100.18C65.3591 100.18 64.4258 99.9467 63.5991 99.48C62.7858 99.0133 62.1458 98.3533 61.6791 97.5C61.2125 96.6333 60.9791 95.6333 60.9791 94.5C60.9791 93.3667 61.2058 92.3733 61.6591 91.52C62.1125 90.6667 62.7458 90.0133 63.5591 89.56C64.3858 89.0933 65.3325 88.86 66.3991 88.86C67.4391 88.86 68.3591 89.0867 69.1591 89.54C69.9591 89.9933 70.5725 90.62 70.9991 91.42C71.4391 92.2067 71.6591 93.1 71.6591 94.1ZM69.7791 93.72C69.7791 93.0267 69.6258 92.4333 69.3191 91.94C69.0125 91.4333 68.5925 91.0533 68.0591 90.8C67.5391 90.5333 66.9591 90.4 66.3191 90.4C65.3991 90.4 64.6125 90.6933 63.9591 91.28C63.3191 91.8667 62.9525 92.68 62.8591 93.72H69.7791ZM73.3815 94.5C73.3815 93.3667 73.6082 92.38 74.0615 91.54C74.5148 90.6867 75.1415 90.0267 75.9415 89.56C76.7548 89.0933 77.6815 88.86 78.7215 88.86C80.0682 88.86 81.1748 89.1867 82.0415 89.84C82.9215 90.4933 83.5015 91.4 83.7815 92.56H81.8215C81.6348 91.8933 81.2682 91.3667 80.7215 90.98C80.1882 90.5933 79.5215 90.4 78.7215 90.4C77.6815 90.4 76.8415 90.76 76.2015 91.48C75.5615 92.1867 75.2415 93.1933 75.2415 94.5C75.2415 95.82 75.5615 96.84 76.2015 97.56C76.8415 98.28 77.6815 98.64 78.7215 98.64C79.5215 98.64 80.1882 98.4533 80.7215 98.08C81.2548 97.7067 81.6215 97.1733 81.8215 96.48H83.7815C83.4882 97.6 82.9015 98.5 82.0215 99.18C81.1415 99.8467 80.0415 100.18 78.7215 100.18C77.6815 100.18 76.7548 99.9467 75.9415 99.48C75.1415 99.0133 74.5148 98.3533 74.0615 97.5C73.6082 96.6467 73.3815 95.6467 73.3815 94.5ZM88.4299 90.54V97C88.4299 97.5333 88.5433 97.9133 88.7699 98.14C88.9966 98.3533 89.3899 98.46 89.9499 98.46H91.2899V100H89.6499C88.6366 100 87.8766 99.7667 87.3699 99.3C86.8633 98.8333 86.6099 98.0667 86.6099 97V90.54H85.1899V89.04H86.6099V86.28H88.4299V89.04H91.2899V90.54H88.4299ZM101.047 90.54V97C101.047 97.5333 101.16 97.9133 101.387 98.14C101.614 98.3533 102.007 98.46 102.567 98.46H103.907V100H102.267C101.254 100 100.494 99.7667 99.9871 99.3C99.4804 98.8333 99.2271 98.0667 99.2271 97V90.54H97.8071V89.04H99.2271V86.28H101.047V89.04H103.907V90.54H101.047ZM111.552 88.84C112.379 88.84 113.126 89.02 113.792 89.38C114.459 89.7267 114.979 90.2533 115.352 90.96C115.739 91.6667 115.932 92.5267 115.932 93.54V100H114.132V93.8C114.132 92.7067 113.859 91.8733 113.312 91.3C112.766 90.7133 112.019 90.42 111.072 90.42C110.112 90.42 109.346 90.72 108.772 91.32C108.212 91.92 107.932 92.7933 107.932 93.94V100H106.112V85.2H107.932V90.6C108.292 90.04 108.786 89.6067 109.412 89.3C110.052 88.9933 110.766 88.84 111.552 88.84ZM118.225 94.48C118.225 93.36 118.452 92.38 118.905 91.54C119.359 90.6867 119.979 90.0267 120.765 89.56C121.565 89.0933 122.452 88.86 123.425 88.86C124.385 88.86 125.219 89.0667 125.925 89.48C126.632 89.8933 127.159 90.4133 127.505 91.04V89.04H129.345V100H127.505V97.96C127.145 98.6 126.605 99.1333 125.885 99.56C125.179 99.9733 124.352 100.18 123.405 100.18C122.432 100.18 121.552 99.94 120.765 99.46C119.979 98.98 119.359 98.3067 118.905 97.44C118.452 96.5733 118.225 95.5867 118.225 94.48ZM127.505 94.5C127.505 93.6733 127.339 92.9533 127.005 92.34C126.672 91.7267 126.219 91.26 125.645 90.94C125.085 90.6067 124.465 90.44 123.785 90.44C123.105 90.44 122.485 90.6 121.925 90.92C121.365 91.24 120.919 91.7067 120.585 92.32C120.252 92.9333 120.085 93.6533 120.085 94.48C120.085 95.32 120.252 96.0533 120.585 96.68C120.919 97.2933 121.365 97.7667 121.925 98.1C122.485 98.42 123.105 98.58 123.785 98.58C124.465 98.58 125.085 98.42 125.645 98.1C126.219 97.7667 126.672 97.2933 127.005 96.68C127.339 96.0533 127.505 95.3267 127.505 94.5ZM134.641 90.54V97C134.641 97.5333 134.754 97.9133 134.981 98.14C135.208 98.3533 135.601 98.46 136.161 98.46H137.501V100H135.861C134.848 100 134.088 99.7667 133.581 99.3C133.074 98.8333 132.821 98.0667 132.821 97V90.54H131.401V89.04H132.821V86.28H134.641V89.04H137.501V90.54H134.641ZM150.378 88.84C151.711 88.84 152.791 89.2467 153.618 90.06C154.445 90.86 154.858 92.02 154.858 93.54V100H153.058V93.8C153.058 92.7067 152.785 91.8733 152.238 91.3C151.691 90.7133 150.945 90.42 149.998 90.42C149.038 90.42 148.271 90.72 147.698 91.32C147.138 91.92 146.858 92.7933 146.858 93.94V100H145.038V89.04H146.858V90.6C147.218 90.04 147.705 89.6067 148.318 89.3C148.945 88.9933 149.631 88.84 150.378 88.84ZM167.831 94.1C167.831 94.4467 167.811 94.8133 167.771 95.2H159.011C159.078 96.28 159.444 97.1267 160.111 97.74C160.791 98.34 161.611 98.64 162.571 98.64C163.358 98.64 164.011 98.46 164.531 98.1C165.064 97.7267 165.438 97.2333 165.651 96.62H167.611C167.318 97.6733 166.731 98.5333 165.851 99.2C164.971 99.8533 163.878 100.18 162.571 100.18C161.531 100.18 160.598 99.9467 159.771 99.48C158.958 99.0133 158.318 98.3533 157.851 97.5C157.384 96.6333 157.151 95.6333 157.151 94.5C157.151 93.3667 157.378 92.3733 157.831 91.52C158.284 90.6667 158.918 90.0133 159.731 89.56C160.558 89.0933 161.504 88.86 162.571 88.86C163.611 88.86 164.531 89.0867 165.331 89.54C166.131 89.9933 166.744 90.62 167.171 91.42C167.611 92.2067 167.831 93.1 167.831 94.1ZM165.951 93.72C165.951 93.0267 165.798 92.4333 165.491 91.94C165.184 91.4333 164.764 91.0533 164.231 90.8C163.711 90.5333 163.131 90.4 162.491 90.4C161.571 90.4 160.784 90.6933 160.131 91.28C159.491 91.8667 159.124 92.68 159.031 93.72H165.951ZM180.233 94.1C180.233 94.4467 180.213 94.8133 180.173 95.2H171.413C171.48 96.28 171.847 97.1267 172.513 97.74C173.193 98.34 174.013 98.64 174.973 98.64C175.76 98.64 176.413 98.46 176.933 98.1C177.467 97.7267 177.84 97.2333 178.053 96.62H180.013C179.72 97.6733 179.133 98.5333 178.253 99.2C177.373 99.8533 176.28 100.18 174.973 100.18C173.933 100.18 173 99.9467 172.173 99.48C171.36 99.0133 170.72 98.3533 170.253 97.5C169.787 96.6333 169.553 95.6333 169.553 94.5C169.553 93.3667 169.78 92.3733 170.233 91.52C170.687 90.6667 171.32 90.0133 172.133 89.56C172.96 89.0933 173.907 88.86 174.973 88.86C176.013 88.86 176.933 89.0867 177.733 89.54C178.533 89.9933 179.147 90.62 179.573 91.42C180.013 92.2067 180.233 93.1 180.233 94.1ZM178.353 93.72C178.353 93.0267 178.2 92.4333 177.893 91.94C177.587 91.4333 177.167 91.0533 176.633 90.8C176.113 90.5333 175.533 90.4 174.893 90.4C173.973 90.4 173.187 90.6933 172.533 91.28C171.893 91.8667 171.527 92.68 171.433 93.72H178.353ZM181.956 94.48C181.956 93.36 182.182 92.38 182.636 91.54C183.089 90.6867 183.709 90.0267 184.496 89.56C185.296 89.0933 186.189 88.86 187.176 88.86C188.029 88.86 188.822 89.06 189.556 89.46C190.289 89.8467 190.849 90.36 191.236 91V85.2H193.076V100H191.236V97.94C190.876 98.5933 190.342 99.1333 189.636 99.56C188.929 99.9733 188.102 100.18 187.156 100.18C186.182 100.18 185.296 99.94 184.496 99.46C183.709 98.98 183.089 98.3067 182.636 97.44C182.182 96.5733 181.956 95.5867 181.956 94.48ZM191.236 94.5C191.236 93.6733 191.069 92.9533 190.736 92.34C190.402 91.7267 189.949 91.26 189.376 90.94C188.816 90.6067 188.196 90.44 187.516 90.44C186.836 90.44 186.216 90.6 185.656 90.92C185.096 91.24 184.649 91.7067 184.316 92.32C183.982 92.9333 183.816 93.6533 183.816 94.48C183.816 95.32 183.982 96.0533 184.316 96.68C184.649 97.2933 185.096 97.7667 185.656 98.1C186.216 98.42 186.836 98.58 187.516 98.58C188.196 98.58 188.816 98.42 189.376 98.1C189.949 97.7667 190.402 97.2933 190.736 96.68C191.069 96.0533 191.236 95.3267 191.236 94.5ZM200.031 100.18C199.191 100.18 198.438 100.04 197.771 99.76C197.105 99.4667 196.578 99.0667 196.191 98.56C195.805 98.04 195.591 97.4467 195.551 96.78H197.431C197.485 97.3267 197.738 97.7733 198.191 98.12C198.658 98.4667 199.265 98.64 200.011 98.64C200.705 98.64 201.251 98.4867 201.651 98.18C202.051 97.8733 202.251 97.4867 202.251 97.02C202.251 96.54 202.038 96.1867 201.611 95.96C201.185 95.72 200.525 95.4867 199.631 95.26C198.818 95.0467 198.151 94.8333 197.631 94.62C197.125 94.3933 196.685 94.0667 196.311 93.64C195.951 93.2 195.771 92.6267 195.771 91.92C195.771 91.36 195.938 90.8467 196.271 90.38C196.605 89.9133 197.078 89.5467 197.691 89.28C198.305 89 199.005 88.86 199.791 88.86C201.005 88.86 201.985 89.1667 202.731 89.78C203.478 90.3933 203.878 91.2333 203.931 92.3H202.111C202.071 91.7267 201.838 91.2667 201.411 90.92C200.998 90.5733 200.438 90.4 199.731 90.4C199.078 90.4 198.558 90.54 198.171 90.82C197.785 91.1 197.591 91.4667 197.591 91.92C197.591 92.28 197.705 92.58 197.931 92.82C198.171 93.0467 198.465 93.2333 198.811 93.38C199.171 93.5133 199.665 93.6667 200.291 93.84C201.078 94.0533 201.718 94.2667 202.211 94.48C202.705 94.68 203.125 94.9867 203.471 95.4C203.831 95.8133 204.018 96.3533 204.031 97.02C204.031 97.62 203.865 98.16 203.531 98.64C203.198 99.12 202.725 99.5 202.111 99.78C201.511 100.047 200.818 100.18 200.031 100.18ZM211.253 94.5C211.253 93.3667 211.479 92.38 211.933 91.54C212.386 90.6867 213.013 90.0267 213.813 89.56C214.626 89.0933 215.553 88.86 216.593 88.86C217.939 88.86 219.046 89.1867 219.913 89.84C220.793 90.4933 221.373 91.4 221.653 92.56H219.693C219.506 91.8933 219.139 91.3667 218.593 90.98C218.059 90.5933 217.393 90.4 216.593 90.4C215.553 90.4 214.713 90.76 214.073 91.48C213.433 92.1867 213.113 93.1933 213.113 94.5C213.113 95.82 213.433 96.84 214.073 97.56C214.713 98.28 215.553 98.64 216.593 98.64C217.393 98.64 218.059 98.4533 218.593 98.08C219.126 97.7067 219.493 97.1733 219.693 96.48H221.653C221.359 97.6 220.773 98.5 219.893 99.18C219.013 99.8467 217.913 100.18 216.593 100.18C215.553 100.18 214.626 99.9467 213.813 99.48C213.013 99.0133 212.386 98.3533 211.933 97.5C211.479 96.6467 211.253 95.6467 211.253 94.5ZM228.861 100.18C227.834 100.18 226.901 99.9467 226.061 99.48C225.234 99.0133 224.581 98.3533 224.101 97.5C223.634 96.6333 223.401 95.6333 223.401 94.5C223.401 93.38 223.641 92.3933 224.121 91.54C224.614 90.6733 225.281 90.0133 226.121 89.56C226.961 89.0933 227.901 88.86 228.941 88.86C229.981 88.86 230.921 89.0933 231.761 89.56C232.601 90.0133 233.261 90.6667 233.741 91.52C234.234 92.3733 234.481 93.3667 234.481 94.5C234.481 95.6333 234.228 96.6333 233.721 97.5C233.228 98.3533 232.554 99.0133 231.701 99.48C230.848 99.9467 229.901 100.18 228.861 100.18ZM228.861 98.58C229.514 98.58 230.128 98.4267 230.701 98.12C231.274 97.8133 231.734 97.3533 232.081 96.74C232.441 96.1267 232.621 95.38 232.621 94.5C232.621 93.62 232.448 92.8733 232.101 92.26C231.754 91.6467 231.301 91.1933 230.741 90.9C230.181 90.5933 229.574 90.44 228.921 90.44C228.254 90.44 227.641 90.5933 227.081 90.9C226.534 91.1933 226.094 91.6467 225.761 92.26C225.428 92.8733 225.261 93.62 225.261 94.5C225.261 95.3933 225.421 96.1467 225.741 96.76C226.074 97.3733 226.514 97.8333 227.061 98.14C227.608 98.4333 228.208 98.58 228.861 98.58ZM236.194 94.48C236.194 93.36 236.421 92.38 236.874 91.54C237.327 90.6867 237.947 90.0267 238.734 89.56C239.534 89.0933 240.427 88.86 241.414 88.86C242.267 88.86 243.061 89.06 243.794 89.46C244.527 89.8467 245.087 90.36 245.474 91V85.2H247.314V100H245.474V97.94C245.114 98.5933 244.581 99.1333 243.874 99.56C243.167 99.9733 242.341 100.18 241.394 100.18C240.421 100.18 239.534 99.94 238.734 99.46C237.947 98.98 237.327 98.3067 236.874 97.44C236.421 96.5733 236.194 95.5867 236.194 94.48ZM245.474 94.5C245.474 93.6733 245.307 92.9533 244.974 92.34C244.641 91.7267 244.187 91.26 243.614 90.94C243.054 90.6067 242.434 90.44 241.754 90.44C241.074 90.44 240.454 90.6 239.894 90.92C239.334 91.24 238.887 91.7067 238.554 92.32C238.221 92.9333 238.054 93.6533 238.054 94.48C238.054 95.32 238.221 96.0533 238.554 96.68C238.887 97.2933 239.334 97.7667 239.894 98.1C240.454 98.42 241.074 98.58 241.754 98.58C242.434 98.58 243.054 98.42 243.614 98.1C244.187 97.7667 244.641 97.2933 244.974 96.68C245.307 96.0533 245.474 95.3267 245.474 94.5ZM251.33 87.26C250.983 87.26 250.69 87.14 250.45 86.9C250.21 86.66 250.09 86.3667 250.09 86.02C250.09 85.6733 250.21 85.38 250.45 85.14C250.69 84.9 250.983 84.78 251.33 84.78C251.663 84.78 251.943 84.9 252.17 85.14C252.41 85.38 252.53 85.6733 252.53 86.02C252.53 86.3667 252.41 86.66 252.17 86.9C251.943 87.14 251.663 87.26 251.33 87.26ZM252.21 89.04V100H250.39V89.04H252.21ZM260.651 88.84C261.985 88.84 263.065 89.2467 263.891 90.06C264.718 90.86 265.131 92.02 265.131 93.54V100H263.331V93.8C263.331 92.7067 263.058 91.8733 262.511 91.3C261.965 90.7133 261.218 90.42 260.271 90.42C259.311 90.42 258.545 90.72 257.971 91.32C257.411 91.92 257.131 92.7933 257.131 93.94V100H255.311V89.04H257.131V90.6C257.491 90.04 257.978 89.6067 258.591 89.3C259.218 88.9933 259.905 88.84 260.651 88.84ZM272.624 88.86C273.571 88.86 274.398 89.0667 275.104 89.48C275.824 89.8933 276.358 90.4133 276.704 91.04V89.04H278.544V100.24C278.544 101.24 278.331 102.127 277.904 102.9C277.478 103.687 276.864 104.3 276.064 104.74C275.278 105.18 274.358 105.4 273.304 105.4C271.864 105.4 270.664 105.06 269.704 104.38C268.744 103.7 268.178 102.773 268.004 101.6H269.804C270.004 102.267 270.418 102.8 271.044 103.2C271.671 103.613 272.424 103.82 273.304 103.82C274.304 103.82 275.118 103.507 275.744 102.88C276.384 102.253 276.704 101.373 276.704 100.24V97.94C276.344 98.58 275.811 99.1133 275.104 99.54C274.398 99.9667 273.571 100.18 272.624 100.18C271.651 100.18 270.764 99.94 269.964 99.46C269.178 98.98 268.558 98.3067 268.104 97.44C267.651 96.5733 267.424 95.5867 267.424 94.48C267.424 93.36 267.651 92.38 268.104 91.54C268.558 90.6867 269.178 90.0267 269.964 89.56C270.764 89.0933 271.651 88.86 272.624 88.86ZM276.704 94.5C276.704 93.6733 276.538 92.9533 276.204 92.34C275.871 91.7267 275.418 91.26 274.844 90.94C274.284 90.6067 273.664 90.44 272.984 90.44C272.304 90.44 271.684 90.6 271.124 90.92C270.564 91.24 270.118 91.7067 269.784 92.32C269.451 92.9333 269.284 93.6533 269.284 94.48C269.284 95.32 269.451 96.0533 269.784 96.68C270.118 97.2933 270.564 97.7667 271.124 98.1C271.684 98.42 272.304 98.58 272.984 98.58C273.664 98.58 274.284 98.42 274.844 98.1C275.418 97.7667 275.871 97.2933 276.204 96.68C276.538 96.0533 276.704 95.3267 276.704 94.5ZM282.2 100.12C281.853 100.12 281.56 100 281.32 99.76C281.08 99.52 280.96 99.2267 280.96 98.88C280.96 98.5333 281.08 98.24 281.32 98C281.56 97.76 281.853 97.64 282.2 97.64C282.533 97.64 282.813 97.76 283.04 98C283.28 98.24 283.4 98.5333 283.4 98.88C283.4 99.2267 283.28 99.52 283.04 99.76C282.813 100 282.533 100.12 282.2 100.12ZM51.819 114.06V128H49.999V114.06H51.819ZM55.2009 114.06H57.2209L55.3009 118.6H54.0209L55.2009 114.06ZM58.6159 122.48C58.6159 121.36 58.8425 120.38 59.2959 119.54C59.7492 118.687 60.3692 118.027 61.1559 117.56C61.9559 117.093 62.8492 116.86 63.8359 116.86C64.6892 116.86 65.4825 117.06 66.2159 117.46C66.9492 117.847 67.5092 118.36 67.8959 119V113.2H69.7359V128H67.8959V125.94C67.5359 126.593 67.0025 127.133 66.2959 127.56C65.5892 127.973 64.7625 128.18 63.8159 128.18C62.8425 128.18 61.9559 127.94 61.1559 127.46C60.3692 126.98 59.7492 126.307 59.2959 125.44C58.8425 124.573 58.6159 123.587 58.6159 122.48ZM67.8959 122.5C67.8959 121.673 67.7292 120.953 67.3959 120.34C67.0625 119.727 66.6092 119.26 66.0359 118.94C65.4759 118.607 64.8559 118.44 64.1759 118.44C63.4959 118.44 62.8759 118.6 62.3159 118.92C61.7559 119.24 61.3092 119.707 60.9759 120.32C60.6425 120.933 60.4759 121.653 60.4759 122.48C60.4759 123.32 60.6425 124.053 60.9759 124.68C61.3092 125.293 61.7559 125.767 62.3159 126.1C62.8759 126.42 63.4959 126.58 64.1759 126.58C64.8559 126.58 65.4759 126.42 66.0359 126.1C66.6092 125.767 67.0625 125.293 67.3959 124.68C67.7292 124.053 67.8959 123.327 67.8959 122.5ZM79.9635 113.2V128H78.1435V113.2H79.9635ZM87.8454 128.18C86.8187 128.18 85.8854 127.947 85.0454 127.48C84.2187 127.013 83.5654 126.353 83.0854 125.5C82.6187 124.633 82.3854 123.633 82.3854 122.5C82.3854 121.38 82.6254 120.393 83.1054 119.54C83.5987 118.673 84.2654 118.013 85.1054 117.56C85.9454 117.093 86.8854 116.86 87.9254 116.86C88.9654 116.86 89.9054 117.093 90.7454 117.56C91.5854 118.013 92.2454 118.667 92.7254 119.52C93.2187 120.373 93.4654 121.367 93.4654 122.5C93.4654 123.633 93.2121 124.633 92.7054 125.5C92.2121 126.353 91.5387 127.013 90.6854 127.48C89.8321 127.947 88.8854 128.18 87.8454 128.18ZM87.8454 126.58C88.4987 126.58 89.1121 126.427 89.6854 126.12C90.2587 125.813 90.7187 125.353 91.0654 124.74C91.4254 124.127 91.6054 123.38 91.6054 122.5C91.6054 121.62 91.4321 120.873 91.0854 120.26C90.7387 119.647 90.2854 119.193 89.7254 118.9C89.1654 118.593 88.5587 118.44 87.9054 118.44C87.2387 118.44 86.6254 118.593 86.0654 118.9C85.5187 119.193 85.0787 119.647 84.7454 120.26C84.4121 120.873 84.2454 121.62 84.2454 122.5C84.2454 123.393 84.4054 124.147 84.7254 124.76C85.0587 125.373 85.4987 125.833 86.0454 126.14C86.5921 126.433 87.1921 126.58 87.8454 126.58ZM99.9384 126.32L103.338 117.04H105.278L100.978 128H98.8584L94.5584 117.04H96.5184L99.9384 126.32ZM117.069 122.1C117.069 122.447 117.049 122.813 117.009 123.2H108.249C108.316 124.28 108.683 125.127 109.349 125.74C110.029 126.34 110.849 126.64 111.809 126.64C112.596 126.64 113.249 126.46 113.769 126.1C114.303 125.727 114.676 125.233 114.889 124.62H116.849C116.556 125.673 115.969 126.533 115.089 127.2C114.209 127.853 113.116 128.18 111.809 128.18C110.769 128.18 109.836 127.947 109.009 127.48C108.196 127.013 107.556 126.353 107.089 125.5C106.623 124.633 106.389 123.633 106.389 122.5C106.389 121.367 106.616 120.373 107.069 119.52C107.523 118.667 108.156 118.013 108.969 117.56C109.796 117.093 110.743 116.86 111.809 116.86C112.849 116.86 113.769 117.087 114.569 117.54C115.369 117.993 115.983 118.62 116.409 119.42C116.849 120.207 117.069 121.1 117.069 122.1ZM115.189 121.72C115.189 121.027 115.036 120.433 114.729 119.94C114.423 119.433 114.003 119.053 113.469 118.8C112.949 118.533 112.369 118.4 111.729 118.4C110.809 118.4 110.023 118.693 109.369 119.28C108.729 119.867 108.363 120.68 108.269 121.72H115.189ZM127.024 118.54V125C127.024 125.533 127.137 125.913 127.364 126.14C127.59 126.353 127.984 126.46 128.544 126.46H129.884V128H128.244C127.23 128 126.47 127.767 125.964 127.3C125.457 126.833 125.204 126.067 125.204 125V118.54H123.784V117.04H125.204V114.28H127.024V117.04H129.884V118.54H127.024ZM136.869 128.18C135.842 128.18 134.909 127.947 134.069 127.48C133.242 127.013 132.589 126.353 132.109 125.5C131.642 124.633 131.409 123.633 131.409 122.5C131.409 121.38 131.649 120.393 132.129 119.54C132.622 118.673 133.289 118.013 134.129 117.56C134.969 117.093 135.909 116.86 136.949 116.86C137.989 116.86 138.929 117.093 139.769 117.56C140.609 118.013 141.269 118.667 141.749 119.52C142.242 120.373 142.489 121.367 142.489 122.5C142.489 123.633 142.235 124.633 141.729 125.5C141.235 126.353 140.562 127.013 139.709 127.48C138.855 127.947 137.909 128.18 136.869 128.18ZM136.869 126.58C137.522 126.58 138.135 126.427 138.709 126.12C139.282 125.813 139.742 125.353 140.089 124.74C140.449 124.127 140.629 123.38 140.629 122.5C140.629 121.62 140.455 120.873 140.109 120.26C139.762 119.647 139.309 119.193 138.749 118.9C138.189 118.593 137.582 118.44 136.929 118.44C136.262 118.44 135.649 118.593 135.089 118.9C134.542 119.193 134.102 119.647 133.769 120.26C133.435 120.873 133.269 121.62 133.269 122.5C133.269 123.393 133.429 124.147 133.749 124.76C134.082 125.373 134.522 125.833 135.069 126.14C135.615 126.433 136.215 126.58 136.869 126.58ZM155.654 116.84C156.48 116.84 157.227 117.02 157.894 117.38C158.56 117.727 159.08 118.253 159.454 118.96C159.84 119.667 160.034 120.527 160.034 121.54V128H158.234V121.8C158.234 120.707 157.96 119.873 157.414 119.3C156.867 118.713 156.12 118.42 155.174 118.42C154.214 118.42 153.447 118.72 152.874 119.32C152.314 119.92 152.034 120.793 152.034 121.94V128H150.214V113.2H152.034V118.6C152.394 118.04 152.887 117.607 153.514 117.3C154.154 116.993 154.867 116.84 155.654 116.84ZM173.007 122.1C173.007 122.447 172.987 122.813 172.947 123.2H164.187C164.253 124.28 164.62 125.127 165.287 125.74C165.967 126.34 166.787 126.64 167.747 126.64C168.533 126.64 169.187 126.46 169.707 126.1C170.24 125.727 170.613 125.233 170.827 124.62H172.787C172.493 125.673 171.907 126.533 171.027 127.2C170.147 127.853 169.053 128.18 167.747 128.18C166.707 128.18 165.773 127.947 164.947 127.48C164.133 127.013 163.493 126.353 163.027 125.5C162.56 124.633 162.327 123.633 162.327 122.5C162.327 121.367 162.553 120.373 163.007 119.52C163.46 118.667 164.093 118.013 164.907 117.56C165.733 117.093 166.68 116.86 167.747 116.86C168.787 116.86 169.707 117.087 170.507 117.54C171.307 117.993 171.92 118.62 172.347 119.42C172.787 120.207 173.007 121.1 173.007 122.1ZM171.127 121.72C171.127 121.027 170.973 120.433 170.667 119.94C170.36 119.433 169.94 119.053 169.407 118.8C168.887 118.533 168.307 118.4 167.667 118.4C166.747 118.4 165.96 118.693 165.307 119.28C164.667 119.867 164.3 120.68 164.207 121.72H171.127ZM177.229 113.2V128H175.409V113.2H177.229ZM182.151 119.06C182.511 118.433 183.044 117.913 183.751 117.5C184.471 117.073 185.304 116.86 186.251 116.86C187.224 116.86 188.104 117.093 188.891 117.56C189.691 118.027 190.318 118.687 190.771 119.54C191.224 120.38 191.451 121.36 191.451 122.48C191.451 123.587 191.224 124.573 190.771 125.44C190.318 126.307 189.691 126.98 188.891 127.46C188.104 127.94 187.224 128.18 186.251 128.18C185.318 128.18 184.491 127.973 183.771 127.56C183.064 127.133 182.524 126.607 182.151 125.98V133.2H180.331V117.04H182.151V119.06ZM189.591 122.48C189.591 121.653 189.424 120.933 189.091 120.32C188.758 119.707 188.304 119.24 187.731 118.92C187.171 118.6 186.551 118.44 185.871 118.44C185.204 118.44 184.584 118.607 184.011 118.94C183.451 119.26 182.998 119.733 182.651 120.36C182.318 120.973 182.151 121.687 182.151 122.5C182.151 123.327 182.318 124.053 182.651 124.68C182.998 125.293 183.451 125.767 184.011 126.1C184.584 126.42 185.204 126.58 185.871 126.58C186.551 126.58 187.171 126.42 187.731 126.1C188.304 125.767 188.758 125.293 189.091 124.68C189.424 124.053 189.591 123.32 189.591 122.48ZM213.779 117.04L210.359 128H208.479L205.839 119.3L203.199 128H201.319L197.879 117.04H199.739L202.259 126.24L204.979 117.04H206.839L209.499 126.26L211.979 117.04H213.779ZM216.525 115.26C216.178 115.26 215.885 115.14 215.645 114.9C215.405 114.66 215.285 114.367 215.285 114.02C215.285 113.673 215.405 113.38 215.645 113.14C215.885 112.9 216.178 112.78 216.525 112.78C216.858 112.78 217.138 112.9 217.365 113.14C217.605 113.38 217.725 113.673 217.725 114.02C217.725 114.367 217.605 114.66 217.365 114.9C217.138 115.14 216.858 115.26 216.525 115.26ZM217.405 117.04V128H215.585V117.04H217.405ZM222.727 118.54V125C222.727 125.533 222.84 125.913 223.067 126.14C223.293 126.353 223.687 126.46 224.247 126.46H225.587V128H223.947C222.933 128 222.173 127.767 221.667 127.3C221.16 126.833 220.907 126.067 220.907 125V118.54H219.487V117.04H220.907V114.28H222.727V117.04H225.587V118.54H222.727ZM233.232 116.84C234.059 116.84 234.805 117.02 235.472 117.38C236.139 117.727 236.659 118.253 237.032 118.96C237.419 119.667 237.612 120.527 237.612 121.54V128H235.812V121.8C235.812 120.707 235.539 119.873 234.992 119.3C234.445 118.713 233.699 118.42 232.752 118.42C231.792 118.42 231.025 118.72 230.452 119.32C229.892 119.92 229.612 120.793 229.612 121.94V128H227.792V113.2H229.612V118.6C229.972 118.04 230.465 117.607 231.092 117.3C231.732 116.993 232.445 116.84 233.232 116.84ZM246.857 115.26C246.51 115.26 246.217 115.14 245.977 114.9C245.737 114.66 245.617 114.367 245.617 114.02C245.617 113.673 245.737 113.38 245.977 113.14C246.217 112.9 246.51 112.78 246.857 112.78C247.19 112.78 247.47 112.9 247.697 113.14C247.937 113.38 248.057 113.673 248.057 114.02C248.057 114.367 247.937 114.66 247.697 114.9C247.47 115.14 247.19 115.26 246.857 115.26ZM247.737 117.04V128H245.917V117.04H247.737ZM253.059 118.54V125C253.059 125.533 253.172 125.913 253.399 126.14C253.625 126.353 254.019 126.46 254.579 126.46H255.919V128H254.279C253.265 128 252.505 127.767 251.999 127.3C251.492 126.833 251.239 126.067 251.239 125V118.54H249.819V117.04H251.239V114.28H253.059V117.04H255.919V118.54H253.059ZM260.484 114.06L260.264 124.06H258.744L258.524 114.06H260.484ZM259.584 128.12C259.237 128.12 258.944 128 258.704 127.76C258.464 127.52 258.344 127.227 258.344 126.88C258.344 126.533 258.464 126.24 258.704 126C258.944 125.76 259.237 125.64 259.584 125.64C259.917 125.64 260.197 125.76 260.424 126C260.664 126.24 260.784 126.533 260.784 126.88C260.784 127.227 260.664 127.52 260.424 127.76C260.197 128 259.917 128.12 259.584 128.12Z" fill="#EBEBFF"/>
</svg>
