<svg width="241" height="30" viewBox="0 0 241 30" fill="none" xmlns="http://www.w3.org/2000/svg">
<path d="M14.4909 0.439998C18.0909 0.439998 21.0643 1.38667 23.4109 3.28C25.7843 5.17333 27.3176 7.73333 28.0109 10.96H20.7709C20.2376 9.65333 19.4109 8.62667 18.2909 7.88C17.1976 7.13333 15.8909 6.76 14.3709 6.76C12.3709 6.76 10.7576 7.49333 9.53094 8.96C8.30427 10.4267 7.69094 12.3867 7.69094 14.84C7.69094 17.2933 8.30427 19.2533 9.53094 20.72C10.7576 22.16 12.3709 22.88 14.3709 22.88C15.8909 22.88 17.1976 22.5067 18.2909 21.76C19.4109 21.0133 20.2376 20 20.7709 18.72H28.0109C27.3176 21.92 25.7843 24.48 23.4109 26.4C21.0643 28.2933 18.0909 29.24 14.4909 29.24C11.7443 29.24 9.33094 28.64 7.25094 27.44C5.17094 26.2133 3.5576 24.5067 2.41094 22.32C1.29094 20.1333 0.730938 17.64 0.730938 14.84C0.730938 12.04 1.29094 9.54667 2.41094 7.36C3.5576 5.17333 5.17094 3.48 7.25094 2.28C9.33094 1.05333 11.7443 0.439998 14.4909 0.439998ZM42.2844 6.4C44.4977 6.4 46.471 6.86667 48.2044 7.8C49.9644 8.70667 51.3377 10.0267 52.3244 11.76C53.3377 13.4933 53.8444 15.52 53.8444 17.84C53.8444 20.16 53.3377 22.1867 52.3244 23.92C51.3377 25.6533 49.9644 26.9867 48.2044 27.92C46.471 28.8267 44.4977 29.28 42.2844 29.28C40.071 29.28 38.0844 28.8267 36.3244 27.92C34.5644 26.9867 33.1777 25.6533 32.1644 23.92C31.1777 22.1867 30.6844 20.16 30.6844 17.84C30.6844 15.52 31.1777 13.4933 32.1644 11.76C33.1777 10.0267 34.5644 8.70667 36.3244 7.8C38.0844 6.86667 40.071 6.4 42.2844 6.4ZM42.2844 12.32C40.9777 12.32 39.871 12.8 38.9644 13.76C38.0844 14.6933 37.6444 16.0533 37.6444 17.84C37.6444 19.6267 38.0844 20.9867 38.9644 21.92C39.871 22.8533 40.9777 23.32 42.2844 23.32C43.591 23.32 44.6844 22.8533 45.5644 21.92C46.4444 20.9867 46.8844 19.6267 46.8844 17.84C46.8844 16.0533 46.4444 14.6933 45.5644 13.76C44.6844 12.8 43.591 12.32 42.2844 12.32ZM71.5513 6.44C74.1113 6.44 76.1379 7.29333 77.6312 9C79.1513 10.7067 79.9113 13.0533 79.9113 16.04V29H73.0713V16.84C73.0713 15.3467 72.6713 14.1867 71.8713 13.36C71.0979 12.5067 70.0579 12.08 68.7513 12.08C67.3646 12.08 66.2579 12.52 65.4313 13.4C64.6313 14.28 64.2313 15.5333 64.2313 17.16V29H57.3913V6.68H64.2313V10.76C64.8713 9.42667 65.8179 8.37333 67.0713 7.6C68.3513 6.82667 69.8446 6.44 71.5513 6.44ZM97.0625 23.12V29H93.9825C91.3692 29 89.3292 28.36 87.8625 27.08C86.4225 25.7733 85.7025 23.6267 85.7025 20.64V12.44H82.7025V6.68H85.7025V1.2H92.5425V6.68H97.0225V12.44H92.5425V20.76C92.5425 21.64 92.7158 22.2533 93.0625 22.6C93.4358 22.9467 94.0492 23.12 94.9025 23.12H97.0625ZM109.387 6.4C111.094 6.4 112.56 6.78667 113.787 7.56C115.014 8.33333 115.92 9.38667 116.507 10.72V6.68H123.307V29H116.507V24.96C115.92 26.2933 115.014 27.3467 113.787 28.12C112.56 28.8933 111.094 29.28 109.387 29.28C107.547 29.28 105.894 28.8267 104.427 27.92C102.987 26.9867 101.84 25.6533 100.987 23.92C100.16 22.1867 99.7469 20.16 99.7469 17.84C99.7469 15.4933 100.16 13.4667 100.987 11.76C101.84 10.0267 102.987 8.70667 104.427 7.8C105.894 6.86667 107.547 6.4 109.387 6.4ZM111.587 12.4C110.12 12.4 108.934 12.88 108.027 13.84C107.147 14.8 106.707 16.1333 106.707 17.84C106.707 19.5467 107.147 20.88 108.027 21.84C108.934 22.8 110.12 23.28 111.587 23.28C113.027 23.28 114.2 22.7867 115.107 21.8C116.04 20.8133 116.507 19.4933 116.507 17.84C116.507 16.16 116.04 14.84 115.107 13.88C114.2 12.8933 113.027 12.4 111.587 12.4ZM138.096 6.4C140.976 6.4 143.39 7.2 145.336 8.8C147.283 10.3733 148.51 12.5467 149.016 15.32H141.776C141.563 14.36 141.123 13.6133 140.456 13.08C139.79 12.5467 138.95 12.28 137.936 12.28C136.736 12.28 135.75 12.76 134.976 13.72C134.203 14.6533 133.816 16.0267 133.816 17.84C133.816 19.6533 134.203 21.04 134.976 22C135.75 22.9333 136.736 23.4 137.936 23.4C138.95 23.4 139.79 23.1333 140.456 22.6C141.123 22.0667 141.563 21.32 141.776 20.36H149.016C148.51 23.1333 147.283 25.32 145.336 26.92C143.39 28.4933 140.976 29.28 138.096 29.28C135.91 29.28 133.963 28.8267 132.256 27.92C130.576 26.9867 129.256 25.6533 128.296 23.92C127.336 22.1867 126.856 20.16 126.856 17.84C126.856 15.4933 127.323 13.4667 128.256 11.76C129.216 10.0267 130.55 8.70667 132.256 7.8C133.963 6.86667 135.91 6.4 138.096 6.4ZM165.227 23.12V29H162.147C159.533 29 157.493 28.36 156.027 27.08C154.587 25.7733 153.867 23.6267 153.867 20.64V12.44H150.867V6.68H153.867V1.2H160.707V6.68H165.187V12.44H160.707V20.76C160.707 21.64 160.88 22.2533 161.227 22.6C161.6 22.9467 162.213 23.12 163.067 23.12H165.227ZM205.999 6.44C208.745 6.44 210.905 7.29333 212.479 9C214.052 10.68 214.839 13.0267 214.839 16.04V29H208.039V16.84C208.039 15.4267 207.652 14.3333 206.879 13.56C206.132 12.76 205.105 12.36 203.799 12.36C202.439 12.36 201.359 12.7867 200.559 13.64C199.785 14.4667 199.399 15.64 199.399 17.16V29H192.559V16.84C192.559 15.4267 192.185 14.3333 191.439 13.56C190.692 12.76 189.665 12.36 188.359 12.36C186.999 12.36 185.919 12.7733 185.119 13.6C184.319 14.4267 183.919 15.6133 183.919 17.16V29H177.079V6.68H183.919V10.48C184.505 9.22666 185.399 8.24 186.599 7.52C187.825 6.8 189.252 6.44 190.879 6.44C192.585 6.44 194.092 6.84 195.399 7.64C196.705 8.41333 197.692 9.53333 198.359 11C199.132 9.61333 200.185 8.50667 201.519 7.68C202.879 6.85333 204.372 6.44 205.999 6.44ZM240.583 17.24C240.583 17.8 240.517 18.4133 240.383 19.08H224.903C224.983 20.76 225.41 21.9733 226.183 22.72C226.957 23.44 227.943 23.8 229.143 23.8C230.157 23.8 230.997 23.5467 231.663 23.04C232.33 22.5333 232.77 21.88 232.983 21.08H240.223C239.93 22.6533 239.29 24.0667 238.303 25.32C237.317 26.5467 236.063 27.52 234.543 28.24C233.023 28.9333 231.33 29.28 229.463 29.28C227.277 29.28 225.33 28.8267 223.623 27.92C221.943 26.9867 220.623 25.6533 219.663 23.92C218.703 22.1867 218.223 20.16 218.223 17.84C218.223 15.4933 218.69 13.4667 219.623 11.76C220.583 10.0267 221.917 8.70667 223.623 7.8C225.33 6.86667 227.277 6.4 229.463 6.4C231.677 6.4 233.623 6.85333 235.303 7.76C236.983 8.66667 238.277 9.94667 239.183 11.6C240.117 13.2267 240.583 15.1067 240.583 17.24ZM233.663 16.2C233.69 14.7333 233.29 13.64 232.463 12.92C231.663 12.1733 230.663 11.8 229.463 11.8C228.21 11.8 227.17 12.1733 226.343 12.92C225.517 13.6667 225.05 14.76 224.943 16.2H233.663Z" fill="white"/>
</svg>
