<svg width="329" height="172" viewBox="0 0 329 172" fill="none" xmlns="http://www.w3.org/2000/svg">
<rect x="0.5" y="0.5" width="328" height="171" rx="8.5" fill="white" stroke="#CFD8DC"/>
<path d="M31.295 22.545L28.265 33H26.735L24.305 24.585L21.785 33L20.27 33.015L17.345 22.545H18.8L21.08 31.41L23.6 22.545H25.13L27.53 31.38L29.825 22.545H31.295ZM34.1538 26.115C34.3938 25.645 34.7338 25.28 35.1738 25.02C35.6238 24.76 36.1688 24.63 36.8088 24.63V26.04H36.4488C34.9188 26.04 34.1538 26.87 34.1538 28.53V33H32.7888V24.78H34.1538V26.115ZM39.0895 23.445C38.8295 23.445 38.6095 23.355 38.4295 23.175C38.2495 22.995 38.1595 22.775 38.1595 22.515C38.1595 22.255 38.2495 22.035 38.4295 21.855C38.6095 21.675 38.8295 21.585 39.0895 21.585C39.3395 21.585 39.5495 21.675 39.7195 21.855C39.8995 22.035 39.9895 22.255 39.9895 22.515C39.9895 22.775 39.8995 22.995 39.7195 23.175C39.5495 23.355 39.3395 23.445 39.0895 23.445ZM39.7495 24.78V33H38.3845V24.78H39.7495ZM43.7409 25.905V30.75C43.7409 31.15 43.8259 31.435 43.9959 31.605C44.1659 31.765 44.4609 31.845 44.8809 31.845H45.8859V33H44.6559C43.8959 33 43.3259 32.825 42.9459 32.475C42.5659 32.125 42.3759 31.55 42.3759 30.75V25.905H41.3109V24.78H42.3759V22.71H43.7409V24.78H45.8859V25.905H43.7409ZM55.0398 28.575C55.0398 28.835 55.0248 29.11 54.9948 29.4H48.4248C48.4748 30.21 48.7498 30.845 49.2498 31.305C49.7598 31.755 50.3748 31.98 51.0948 31.98C51.6848 31.98 52.1748 31.845 52.5648 31.575C52.9648 31.295 53.2448 30.925 53.4048 30.465H54.8748C54.6548 31.255 54.2148 31.9 53.5548 32.4C52.8948 32.89 52.0748 33.135 51.0948 33.135C50.3148 33.135 49.6148 32.96 48.9948 32.61C48.3848 32.26 47.9048 31.765 47.5548 31.125C47.2048 30.475 47.0298 29.725 47.0298 28.875C47.0298 28.025 47.1998 27.28 47.5398 26.64C47.8798 26 48.3548 25.51 48.9648 25.17C49.5848 24.82 50.2948 24.645 51.0948 24.645C51.8748 24.645 52.5648 24.815 53.1648 25.155C53.7648 25.495 54.2248 25.965 54.5448 26.565C54.8748 27.155 55.0398 27.825 55.0398 28.575ZM53.6298 28.29C53.6298 27.77 53.5148 27.325 53.2848 26.955C53.0548 26.575 52.7398 26.29 52.3398 26.1C51.9498 25.9 51.5148 25.8 51.0348 25.8C50.3448 25.8 49.7548 26.02 49.2648 26.46C48.7848 26.9 48.5098 27.51 48.4398 28.29H53.6298ZM67.9205 24.78L62.9705 36.87H61.5605L63.1805 32.91L59.8655 24.78H61.3805L63.9605 31.44L66.5105 24.78H67.9205ZM72.8777 33.135C72.1077 33.135 71.4077 32.96 70.7777 32.61C70.1577 32.26 69.6677 31.765 69.3077 31.125C68.9577 30.475 68.7827 29.725 68.7827 28.875C68.7827 28.035 68.9627 27.295 69.3227 26.655C69.6927 26.005 70.1927 25.51 70.8227 25.17C71.4527 24.82 72.1577 24.645 72.9377 24.645C73.7177 24.645 74.4227 24.82 75.0527 25.17C75.6827 25.51 76.1777 26 76.5377 26.64C76.9077 27.28 77.0927 28.025 77.0927 28.875C77.0927 29.725 76.9027 30.475 76.5227 31.125C76.1527 31.765 75.6477 32.26 75.0077 32.61C74.3677 32.96 73.6577 33.135 72.8777 33.135ZM72.8777 31.935C73.3677 31.935 73.8277 31.82 74.2577 31.59C74.6877 31.36 75.0327 31.015 75.2927 30.555C75.5627 30.095 75.6977 29.535 75.6977 28.875C75.6977 28.215 75.5677 27.655 75.3077 27.195C75.0477 26.735 74.7077 26.395 74.2877 26.175C73.8677 25.945 73.4127 25.83 72.9227 25.83C72.4227 25.83 71.9627 25.945 71.5427 26.175C71.1327 26.395 70.8027 26.735 70.5527 27.195C70.3027 27.655 70.1777 28.215 70.1777 28.875C70.1777 29.545 70.2977 30.11 70.5377 30.57C70.7877 31.03 71.1177 31.375 71.5277 31.605C71.9377 31.825 72.3877 31.935 72.8777 31.935ZM86.1774 24.78V33H84.8124V31.785C84.5524 32.205 84.1874 32.535 83.7174 32.775C83.2574 33.005 82.7474 33.12 82.1874 33.12C81.5474 33.12 80.9724 32.99 80.4624 32.73C79.9524 32.46 79.5474 32.06 79.2474 31.53C78.9574 31 78.8124 30.355 78.8124 29.595V24.78H80.1624V29.415C80.1624 30.225 80.3674 30.85 80.7774 31.29C81.1874 31.72 81.7474 31.935 82.4574 31.935C83.1874 31.935 83.7624 31.71 84.1824 31.26C84.6024 30.81 84.8124 30.155 84.8124 29.295V24.78H86.1774ZM89.8471 26.115C90.0871 25.645 90.4271 25.28 90.8671 25.02C91.3171 24.76 91.8621 24.63 92.5021 24.63V26.04H92.1421C90.6121 26.04 89.8471 26.87 89.8471 28.53V33H88.4821V24.78H89.8471V26.115ZM107.962 24.63C108.602 24.63 109.172 24.765 109.672 25.035C110.172 25.295 110.567 25.69 110.857 26.22C111.147 26.75 111.292 27.395 111.292 28.155V33H109.942V28.35C109.942 27.53 109.737 26.905 109.327 26.475C108.927 26.035 108.382 25.815 107.692 25.815C106.982 25.815 106.417 26.045 105.997 26.505C105.577 26.955 105.367 27.61 105.367 28.47V33H104.017V28.35C104.017 27.53 103.812 26.905 103.402 26.475C103.002 26.035 102.457 25.815 101.767 25.815C101.057 25.815 100.492 26.045 100.072 26.505C99.6519 26.955 99.4419 27.61 99.4419 28.47V33H98.0769V24.78H99.4419V25.965C99.7119 25.535 100.072 25.205 100.522 24.975C100.982 24.745 101.487 24.63 102.037 24.63C102.727 24.63 103.337 24.785 103.867 25.095C104.397 25.405 104.792 25.86 105.052 26.46C105.282 25.88 105.662 25.43 106.192 25.11C106.722 24.79 107.312 24.63 107.962 24.63ZM121.031 28.575C121.031 28.835 121.016 29.11 120.986 29.4H114.416C114.466 30.21 114.741 30.845 115.241 31.305C115.751 31.755 116.366 31.98 117.086 31.98C117.676 31.98 118.166 31.845 118.556 31.575C118.956 31.295 119.236 30.925 119.396 30.465H120.866C120.646 31.255 120.206 31.9 119.546 32.4C118.886 32.89 118.066 33.135 117.086 33.135C116.306 33.135 115.606 32.96 114.986 32.61C114.376 32.26 113.896 31.765 113.546 31.125C113.196 30.475 113.021 29.725 113.021 28.875C113.021 28.025 113.191 27.28 113.531 26.64C113.871 26 114.346 25.51 114.956 25.17C115.576 24.82 116.286 24.645 117.086 24.645C117.866 24.645 118.556 24.815 119.156 25.155C119.756 25.495 120.216 25.965 120.536 26.565C120.866 27.155 121.031 27.825 121.031 28.575ZM119.621 28.29C119.621 27.77 119.506 27.325 119.276 26.955C119.046 26.575 118.731 26.29 118.331 26.1C117.941 25.9 117.506 25.8 117.026 25.8C116.336 25.8 115.746 26.02 115.256 26.46C114.776 26.9 114.501 27.51 114.431 28.29H119.621ZM125.743 33.135C125.113 33.135 124.548 33.03 124.048 32.82C123.548 32.6 123.153 32.3 122.863 31.92C122.573 31.53 122.413 31.085 122.383 30.585H123.793C123.833 30.995 124.023 31.33 124.363 31.59C124.713 31.85 125.168 31.98 125.728 31.98C126.248 31.98 126.658 31.865 126.958 31.635C127.258 31.405 127.408 31.115 127.408 30.765C127.408 30.405 127.248 30.14 126.928 29.97C126.608 29.79 126.113 29.615 125.443 29.445C124.833 29.285 124.333 29.125 123.943 28.965C123.563 28.795 123.233 28.55 122.953 28.23C122.683 27.9 122.548 27.47 122.548 26.94C122.548 26.52 122.673 26.135 122.923 25.785C123.173 25.435 123.528 25.16 123.988 24.96C124.448 24.75 124.973 24.645 125.563 24.645C126.473 24.645 127.208 24.875 127.768 25.335C128.328 25.795 128.628 26.425 128.668 27.225H127.303C127.273 26.795 127.098 26.45 126.778 26.19C126.468 25.93 126.048 25.8 125.518 25.8C125.028 25.8 124.638 25.905 124.348 26.115C124.058 26.325 123.913 26.6 123.913 26.94C123.913 27.21 123.998 27.435 124.168 27.615C124.348 27.785 124.568 27.925 124.828 28.035C125.098 28.135 125.468 28.25 125.938 28.38C126.528 28.54 127.008 28.7 127.378 28.86C127.748 29.01 128.063 29.24 128.323 29.55C128.593 29.86 128.733 30.265 128.743 30.765C128.743 31.215 128.618 31.62 128.368 31.98C128.118 32.34 127.763 32.625 127.303 32.835C126.853 33.035 126.333 33.135 125.743 33.135ZM133.58 33.135C132.95 33.135 132.385 33.03 131.885 32.82C131.385 32.6 130.99 32.3 130.7 31.92C130.41 31.53 130.25 31.085 130.22 30.585H131.63C131.67 30.995 131.86 31.33 132.2 31.59C132.55 31.85 133.005 31.98 133.565 31.98C134.085 31.98 134.495 31.865 134.795 31.635C135.095 31.405 135.245 31.115 135.245 30.765C135.245 30.405 135.085 30.14 134.765 29.97C134.445 29.79 133.95 29.615 133.28 29.445C132.67 29.285 132.17 29.125 131.78 28.965C131.4 28.795 131.07 28.55 130.79 28.23C130.52 27.9 130.385 27.47 130.385 26.94C130.385 26.52 130.51 26.135 130.76 25.785C131.01 25.435 131.365 25.16 131.825 24.96C132.285 24.75 132.81 24.645 133.4 24.645C134.31 24.645 135.045 24.875 135.605 25.335C136.165 25.795 136.465 26.425 136.505 27.225H135.14C135.11 26.795 134.935 26.45 134.615 26.19C134.305 25.93 133.885 25.8 133.355 25.8C132.865 25.8 132.475 25.905 132.185 26.115C131.895 26.325 131.75 26.6 131.75 26.94C131.75 27.21 131.835 27.435 132.005 27.615C132.185 27.785 132.405 27.925 132.665 28.035C132.935 28.135 133.305 28.25 133.775 28.38C134.365 28.54 134.845 28.7 135.215 28.86C135.585 29.01 135.9 29.24 136.16 29.55C136.43 29.86 136.57 30.265 136.58 30.765C136.58 31.215 136.455 31.62 136.205 31.98C135.955 32.34 135.6 32.625 135.14 32.835C134.69 33.035 134.17 33.135 133.58 33.135ZM137.997 28.86C137.997 28.02 138.167 27.285 138.507 26.655C138.847 26.015 139.312 25.52 139.902 25.17C140.502 24.82 141.167 24.645 141.897 24.645C142.617 24.645 143.242 24.8 143.772 25.11C144.302 25.42 144.697 25.81 144.957 26.28V24.78H146.337V33H144.957V31.47C144.687 31.95 144.282 32.35 143.742 32.67C143.212 32.98 142.592 33.135 141.882 33.135C141.152 33.135 140.492 32.955 139.902 32.595C139.312 32.235 138.847 31.73 138.507 31.08C138.167 30.43 137.997 29.69 137.997 28.86ZM144.957 28.875C144.957 28.255 144.832 27.715 144.582 27.255C144.332 26.795 143.992 26.445 143.562 26.205C143.142 25.955 142.677 25.83 142.167 25.83C141.657 25.83 141.192 25.95 140.772 26.19C140.352 26.43 140.017 26.78 139.767 27.24C139.517 27.7 139.392 28.24 139.392 28.86C139.392 29.49 139.517 30.04 139.767 30.51C140.017 30.97 140.352 31.325 140.772 31.575C141.192 31.815 141.657 31.935 142.167 31.935C142.677 31.935 143.142 31.815 143.562 31.575C143.992 31.325 144.332 30.97 144.582 30.51C144.832 30.04 144.957 29.495 144.957 28.875ZM152.033 24.645C152.743 24.645 153.363 24.8 153.893 25.11C154.433 25.42 154.833 25.81 155.093 26.28V24.78H156.473V33.18C156.473 33.93 156.313 34.595 155.993 35.175C155.673 35.765 155.213 36.225 154.613 36.555C154.023 36.885 153.333 37.05 152.543 37.05C151.463 37.05 150.563 36.795 149.843 36.285C149.123 35.775 148.698 35.08 148.568 34.2H149.918C150.068 34.7 150.378 35.1 150.848 35.4C151.318 35.71 151.883 35.865 152.543 35.865C153.293 35.865 153.903 35.63 154.373 35.16C154.853 34.69 155.093 34.03 155.093 33.18V31.455C154.823 31.935 154.423 32.335 153.893 32.655C153.363 32.975 152.743 33.135 152.033 33.135C151.303 33.135 150.638 32.955 150.038 32.595C149.448 32.235 148.983 31.73 148.643 31.08C148.303 30.43 148.133 29.69 148.133 28.86C148.133 28.02 148.303 27.285 148.643 26.655C148.983 26.015 149.448 25.52 150.038 25.17C150.638 24.82 151.303 24.645 152.033 24.645ZM155.093 28.875C155.093 28.255 154.968 27.715 154.718 27.255C154.468 26.795 154.128 26.445 153.698 26.205C153.278 25.955 152.813 25.83 152.303 25.83C151.793 25.83 151.328 25.95 150.908 26.19C150.488 26.43 150.153 26.78 149.903 27.24C149.653 27.7 149.528 28.24 149.528 28.86C149.528 29.49 149.653 30.04 149.903 30.51C150.153 30.97 150.488 31.325 150.908 31.575C151.328 31.815 151.793 31.935 152.303 31.935C152.813 31.935 153.278 31.815 153.698 31.575C154.128 31.325 154.468 30.97 154.718 30.51C154.968 30.04 155.093 29.495 155.093 28.875ZM166.28 28.575C166.28 28.835 166.265 29.11 166.235 29.4H159.665C159.715 30.21 159.99 30.845 160.49 31.305C161 31.755 161.615 31.98 162.335 31.98C162.925 31.98 163.415 31.845 163.805 31.575C164.205 31.295 164.485 30.925 164.645 30.465H166.115C165.895 31.255 165.455 31.9 164.795 32.4C164.135 32.89 163.315 33.135 162.335 33.135C161.555 33.135 160.855 32.96 160.235 32.61C159.625 32.26 159.145 31.765 158.795 31.125C158.445 30.475 158.27 29.725 158.27 28.875C158.27 28.025 158.44 27.28 158.78 26.64C159.12 26 159.595 25.51 160.205 25.17C160.825 24.82 161.535 24.645 162.335 24.645C163.115 24.645 163.805 24.815 164.405 25.155C165.005 25.495 165.465 25.965 165.785 26.565C166.115 27.155 166.28 27.825 166.28 28.575ZM164.87 28.29C164.87 27.77 164.755 27.325 164.525 26.955C164.295 26.575 163.98 26.29 163.58 26.1C163.19 25.9 162.755 25.8 162.275 25.8C161.585 25.8 160.995 26.02 160.505 26.46C160.025 26.9 159.75 27.51 159.68 28.29H164.87ZM176.161 24.63C176.781 24.63 177.341 24.765 177.841 25.035C178.341 25.295 178.731 25.69 179.011 26.22C179.301 26.75 179.446 27.395 179.446 28.155V33H178.096V28.35C178.096 27.53 177.891 26.905 177.481 26.475C177.071 26.035 176.511 25.815 175.801 25.815C175.081 25.815 174.506 26.04 174.076 26.49C173.656 26.94 173.446 27.595 173.446 28.455V33H172.081V21.9H173.446V25.95C173.716 25.53 174.086 25.205 174.556 24.975C175.036 24.745 175.571 24.63 176.161 24.63ZM189.176 28.575C189.176 28.835 189.161 29.11 189.131 29.4H182.561C182.611 30.21 182.886 30.845 183.386 31.305C183.896 31.755 184.511 31.98 185.231 31.98C185.821 31.98 186.311 31.845 186.701 31.575C187.101 31.295 187.381 30.925 187.541 30.465H189.011C188.791 31.255 188.351 31.9 187.691 32.4C187.031 32.89 186.211 33.135 185.231 33.135C184.451 33.135 183.751 32.96 183.131 32.61C182.521 32.26 182.041 31.765 181.691 31.125C181.341 30.475 181.166 29.725 181.166 28.875C181.166 28.025 181.336 27.28 181.676 26.64C182.016 26 182.491 25.51 183.101 25.17C183.721 24.82 184.431 24.645 185.231 24.645C186.011 24.645 186.701 24.815 187.301 25.155C187.901 25.495 188.361 25.965 188.681 26.565C189.011 27.155 189.176 27.825 189.176 28.575ZM187.766 28.29C187.766 27.77 187.651 27.325 187.421 26.955C187.191 26.575 186.876 26.29 186.476 26.1C186.086 25.9 185.651 25.8 185.171 25.8C184.481 25.8 183.891 26.02 183.401 26.46C182.921 26.9 182.646 27.51 182.576 28.29H187.766ZM192.342 26.115C192.582 25.645 192.922 25.28 193.362 25.02C193.812 24.76 194.357 24.63 194.997 24.63V26.04H194.637C193.107 26.04 192.342 26.87 192.342 28.53V33H190.977V24.78H192.342V26.115ZM204.073 28.575C204.073 28.835 204.058 29.11 204.028 29.4H197.458C197.508 30.21 197.783 30.845 198.283 31.305C198.793 31.755 199.408 31.98 200.128 31.98C200.718 31.98 201.208 31.845 201.598 31.575C201.998 31.295 202.278 30.925 202.438 30.465H203.908C203.688 31.255 203.248 31.9 202.588 32.4C201.928 32.89 201.108 33.135 200.128 33.135C199.348 33.135 198.648 32.96 198.028 32.61C197.418 32.26 196.938 31.765 196.588 31.125C196.238 30.475 196.063 29.725 196.063 28.875C196.063 28.025 196.233 27.28 196.573 26.64C196.913 26 197.388 25.51 197.998 25.17C198.618 24.82 199.328 24.645 200.128 24.645C200.908 24.645 201.598 24.815 202.198 25.155C202.798 25.495 203.258 25.965 203.578 26.565C203.908 27.155 204.073 27.825 204.073 28.575ZM202.663 28.29C202.663 27.77 202.548 27.325 202.318 26.955C202.088 26.575 201.773 26.29 201.373 26.1C200.983 25.9 200.548 25.8 200.068 25.8C199.378 25.8 198.788 26.02 198.298 26.46C197.818 26.9 197.543 27.51 197.473 28.29H202.663ZM206.31 33.09C206.05 33.09 205.83 33 205.65 32.82C205.47 32.64 205.38 32.42 205.38 32.16C205.38 31.9 205.47 31.68 205.65 31.5C205.83 31.32 206.05 31.23 206.31 31.23C206.56 31.23 206.77 31.32 206.94 31.5C207.12 31.68 207.21 31.9 207.21 32.16C207.21 32.42 207.12 32.64 206.94 32.82C206.77 33 206.56 33.09 206.31 33.09ZM209.459 33.09C209.199 33.09 208.979 33 208.799 32.82C208.619 32.64 208.529 32.42 208.529 32.16C208.529 31.9 208.619 31.68 208.799 31.5C208.979 31.32 209.199 31.23 209.459 31.23C209.709 31.23 209.919 31.32 210.089 31.5C210.269 31.68 210.359 31.9 210.359 32.16C210.359 32.42 210.269 32.64 210.089 32.82C209.919 33 209.709 33.09 209.459 33.09ZM212.609 33.09C212.349 33.09 212.129 33 211.949 32.82C211.769 32.64 211.679 32.42 211.679 32.16C211.679 31.9 211.769 31.68 211.949 31.5C212.129 31.32 212.349 31.23 212.609 31.23C212.859 31.23 213.069 31.32 213.239 31.5C213.419 31.68 213.509 31.9 213.509 32.16C213.509 32.42 213.419 32.64 213.239 32.82C213.069 33 212.859 33.09 212.609 33.09Z" fill="#B3BAC5"/>
</svg>
